<svg xmlns="http://www.w3.org/2000/svg" width="23.091" height="23.669" viewBox="0 0 23.091 23.669">
  <path id="filter" d="M22.592,0H1.49A.991.991,0,0,0,.607.538,1,1,0,0,0,.685,1.584l7.731,10.89.008.011A2.209,2.209,0,0,1,8.857,13.8v8.879a.987.987,0,0,0,.987.993,1.017,1.017,0,0,0,.389-.078l4.344-1.657a.941.941,0,0,0,.648-.928V13.8a2.209,2.209,0,0,1,.433-1.311l.008-.011L23.4,1.584A1,1,0,0,0,23.476.538.991.991,0,0,0,22.592,0Zm-7.9,11.774a3.42,3.42,0,0,0-.667,2.022V20.86l-3.965,1.512V13.8a3.419,3.419,0,0,0-.667-2.022L1.887,1.2H22.2Zm0,0" transform="translate(-0.496 0)" fill="#1a1a1a"/>
</svg>
