<svg id="Layer_1" enable-background="new 0 0 511.523 511.523" height="512" viewBox="0 0 511.523 511.523" width="512" xmlns="http://www.w3.org/2000/svg"><path d="m510.607 222.997c1.461-3.988 1.162-8.409-.82-12.164-1.983-3.756-5.466-6.495-9.583-7.537-43.219-10.942-87.128-18.848-131.344-23.729v-34.469c0-62.363-50.736-113.1-113.1-113.1-62.362 0-113.099 50.736-113.099 113.1v35.837c-39.728 4.876-79.18 12.205-118.079 21.988l-13.241 3.331c-4.118 1.036-7.604 3.767-9.593 7.518-1.989 3.75-2.297 8.168-.845 12.158l83.114 228.418c5.479 15.059 19.927 25.177 35.952 25.177h269.925c15.987 0 30.424-10.085 35.924-25.097l37.835-103.272c.213-.502.407-1.016.567-1.548zm-337.945-77.899c0-45.821 37.278-83.1 83.1-83.1 45.82 0 83.099 37.278 83.099 83.1v31.626c-55.302-4.381-110.948-4.05-166.198 1.001v-32.627zm-30 66.078v32.021c0 8.284 6.716 15 15 15s15-6.716 15-15v-35.344c55.241-5.213 110.902-5.56 166.198-1.039v36.383c0 8.284 6.716 15 15 15s15-6.716 15-15v-33.436c36.228 4.129 72.238 10.345 107.804 18.676l-36.479 99.572c-61.611-12.091-123.818-18.228-185.107-18.246-.096 0-.187 0-.283 0-61.351 0-123.466 6.13-184.83 18.226l-35.183-96.691c35.564-8.825 71.6-15.525 107.88-20.122zm254.988 232.931c-1.188 3.24-4.304 5.417-7.755 5.417h-269.924c-3.459 0-6.577-2.184-7.76-5.434l-31.855-87.546c57.964-11.129 116.556-16.783 174.439-16.783h.273c57.806.017 116.476 5.676 174.657 16.795z"/></svg>