<svg xmlns="http://www.w3.org/2000/svg" width="31.272" height="37.482" viewBox="0 0 31.272 37.482">
  <g id="user" transform="translate(0 0)">
    <path id="Path_619" data-name="Path 619" d="M96.06,18.056a8.736,8.736,0,0,0,6.383-2.645,8.736,8.736,0,0,0,2.645-6.383,8.736,8.736,0,0,0-2.645-6.383,9.026,9.026,0,0,0-12.766,0,8.735,8.735,0,0,0-2.645,6.383,8.736,8.736,0,0,0,2.645,6.383A8.738,8.738,0,0,0,96.06,18.056ZM91.23,4.2a6.829,6.829,0,0,1,9.66,0,6.527,6.527,0,0,1,2,4.83,6.527,6.527,0,0,1-2,4.83,6.828,6.828,0,0,1-9.66,0,6.525,6.525,0,0,1-2-4.83,6.526,6.526,0,0,1,2-4.83Zm0,0" transform="translate(-80.66)"/>
    <path id="Path_620" data-name="Path 620" d="M31.2,258.033a22.3,22.3,0,0,0-.3-2.368,18.659,18.659,0,0,0-.583-2.381,11.763,11.763,0,0,0-.979-2.221,8.371,8.371,0,0,0-1.476-1.924,6.509,6.509,0,0,0-2.12-1.332,7.328,7.328,0,0,0-2.707-.49,2.748,2.748,0,0,0-1.467.622c-.44.287-.954.619-1.528.985a8.759,8.759,0,0,1-1.978.871,7.68,7.68,0,0,1-4.838,0,8.732,8.732,0,0,1-1.976-.871c-.569-.363-1.084-.7-1.53-.986a2.745,2.745,0,0,0-1.467-.622,7.319,7.319,0,0,0-2.707.49,6.5,6.5,0,0,0-2.121,1.332,8.374,8.374,0,0,0-1.476,1.923,11.785,11.785,0,0,0-.979,2.221,18.7,18.7,0,0,0-.582,2.381,22.145,22.145,0,0,0-.3,2.369c-.05.716-.075,1.461-.075,2.213a6.224,6.224,0,0,0,1.848,4.709,6.654,6.654,0,0,0,4.763,1.737H24.66a6.654,6.654,0,0,0,4.763-1.737,6.222,6.222,0,0,0,1.849-4.709c0-.755-.026-1.5-.076-2.214Zm-3.287,5.332a4.48,4.48,0,0,1-3.249,1.132H6.612a4.48,4.48,0,0,1-3.249-1.132A4.064,4.064,0,0,1,2.2,260.247c0-.7.023-1.4.069-2.062a19.976,19.976,0,0,1,.275-2.133,16.5,16.5,0,0,1,.512-2.1,9.6,9.6,0,0,1,.8-1.806,6.207,6.207,0,0,1,1.085-1.422,4.318,4.318,0,0,1,1.411-.877,5.055,5.055,0,0,1,1.73-.334c.077.041.214.119.436.264.452.294.972.63,1.547,1a10.882,10.882,0,0,0,2.482,1.109,9.874,9.874,0,0,0,6.189,0,10.9,10.9,0,0,0,2.484-1.11c.589-.376,1.095-.7,1.546-1,.222-.144.359-.223.436-.264a5.058,5.058,0,0,1,1.73.334,4.324,4.324,0,0,1,1.41.877,6.19,6.19,0,0,1,1.085,1.422,9.562,9.562,0,0,1,.8,1.805,16.458,16.458,0,0,1,.512,2.1A20.144,20.144,0,0,1,29,258.186h0c.047.663.07,1.356.07,2.061a4.064,4.064,0,0,1-1.167,3.117Zm0,0" transform="translate(0 -229.211)"/>
  </g>
</svg>
