<svg xmlns="http://www.w3.org/2000/svg" viewBox="0 0 298.47 298.47"><defs>
<style>
.cls-1{
  fill:none;
  }
.cls-2{
  fill:#1a1a1a;
  }
@media (prefers-color-scheme: dark) {
  .cls-1 {
    fill:#038a8a
  }
  .cls-2 {
    fill:#ffffff;
  }
}
</style>
</defs><title>favicon-square</title><g id="Layer_2" data-name="Layer 2"><g id="Ebene_1" data-name="Ebene 1"><rect class="cls-1" width="298.47" height="298.47"/><path class="cls-2" d="M144.49,296.87l2,.25c-.64-.35,2.34,0-2.49-.37Z"/><path class="cls-2" d="M148.43,290.87c-2.67.06-2.13.24-.62.55l2.61-.18C149.87,291.06,147.57,291,148.43,290.87Z"/><path class="cls-2" d="M145.33,291.88l1.35-.07A2.44,2.44,0,0,0,145.33,291.88Z"/><path class="cls-2" d="M149.55,291.66l-2.87.15c.38.12.41.35,1.32-.05C147.76,292,148.33,291.78,149.55,291.66Z"/><path class="cls-2" d="M149.94,296.35c-1.32-.05-2.27,0-2.86,0s-.83,0-.74.11a3.71,3.71,0,0,0,1.25.27c.73.07,1.78.14,3.12.17C149.14,296.66,147.15,296.46,149.94,296.35Z"/><path class="cls-2" d="M125.23,289.59l-.28-.06A.31.31,0,0,0,125.23,289.59Z"/><polygon class="cls-2" points="125.02 290.23 126.53 290.36 125.41 290.13 125.02 290.23"/><path class="cls-2" d="M132.09,293c-.18-.06-.17-.09-.18-.12C131.52,292.85,131.37,292.87,132.09,293Z"/><path class="cls-2" d="M127.12,291l-.17-.13C126.86,290.9,126.93,291,127.12,291Z"/><polygon class="cls-2" points="180.42 293.3 180.57 293.25 180.37 293.27 180.42 293.3"/><path class="cls-2" d="M175.7,294.55a12.82,12.82,0,0,1,4.67-1.28l-1.82-.92Z"/><polygon class="cls-2" points="150.66 2.12 150.66 2.11 150.66 2.19 150.66 2.12"/><path class="cls-2" d="M150.66,1.71v0Z"/><path class="cls-2" d="M150.66,2.8v0Z"/><polygon class="cls-2" points="150.66 2.54 150.66 2.66 150.66 2.62 150.66 2.54"/><path class="cls-2" d="M150.66,2.59v0Z"/><path class="cls-2" d="M150.66,1.91v0Z"/><path class="cls-2" d="M150.66,2.77V2.71h0v.06Z"/><polygon class="cls-2" points="150.66 1.54 150.66 2.07 150.66 1.89 150.66 1.54"/><path class="cls-2" d="M150.66,2V1.28c0,.05,0,.3,0,.53C150.65,1.68,150.65,1.72,150.66,2Z"/><path class="cls-2" d="M150.65,2.14v0Z"/><path class="cls-2" d="M150.65,2.54V2.9C150.66,2.76,150.65,2.55,150.65,2.54Z"/><path class="cls-2" d="M150.66,2.82v0Z"/><path class="cls-2" d="M150.65,2.57v0Z"/><path class="cls-2" d="M150.66,2.56v0Z"/><path class="cls-2" d="M150.65,2.88V2.77h0v.11Z"/><path class="cls-2" d="M150.65,2.83v0Zm0-.19v0h0Z"/><polygon class="cls-2" points="150.65 2.55 150.65 2.1 150.65 2.74 150.65 2.55"/><polygon class="cls-2" points="150.65 2.21 150.65 2.45 150.65 2.61 150.65 2.21"/><path class="cls-2" d="M150.63,2.93v0Z"/><polygon class="cls-2" points="150.63 2.12 150.63 2.13 150.63 2.57 150.63 2.12"/><path class="cls-2" d="M150.63,2.6h0v0Z"/><path class="cls-2" d="M150.66,7.08v0Z"/><path class="cls-2" d="M150.65,2.45v0Z"/><polygon class="cls-2" points="150.65 2.42 150.65 2.44 150.65 2.49 150.65 2.42"/><polygon class="cls-2" points="150.64 7.16 150.64 7.14 150.64 7.12 150.64 7.16"/><polygon class="cls-2" points="150.65 3.04 150.65 3.1 150.65 3.1 150.65 3.04"/><polygon class="cls-2" points="150.63 2.69 150.63 2.65 150.63 2.69 150.63 2.69"/><path class="cls-2" d="M150.62,2.65v0Z"/><path class="cls-2" d="M150.65,2.2v0Z"/><path class="cls-2" d="M150.65,2.4v0Z"/><path class="cls-2" d="M150.64,7.06v0Z"/><polygon class="cls-2" points="150.66 7.59 150.66 7.8 150.66 7.46 150.66 7.59"/><path class="cls-2" d="M150.63,1.65v0Z"/><path class="cls-2" d="M150.64,1.38v0Z"/><path class="cls-2" d="M104.83,268.8c-.6-1.15-.74-.55-.91-.69C105.07,270,104.9,268.7,104.83,268.8Z"/><path class="cls-2" d="M122.56,287.93c-1,0-2-.08-2.93-.12l1.27.12C121.46,287.93,122,288,122.56,287.93Z"/><path class="cls-2" d="M113.64,285.52a43.53,43.53,0,0,0-5.12-.92,30.8,30.8,0,0,1,5.3,1.67C115.06,286.32,112.37,285.34,113.64,285.52Z"/><path class="cls-2" d="M108.52,284.6a23.74,23.74,0,0,0-2.51-.51C106.79,284.29,107.62,284.44,108.52,284.6Z"/><path class="cls-2" d="M123.87,289.35l0,0c-1.21-.23-2-.39-2.4-.49C121.73,288.93,122.46,289.08,123.87,289.35Z"/><path class="cls-2" d="M110.88,286A23.13,23.13,0,0,1,106.6,285a44.82,44.82,0,0,0,5,1.66C111.9,286.56,112.69,286.54,110.88,286Z"/><path class="cls-2" d="M117.14,287.84l-.29,0C117,287.87,117.16,287.92,117.14,287.84Z"/><polygon class="cls-2" points="91.81 279.26 91.9 279.22 91.61 279.09 91.81 279.26"/><path class="cls-2" d="M111.89,286.78a11.22,11.22,0,0,0,2.79.64c-1-.23-2-.49-3.05-.8C111.51,286.65,111.48,286.69,111.89,286.78Z"/><path class="cls-2" d="M103.78,283.8a9.7,9.7,0,0,0-2.08-1C102.31,283.16,103,283.46,103.78,283.8Z"/><path class="cls-2" d="M116.45,287.58l.19,0C116.24,287.42,116.29,287.48,116.45,287.58Z"/><path class="cls-2" d="M114.68,287.42c.78.19,1.53.28,2.17.38a2.87,2.87,0,0,1-.4-.22C115.77,287.48,115.22,287.49,114.68,287.42Z"/><path class="cls-2" d="M88.72,278.48c.87.64,6,3.26,3.46,2.52-3.77-1.51-3-1.45-4.65-2.55,1.28,1.21-4.91-1.71-4.47-.67l3.3,1.41c0,.13-1.23-.3-.39.24a5.27,5.27,0,0,1,2.31.64,22.29,22.29,0,0,1,4,2c2.85,1,1.57-1-.47-2.77C91.66,279.38,91.59,279.53,88.72,278.48Z"/><path class="cls-2" d="M91.9,279.22c1.85.87,3.7,1.75,5.62,2.48l-.42-.1,1.18.41a23,23,0,0,1-3.78-2.13C92.54,279.21,92.08,279.16,91.9,279.22Z"/><path class="cls-2" d="M103.9,283.86h0c.23.13.3.19,0,.07l-.12,0a.62.62,0,0,1-.31.07c-1.59-.63-.22-.19.31-.07l.08,0v0c-1.91-.51-3.76-1.2-5.62-1.85.57.26,1.22.53,2,.86l1.41.54,1.78.57a13.69,13.69,0,0,1-2.19-.2c-.65-.08-1,0-.2.52,3.49,1.18,2.56.5,4.7,1-5.65-1.8,1.69.32-2.28-1.28,1.12.3,2.12.61,3,.91-1-.39-1.94-.78-2.82-1.16Z"/><path class="cls-2" d="M113.64,288.84l-.06-.25a6.21,6.21,0,0,0,2.16.48c.26,0,.22-.15.41-.19-1.64-.27-3.23-.73-4.85-1.09Z"/><polygon class="cls-2" points="89.11 277.93 91.18 278.66 91.97 278.52 89.11 277.93"/><polygon class="cls-2" points="84.2 275.09 85.42 275.89 85.81 275.65 84.2 275.09"/><path class="cls-2" d="M132.64,3.91l1.47-.32C133.41,3.72,133,3.82,132.64,3.91Z"/><path class="cls-2" d="M121.94,5.6l-.22.25C122.19,5.65,122.38,5.53,121.94,5.6Z"/><path class="cls-2" d="M8.59,148c.42-2.1,1.05-4.42.6-4.19l-.45.63A24.38,24.38,0,0,1,8.59,148Z"/><path class="cls-2" d="M46.85,49.08l-.53.36-.69,1.34Z"/><path class="cls-2" d="M48.87,44.93c-.53.38-1.26,1-2.26,1.79Z"/><path class="cls-2" d="M114.39,24.5l-.7,1.51C115.31,24.09,114.43,24.79,114.39,24.5Z"/><path class="cls-2" d="M36,233.74c-.92-1.58-1.69-2.8-2.41-3.85C34.62,231.81,35.35,233.48,36,233.74Z"/><path class="cls-2" d="M30.68,225.5l.43.87c.8,1.06,1.51,2.2,2.45,3.52A23.32,23.32,0,0,0,30.68,225.5Z"/><path class="cls-2" d="M62.36,205.35l.22.41C62.65,205.77,62.54,205.59,62.36,205.35Z"/><path class="cls-2" d="M67.64,267.06a1.12,1.12,0,0,1,.56.14C67.94,267.07,67.72,267,67.64,267.06Z"/><path class="cls-2" d="M21.6,215l-.05-.1C21.66,215.29,21.64,215.22,21.6,215Z"/><path class="cls-2" d="M65.38,263.3c-.37-.35-.8-.75-1.29-1.17C64.29,262.33,64.68,262.69,65.38,263.3Z"/><path class="cls-2" d="M65.29,263a11.81,11.81,0,0,0,.92.75C66.4,263.75,66.27,263.66,65.29,263Z"/><path class="cls-2" d="M62.4,260.74c.61.47,1.16.93,1.69,1.39-.19-.19-.26-.28-.2-.24C63.58,261.64,63.13,261.3,62.4,260.74Z"/><path class="cls-2" d="M57.89,99.5l-.19.23C57.19,101,57.46,100.47,57.89,99.5Z"/><polygon class="cls-2" points="9.02 111.9 8.99 112.06 9.07 111.86 9.02 111.9"/><path class="cls-2" d="M10.08,107a13.65,13.65,0,0,1-1,4.89l1.65-1.26Z"/><path class="cls-2" d="M127.85,4.68l.62-.1A5.77,5.77,0,0,0,127.85,4.68Z"/><path class="cls-2" d="M58,197.79c-.08-.18-.17-.35-.24-.54C57.78,197.37,57.86,197.56,58,197.79Z"/><path class="cls-2" d="M46.62,47a.63.63,0,0,1,.49-.12C47.34,46.56,47.28,46.47,46.62,47Z"/><polygon class="cls-2" points="114.52 24.22 114.42 24.33 114.39 24.5 114.52 24.22"/><path class="cls-2" d="M12.46,198.52a11,11,0,0,1-.37-1.86C12,196.65,12,197.1,12.46,198.52Z"/><path class="cls-2" d="M75.23,269.59,73,268.26a17.51,17.51,0,0,1,2.14,1.56C75.1,269.71,74.82,269.37,75.23,269.59Z"/><path class="cls-2" d="M97,284c.43.11.87.34,1.29.44l0-.25C96.54,283.56,95.26,283.25,97,284Z"/><path class="cls-2" d="M77,272.55c0,.47,1.68,1.28,3.52,2.25l-.32-.18C81,274.43,79,273.49,77,272.55Z"/><path class="cls-2" d="M80.91,275c.57.3,1.13.63,1.68.94C82.91,275.89,81.93,275.56,80.91,275Z"/><path class="cls-2" d="M60.18,259.39c.7.69.81,0,1.14.45.6.13-.8-.73-1.73-1.32S58.07,257.74,60.18,259.39Z"/><polygon class="cls-2" points="76.13 273.5 77.75 274.55 77.35 273.74 76.13 273.5"/><path class="cls-2" d="M66.82,267.17c0-.1.38.11.82.38a33.69,33.69,0,0,0-3.46-2.44C65.05,265.81,65.94,266.48,66.82,267.17Z"/><path class="cls-2" d="M69.88,269c-.47-.33-1.5-1-2.24-1.49A23,23,0,0,0,69.88,269Z"/><polygon class="cls-2" points="71.01 270.36 73.75 272.3 72.98 271.67 71.01 270.36"/><path class="cls-2" d="M36.14,237.37c-.37-.19.17.66,1.06,1.69.63.61,1.52,1.63,1.31,1.09Z"/><path class="cls-2" d="M43.38,248.29l1.37,1.09a5.7,5.7,0,0,1-.84-1.43Z"/><path class="cls-2" d="M36.8,241.17c.35.19,2.77,3,.77.24C37.21,241.24,33.87,237.51,36.8,241.17Z"/><path class="cls-2" d="M13.48,193c-.41-.14-.83-.29-1.22-.45.08.3.19.59.29.89Z"/><path class="cls-2" d="M3.68,149.54c.21,1,.33-3.24.51-2.18-.19-2.65,0-4.05-.71-2.85C3.13,148.92,4.08,145.57,3.68,149.54Z"/><path class="cls-2" d="M4.19,147.36q0,.64.12,1.35A11.68,11.68,0,0,0,4.19,147.36Z"/><path class="cls-2" d="M101.67,261.44c-.16-.31-.32-.62-.47-.94q.38,1.42.81,2.82C101.89,262.69,101.76,262.07,101.67,261.44Z"/><path class="cls-2" d="M98.49,11.14l-.14.23a9.91,9.91,0,0,0,2.37-.63Z"/><polygon class="cls-2" points="136.12 2.89 135.46 2.93 136.75 3.41 136.12 2.89"/><path class="cls-2" d="M132,12.61c.56-.22,1.15-.5,1.74-.77s1.22-.47,1.79-.65c-1.22.46-2.25.64-2.89.85S131.74,12.33,132,12.61Z"/><path class="cls-2" d="M121.25,190.37c.16-.44.28-.89.42-1.34C121.45,189.66,121.35,190.07,121.25,190.37Z"/><path class="cls-2" d="M116.83,199.43l.06.31C117,199.28,117,199.08,116.83,199.43Z"/><path class="cls-2" d="M113.74,277.54l.31.55c.43.29.89.51,1.27.72A19.54,19.54,0,0,1,113.74,277.54Z"/><path class="cls-2" d="M109.87,275.18a17,17,0,0,0,1.54,2.4C110.84,276.82,110.36,276,109.87,275.18Z"/><path class="cls-2" d="M123.8,196c.3-.85.37-1.23.27-1.25C123.77,195.57,123.63,196.08,123.8,196Z"/><path class="cls-2" d="M188.58,7.6l.44.18C189.08,7.73,188.88,7.67,188.58,7.6Z"/><path class="cls-2" d="M102.69,78.4a7.3,7.3,0,0,0,.41.8C103,78.92,102.82,78.65,102.69,78.4Z"/><path class="cls-2" d="M111.7,277.6a.73.73,0,0,1-.08-.5C111.3,276.86,111.22,276.91,111.7,277.6Z"/><path class="cls-2" d="M105.05,216.49c-.49.57-.93,1.19-1.4,1.79l0,.26A10.71,10.71,0,0,0,105.05,216.49Z"/><polygon class="cls-2" points="121.89 187.05 121.65 187.62 122.62 186.76 121.89 187.05"/><path class="cls-2" d="M150.06,45.76v0Z"/><path class="cls-2" d="M150.09,45.81v.08h0Z"/><path class="cls-2" d="M150.09,45.73V46c0,.17,0,.21,0,.32C150.08,46.16,150.09,46,150.09,45.73Z"/><path class="cls-2" d="M150.11,45.21v.1C150.1,45.38,150.1,45.4,150.11,45.21Z"/><path class="cls-2" d="M150.1,45.31c0-.12,0-.35,0,.08v-.08Z"/><path class="cls-2" d="M150.1,45.42c0-.15,0-.25,0-.5A4.74,4.74,0,0,0,150.1,45.42Z"/><path class="cls-2" d="M150.11,45.5v.17c0,.1,0,.2,0,.43C150.09,45.94,150.1,45.69,150.11,45.5Z"/><path class="cls-2" d="M150.11,45.5v-.26S150.11,45.33,150.11,45.5Z"/><polygon class="cls-2" points="150.1 45.94 150.09 46.11 150.08 46.47 150.1 45.94"/><path class="cls-2" d="M150.09,46.2c0,.12,0,.09,0-.15,0,.29,0,.5,0,.68C150.07,46.67,150.08,46.42,150.09,46.2Z"/><path class="cls-2" d="M150.09,46.2c0-.14,0-.26,0-.33C150.1,46,150.1,46.13,150.09,46.2Z"/><path class="cls-2" d="M150.12,45.31c0,.09,0,.33,0,.43l0-.42Z"/><polygon class="cls-2" points="150.12 45.3 150.12 45.32 150.12 45.34 150.12 45.3"/><path class="cls-2" d="M150.12,45.31Z"/><path class="cls-2" d="M150.12,45.07v-.39C150.13,44.79,150.12,45,150.12,45.07Z"/><path class="cls-2" d="M150.12,45.47c0-.19,0-.2,0-.23v-.13C150.13,45.24,150.12,45.45,150.12,45.47Z"/><path class="cls-2" d="M150.12,45.35v0Z"/><polygon class="cls-2" points="150.14 45.24 150.15 45.16 150.14 45.24 150.14 45.24"/><path class="cls-2" d="M150.12,45.67v-.23C150.12,45.57,150.11,45.78,150.12,45.67Z"/><path class="cls-2" d="M150.12,45.45h0C150.11,45.56,150.12,45.51,150.12,45.45Z"/><path class="cls-2" d="M150.14,45.12v.05c0,.07,0,.23,0,.54,0-.19,0-.34,0-.47v-.12Z"/><polygon class="cls-2" points="150.13 45.46 150.11 45.91 150.14 45.27 150.13 45.46"/><polygon class="cls-2" points="150.14 45.4 150.12 45.8 150.13 45.56 150.14 45.4"/><path class="cls-2" d="M150.24,45.4c0-.1,0-.21,0-.34v.06a1.66,1.66,0,0,1,0,.24l0-.24h0V45c0,.39-.08.69-.08.71s0-.18,0-.35,0-.06,0,0a4.49,4.49,0,1,1-.06.49l.06-.43Z"/><path class="cls-2" d="M150.19,45.24c0,.17,0,.24,0,.26C150.19,45.25,150.22,44.88,150.19,45.24Z"/><path class="cls-2" d="M150.18,45.5v0C150.16,45.69,150.15,45.8,150.18,45.5Z"/><path class="cls-2" d="M150.05,44.77v0Z"/><path class="cls-2" d="M150.14,45.6v0Z"/><polygon class="cls-2" points="150.15 45.52 150.14 45.59 150.15 45.57 150.15 45.52"/><polygon class="cls-2" points="150.17 45.65 150.17 45.61 150.17 45.66 150.17 45.65"/><polygon class="cls-2" points="150.01 45.12 150 44.93 150 44.96 150.01 45.12"/><path class="cls-2" d="M150.24,45.42h0l0-.2h0Z"/><polygon class="cls-2" points="150.21 45.09 150.21 45.05 150.2 45.18 150.21 45.09"/><path class="cls-2" d="M150.3,44.94l0,.1c0,.12,0,.17,0,.18Z"/><polygon class="cls-2" points="150.3 44.87 150.28 45.06 150.28 45.04 150.3 44.87"/><path class="cls-2" d="M150.2,45.27v0c0,.12,0,.25,0,.32Z"/><path class="cls-2" d="M150.2,45.29c0-.2,0-.36,0-.2s0,.14,0,.31Z"/><path class="cls-2" d="M150.14,45.52l0,.29v-.29Z"/><path class="cls-2" d="M150.17,45.26c0,.08,0,.22,0,.35C150.11,46.13,150.19,45,150.17,45.26Z"/><polygon class="cls-2" points="150.07 45.53 150.06 45.19 150.06 45.32 150.07 45.53"/><path class="cls-2" d="M122.8,288.71l1,.62,1.12.2A5.82,5.82,0,0,0,122.8,288.71Z"/><path class="cls-2" d="M260.42,151.29c-.08-1.46-.56-.65-.45-.69C259.92,151.47,260.35,151.16,260.42,151.29Z"/><polygon class="cls-2" points="258.18 136.37 258.38 136.6 257.71 134.57 258.18 136.37"/><path class="cls-2" d="M256.25,126.42l.58,2a10.87,10.87,0,0,1,.31,1.93l-.09.41.74,1c-.51-2.86-1.75-6.42-2-8.45A7,7,0,0,0,256.25,126.42Z"/><path class="cls-2" d="M255.69,117.28c-.09-.28-.22-.66-.41-1.32-.13.51-.71-1.41.44,1.63C255.7,117.42,255.7,117.37,255.69,117.28Z"/><path class="cls-2" d="M254.31,112.78c0-.42-.55-2-.22-1.46-.81-1.76-.82-1.32-.68-.21Z"/><path class="cls-2" d="M252.73,110.51a1.4,1.4,0,0,0-.44-.87Z"/><path class="cls-2" d="M253.14,111.36c-.26-.08.08.22.53,1l-.94-1.84C252.72,110.8,252.51,110.91,253.14,111.36Z"/><path class="cls-2" d="M253.66,114.14c1.19,3.35,1.51,2.71.3-.66C254.14,114.53,254.47,115.84,253.66,114.14Z"/><path class="cls-2" d="M255.52,125.28a8.67,8.67,0,0,1-.31-1.51c-.11-.57-.22-1-.32-1,.05.46.12.92.14,1.38Z"/><path class="cls-2" d="M248.86,101.22l.77,1.16c-.22-.68-.74-1.93-.58-2.12C248.86,100.23,249,101,248.86,101.22Z"/><path class="cls-2" d="M248.86,101.22l-1.15-1.73C248.5,101.15,248.76,101.4,248.86,101.22Z"/><polygon class="cls-2" points="253.15 112.58 251.19 109.02 251.43 109.63 253.15 112.58"/><path class="cls-2" d="M244.62,92.61l.64.68c.31.27.6.56.9.84C245.67,93.6,245.14,93.11,244.62,92.61Z"/><path class="cls-2" d="M242.8,88.28a22.32,22.32,0,0,0-2.59-2.78,15.32,15.32,0,0,1,2.18,3.38C243.14,89.43,242.12,87.62,242.8,88.28Z"/><path class="cls-2" d="M238.86,84.2l1.35,1.3A7.92,7.92,0,0,0,238.86,84.2Z"/><path class="cls-2" d="M245.67,94.74l0,.92.39.71A3.2,3.2,0,0,0,245.67,94.74Z"/><path class="cls-2" d="M245.7,95.69v0c-.42-.77-.72-1.31-.84-1.54Z"/><path class="cls-2" d="M246.19,96.55l-.1-.18Z"/><path class="cls-2" d="M248.37,103.73c.64.65.25-.7,1.31.8C249,103.51,247.6,101.42,248.37,103.73Z"/><path class="cls-2" d="M247.16,99.65c.08-.09.05-.52.42,0-.42-.66-.9-1.29-1.37-1.92C246.54,98.34,246.88,99,247.16,99.65Z"/><polygon class="cls-2" points="245.57 96.82 246.21 97.69 245.85 96.96 245.57 96.82"/><path class="cls-2" d="M240.72,87.5a23.17,23.17,0,0,1-2-2.44c.67,1.06,1.36,2.16,2.07,3.16C241,88.28,241.5,88.59,240.72,87.5Z"/><path class="cls-2" d="M243.2,91.45l-.13-.17C243.11,91.41,243.15,91.5,243.2,91.45Z"/><polygon class="cls-2" points="231.41 76.18 231.48 76.37 231.57 76.35 231.41 76.18"/><path class="cls-2" d="M240.84,88.44A6.37,6.37,0,0,0,242.12,90c-.41-.57-.88-1.15-1.33-1.81C240.69,88.19,240.65,88.2,240.84,88.44Z"/><path class="cls-2" d="M236.73,81.77c.23.45.51.94.81,1.44A4.49,4.49,0,0,0,236.73,81.77Z"/><path class="cls-2" d="M243,91l.09.11C243,90.75,243,90.8,243,91Z"/><path class="cls-2" d="M243,91a11.36,11.36,0,0,0-.88-.92c.33.47.65.9.95,1.25A1.51,1.51,0,0,1,243,91Z"/><path class="cls-2" d="M225.54,73.84c.65.5,1.3,1,1.92,1.56-.05.11-.79-.41-.4.16.39-.16,2.33,1.35,3.43,3.17,1.55,1.38,1.71-.53,1-2.36-.17.07-.29.17-1.93-1.23.37.69,2.86,3.83,1.38,2.73-2.09-1.92-1.48-1.78-2.28-2.93.23.6-.52.06-1.33-.49S225.57,73.37,225.54,73.84Z"/><path class="cls-2" d="M234.16,79.5l.61.65a17.86,17.86,0,0,1-1.59-2.7c-1.1-1-1.46-1.1-1.61-1.1,1,1.07,1.88,2.23,2.83,3.34Z"/><path class="cls-2" d="M235.48,82.73c1.6,2,1.39,1.22,2.49,2.33-2.65-3.25.93.82-.73-1.74.56.61,1,1.19,1.48,1.74-.42-.64-.82-1.25-1.18-1.85l0,.09,0,0h0c.07.18.08.24,0,.06l-.06-.06a.62.62,0,0,1-.25,0c-.67-1,0-.22.25,0h.08v0c-.93-1.06-1.81-2.15-2.81-3.15.55.7,1.24,1.57,2.49,3.12C236.49,83,235.05,81.42,235.48,82.73Z"/><path class="cls-2" d="M246.55,102.15c0-.13,0-.14,0-.16C246.41,101.77,246.33,101.69,246.55,102.15Z"/><path class="cls-2" d="M247.14,102l-.19-.24a23.07,23.07,0,0,1-.76-2.43c-.12-.42-.2-.74-.23-.92a7.3,7.3,0,0,0,.06,2.15,3.87,3.87,0,0,1,.85,1.28c.27.82-.19.09-.29.2C246.94,102.46,247.78,103.7,247.14,102Z"/><path class="cls-2" d="M246,98.36l0-.14S246,98.24,246,98.36Z"/><path class="cls-2" d="M240.49,90.56l.14-.2c1,1.72,1,1.21,1.26,1.32l-1-1.41-1.08-1.37Z"/><polygon class="cls-2" points="230.09 74.73 231.3 75.75 231.95 75.78 230.09 74.73"/><polygon class="cls-2" points="227.47 71.64 228.1 72.47 228.5 72.31 227.47 71.64"/><path class="cls-2" d="M164.27,196.61l-.23,1A10,10,0,0,0,164.27,196.61Z"/><path class="cls-2" d="M166.49,189.51l-.14-.23C166.36,189.65,166.4,189.8,166.49,189.51Z"/><path class="cls-2" d="M137.06,62c.13.43.27.87.4,1.29s.31.8.45,1.12c.28.63.42.87.56.69l.09-.62a13.25,13.25,0,0,1-.93-1.29A11.37,11.37,0,0,1,137.06,62Z"/><path class="cls-2" d="M168.19,129.44c0-.15,0-.3.07-.45-.2-.33-.39-.64-.55-.92C167.85,128.48,168,129,168.19,129.44Z"/><path class="cls-2" d="M170.11,130.23c0,.66,0,1.32,0,2A15.44,15.44,0,0,0,170.11,130.23Z"/><path class="cls-2" d="M146.53,233.09l-.33,1.23C147.29,232.78,146.63,233.33,146.53,233.09Z"/><path class="cls-2" d="M189,47.39a17.81,17.81,0,0,0-3-1.33l1.83,1C188.33,47.33,188.72,47.48,189,47.39Z"/><path class="cls-2" d="M160.77,192.45c-.1.6-.09.88,0,.89C160.89,192.72,160.91,192.36,160.77,192.45Z"/><path class="cls-2" d="M182.43,44.89c.21.1.42.18.63.3a28.06,28.06,0,0,1,2.95.87A9.22,9.22,0,0,0,182.43,44.89Z"/><path class="cls-2" d="M241,201.94l.2-.25C241.13,201.64,241.05,201.76,241,201.94Z"/><path class="cls-2" d="M258.31,165.49a12.41,12.41,0,0,0,.2-1.75C258.48,164.16,258.39,164.84,258.31,165.49Z"/><path class="cls-2" d="M216.49,64.54a.66.66,0,0,1,.42.07C216.72,64.53,216.57,64.48,216.49,64.54Z"/><path class="cls-2" d="M172.5,45.16l-.08,0C172.68,45.29,172.64,45.26,172.5,45.16Z"/><path class="cls-2" d="M215.26,61.44c-.27-.25-.58-.53-.94-.82C214.47,60.76,214.75,61,215.26,61.44Z"/><path class="cls-2" d="M215.22,61.16l.67.53C216,61.7,216,61.6,215.22,61.16Z"/><path class="cls-2" d="M214.18,60.43l-1.11-.76a14.58,14.58,0,0,1,1.25.95C214.19,60.48,214.13,60.41,214.18,60.43Z"/><path class="cls-2" d="M183.78,250l.21,0C184.82,249.45,184.44,249.62,183.78,250Z"/><polygon class="cls-2" points="154.3 80.72 154.23 80.64 154.28 80.77 154.3 80.72"/><path class="cls-2" d="M156.17,83.65a7.42,7.42,0,0,1-1.89-2.88l-.55,1.58Z"/><path class="cls-2" d="M257.47,156.2c-.51,1-1.09,2.21-1.55,2a9.76,9.76,0,0,1-.64,4.67,16.05,16.05,0,0,0-.79,5.84c-.35.85-.16-.81-.47-.38a8.69,8.69,0,0,1-.6,4.54l0-.27c-.35,1.57-.63,2.93-1,4.16s-.76,2.35-1.15,3.48-.89,2.27-1.38,3.55-1.12,2.69-1.85,4.34l.64-.32a13.2,13.2,0,0,1-1.27,2.31c0,1.94,1.65-4.06,1.78-2.25a8.45,8.45,0,0,0-1.35,2.28c-.52,1-1.09,2.26-1.64,3.47a29.27,29.27,0,0,1-1.72,3.29,4.76,4.76,0,0,1-1.45,1.75c-1.16,2.09.84-.34-.35,1.74l-.57.4,0,.72c-.83,1.33-1.54,1.83-1.79,1.75a11.93,11.93,0,0,0,.66-1.34,32,32,0,0,0-2,3.12c-.54.94-1,1.79-1.26,2.18l1.27-1.68c-.41.7-.83,1.43-1.28,2.15s-1,1.42-1.48,2.15-1,1.46-1.54,2.17L233,214.16c-1.07,1.45-2.25,2.8-3.34,4.15s-2.18,2.63-3.15,3.89L227,222a16.06,16.06,0,0,1-3.06,3.18c-.4.33-.82.66-1.36,1.14l-2.21,2,.11-.17a16.53,16.53,0,0,1-2.77,2.82c.88-1-2.29,1.18-1.1-.14-3.82,3.6-1.77,1.92-4.08,4.63l-.87.17a9,9,0,0,1-2.91,2.74c1.66-1.46-1.73.46.08-1.23a22.38,22.38,0,0,0-3.2,1.81c-.9.58-1.67,1.12-2.36,1.61a17,17,0,0,1-1.91,1.27,5.2,5.2,0,0,1-2,.53c-.89,1,.24.61,1.46,0s2.44-1.43,1.88-1c1.22-.32-1.44,1.76-3.08,2.44a9.47,9.47,0,0,1-2.74.68,15.87,15.87,0,0,0-4.58,1.43c.41-.18.4-.26.81-.44-1.61.47-2.88,1.58-4.93,2-.84,1-2.51.86-2.55,1.73,1.28-.5,2.55-1,3.78-1.62-.52.27-1,.58-1.52.9s-1.06.62-1.65.94a14.4,14.4,0,0,1-4.49,1.6,16.7,16.7,0,0,1,2-1.13c-1.12.16-2,.78-3.2.9,0-.44,1.23-.82,2.66-1.29a22.35,22.35,0,0,0,4.17-1.81c-1.24.08-4.23,2.1-3.34.88a4.92,4.92,0,0,1-2.94,1.41,15.14,15.14,0,0,0-3.94,1.38l.08-.5a14.47,14.47,0,0,1-2.21.84l1.39-1a9.81,9.81,0,0,1-3.44.84,14.14,14.14,0,0,0-3.43.5c4.78-.95,1.18.35,3.29.29-5.84,1.78-3.64-.48-10.25.66.9-.12,3.42-.19,2,.25a15.84,15.84,0,0,1-3.8-.1c-4.43.54.73.42-1.14.9-1.56-.41-2.17.39-4.14.68l0-.48c-2.56,0-2.89.22-3.16.47s-.54.57-2.6.17a12.54,12.54,0,0,0,1.77-.54c-.34,0-.7,0-1,0s-.69,0-1,0c.17-.14.34-.32.5-.48a5.6,5.6,0,0,1-2.47-.35,7.1,7.1,0,0,1-2.06-1.29c.09.28-.08.43-.5.34a3.63,3.63,0,0,1-1.75-1.18c-.36-.61-.13-.55-.08-.58s-.07-.16-.87-1.32a3.56,3.56,0,0,1,1.74,1.84c.21,0,.64.21.84.16-.39-.57-1-1.19-1.43-1.83a9.77,9.77,0,0,1-1.1-1.69c.14.34.31.73.38,1a11.42,11.42,0,0,1-2-3.47c.08-.66.28-.18.53.26a8.19,8.19,0,0,1-.57-2.47c.42.3.73.24,1.11,1.75a10.33,10.33,0,0,1-.39-3.51,8.13,8.13,0,0,0,.54-.83c.23-.31.41-.53.41-.3.41-.85.75-2,1.41-3.18a25.92,25.92,0,0,1,2.81-4.31,5,5,0,0,1,.53-1.14c.9-1.31,1.84-2.49,2.75-3.77a23.61,23.61,0,0,0,2.45-4.49c.56-.49,1.15-1,1.68-1.5,1.27-2.68-2.15,2.1,0-2.34,1.46-3.15,1.15-.85,1.9-1.83.27-.84.52-2,1-3.33a19.22,19.22,0,0,1,2-4,18.09,18.09,0,0,1-1.14,2.64c.48-.67,1-1.34,1.39-2-.64,2.95-1.84,4.76-.32,2.94-1-.85,3.82-8.74,2.6-9.6l.86-1.39c-.18.42-.13.52-.31.94,1.76-2.67,0-2.5,1.46-6.21.56-1.28,1.07-2.14.91-1.19.26-1,.43-2,.63-3.07.24-.71.39-.63.27-.09.39-1.4.82-2.79,1.15-4.21l0,0c0-.71,0-2.28.09-3,.5-1.12,0,.62.23.36.11-.87.25-1.74.33-2.62.29-.48.4-.17.38.48a13.3,13.3,0,0,1-.48,2.51,3.27,3.27,0,0,0,1.1-2.49,13,13,0,0,1,1.06-4.7l-.38,2.46c1.11-1.4,1.28-3.36,2.22-6.07-.18.31-.73,1.65-1.21,2.55s-.93,1.33-.8-.1a10.84,10.84,0,0,0,.48-3.37c.46.07.67-1.43.88-3.3l.62.22c.1-2.05-.25-1.94-.37-3.16.39-2.24.88-2.66,1.36-3.14.46-3.62-1,2.41-.73-1.88.58-3,.37-5.14.19-8.75.27-2.11.39.38.59-.37l-.48-1.89c0-.46.18-.3.26-.23-.17-1.58-.64-.14-.77-2.61-.32-.33-.11-1.6.11-3.17a11.36,11.36,0,0,0-.09-5c.14-.76.41.35.65.1a37.54,37.54,0,0,0-1.62-6.94l.13-3c-.26,2.2-1.08-.48-1.91-2.77-.13.78-.24,1.44-.27,1.89l-.87-3.71c0-.47.31-.13.66.45l-.25-.67c0-1.38.5-.75,1,.17-.06.48-.13,1-.19,1.42.51.88,1.06,1.7,1.41,1.46a7,7,0,0,1-.35-1.23c.14.24.25.38.3.26s-.15-.52-.4-1.12l.59-1-.31-.17c-.07-1.69-.29-3.36-.42-5-.65-1.72-1.48-3.27-2.28-5.08s-1.68-3.85-2.56-6.55c.87,1.22.9.07,1.52,0-.24,1.67,1.45,4.19,1.93,7.14-.28-1.52.09-1.26.27-.9-.29-.84-.57-1.68-.88-2.51l-1-2.49c.52,0,.07-1.18-.08-2.58-.64,1.27-1.8-3.59-2.73-5.54.28-.23.76.15,1.46,2.69a5.06,5.06,0,0,0-1.21-3.1,5.5,5.5,0,0,1-1.39-3c.23.6.29,1,.54,1.13a14.4,14.4,0,0,1-1.12-2.82c-.27-1-.44-1.64-.13-1.3l.24.59c-1.39-4-5.05-11.95-6.2-12.08a3.33,3.33,0,0,1,1.44.2c-2-1.85-3.94-3.67-6-5.37,1,.23,1.25-2.86,3.32,0a17.48,17.48,0,0,0-2.17-3.85c.25.66-.08,2-.59,1.24-.57-2.66-.53-1.76-1.58-4.87.4,1-1.17.58-2-.82.27.12.88-.72,1.29-.27-1-1-2.12-1.88-3.17-2.8.73.73.9-.38.65-1.32,0,.24-.45-.5-1-1.4s-1.32-1.93-1.69-2.34l.8,1.56a10.35,10.35,0,0,0-3.25-3.28,5.81,5.81,0,0,1-2.75-3.38c.42.46,1.69.61,1.26-1.28a7.45,7.45,0,0,1-2-2.75,8.24,8.24,0,0,1-.15-5.85c.22-.21.45-.41.67-.6a14.36,14.36,0,0,1,1.66-3,16.4,16.4,0,0,0-1.13,5.08,13.52,13.52,0,0,0,.76,5.15,2.79,2.79,0,0,1,.28-1,10.21,10.21,0,0,0,.26-1.48c.23-.33.27,0,.28.42s0,1,0,1.33A10.45,10.45,0,0,1,142,50.8c-.35-.06-.1-.95.35-1.8s1-1.6.79-1.73a10.71,10.71,0,0,0-2.29,4.88c-.34,0-.61-.9-.32-2.28a7.32,7.32,0,0,1,2.94-4.3c.5-.17.5.19.44.59s-.17.86-.07.92a4.6,4.6,0,0,1,1.4-1.27,4,4,0,0,1,1.65-.68l-.64.42-.6.46c1.49-.44,2.4-1.46,4.29-1.39,0,.12,0,.23,0,.32v0l0-.34h0c0,.09,0,.21,0,.31v-.31h0a.79.79,0,0,1,0,.16v-.16h0c0,.06,0,.12,0,.41,0-.21,0-.32,0-.41h0c0,.12,0,.29,0,.57v-.57h0v0h0v0h0c0,.11,0,.28,0,.46v-.46h0v0h0V45s0-.24,0-.38h0v0h0v0h0v.05c0,.51,0,.64,0,.6V45c0-.16,0-.3,0-.18v.55h0v-.24h0a2,2,0,0,1,0-.25h0v-.13c0,.18,0,0,0-.16,0,.19,0,.38,0,.53,0-.16,0-.32,0-.54h0c0,.1,0,.1,0,0h0a2.61,2.61,0,0,1,0,.42c0,.61,0-.06,0,.64.05-.87,0,0,.05-.89,0,.83,0,.35-.05,1.05,0-.2,0-.38,0-.28l0-.18h0v0h0c0-.09,0-.19,0-.31s0-.24,0-.32v.1c0,.06,0,0,0-.21h0v0h0v0h0c0,.35,0,.62-.05.84v0c0,.25,0,.35,0,.17,0,.09,0-.5,0-.15l0-.28v.11l0-.28c0-.15,0-.3,0-.43h0c0,.31-.06.58-.06.64l0,.21c-.06.61.05-.63.06-.77,0,.34-.07.86-.08.92h0s0,.36,0,0c-.09,1,0,.23,0,.41l.05-.51a2.4,2.4,0,0,0,0-.32l.05-.44c0-.37,0,.32,0,.27,0,.17,0,.13,0,0-.11,1,.09-.73,0,0V45c0-.12,0-.24.05-.36h0l0,.18a3.74,3.74,0,0,1-.05.39c0-.05,0-.15,0,0l0-.23c0-.36,0,0,0-.32h0c0,.11,0,.22,0,.32v.13c0-.14,0-.22,0-.3l0-.15h0l0,.15,0,.11,0-.26h0v0h0c0,.09,0,.17,0,.27,0-.12,0-.2,0-.27a7,7,0,0,1,.82.14c1,.07,2.83.94,3,.54-1.52-.8-1.81-3.18-.73-3.73.18,0,1.46.23,2.83.51a31.4,31.4,0,0,1,3.36.93c1.54.72-2.49,1.25-1.18,1.87.07-.18,1-.34,1.33-.39,1,.24-.46.52,1.72.63.43-.63,4.41.61,1.08-.44a34,34,0,0,1,4.75.74c-.73-.57,2.47-1.09,4.67-.9-.16.14.27.47.48.62,4.34,1,6.56,1.92,10.5,3.14.31.28,2.13,1.1,1.24,1.11a9,9,0,0,1,2.4.41c1,.71.38.46-.37.25s-1.57-.43-.8.2c.29-.37,3.25.61,5,1-.29-.76-3.84-1.69-5.66-2,.13-.4,1-.57,2.42-.49A30.68,30.68,0,0,1,192.62,50c3.26,1.24,1.16,1.12,1.76,1.26a24.75,24.75,0,0,0,5.59,2,10.27,10.27,0,0,1,4.61,2.21c1.61,1.54-.45,1-.23,1.55a19.11,19.11,0,0,1-2.95-1.79A21,21,0,0,0,199,53.79l2,1.29a14.39,14.39,0,0,1-3.45-1.58,14.25,14.25,0,0,0,2.16,1.35l1.73.93,1.95,1.14c1.35.78,2.8,1.61,4.09,2.52A35.8,35.8,0,0,1,211,62c.82.36,2.17,1.1,1.71.5l-1.33-.85c-.94-1.21,2.78,1.24,1.26-.09,1,.5,2,1,3.08,1.63a22,22,0,0,1,3.26,2.5l.06.83a6.1,6.1,0,0,0-2.09-1.89,12.92,12.92,0,0,1,2.18,2,5.59,5.59,0,0,0,2.41,1.84l-1.31-1.71c1.8,1.19,4.31,2.42,6.08,4.48-.46-1.29-.49-.38-1.39-2.23.67,1.73-5.18-4.59-3.77-2.13a6.77,6.77,0,0,0-.79-1.24c-.3-.34-.63-.65-1-1a16,16,0,0,1-2.24-2.38c-.06.22.5.86-1.25-.59a2.64,2.64,0,0,1-.52-.15l-.11-.1.09.09c-.1,0-.11,0,0,0a3.75,3.75,0,0,1,.75.92c-1.19-.29-4.09-2.39-5.23-2.87-1.07-.8.6.11.11-.46l-1.72-.68c.09-.47-2.61-2.56.2-1.07-.8-.51-1.59-1-2.4-1.55A21.57,21.57,0,0,0,202.45,53c-1.16-.7-3.27-1.11-2.06-.89-1.38-.59-2.74-1.21-4.15-1.7v-.12c-1-.47-2.05-.89-3.11-1.31s-2.18-.72-3.29-1.11a54.52,54.52,0,0,1-6.79-2.71,41.61,41.61,0,0,1-5.34-1.38c-.13-.17-.26-.32-.38-.49-1.9-.28-5.53-1.68-6.44-1.36-1.85-1.44-9.18-1.72-12.53-2l-.16.5a51.18,51.18,0,0,0-7.41,0L151,41c-.31,0-.63.07-1,.09h-.06a2.53,2.53,0,0,0,0-.32v.33h0v0c-.37,0-.74.06-1.13.07a22,22,0,0,0-2.79.4,11.91,11.91,0,0,0-5.72,3.09A4.32,4.32,0,0,1,142,43.13a10.41,10.41,0,0,0-5.2,6.38,25.73,25.73,0,0,0-1,7.79c.32,1.19.53,2,.71,2.88a2.61,2.61,0,0,0-.12-.28l.16.48a13.72,13.72,0,0,0,.48,1.66c-.14-.51-.25-1-.38-1.41a12,12,0,0,0,1.95,3.15c0,.25,0,.52-.07.74l.17.21c.52,1,.72.61.65-.1a12,12,0,0,0,1.14,1.08c-.1,1.22,2,2.33,2,3.87.7.39,3.1,4,4.25,4.72a14.23,14.23,0,0,0,2,3.2l-.24.79,2.1,2.09c.52,1.7.67,2.42-.58,1.15.66.82,1.11,1.4,1.45,1.87s.52.81.73,1.14a23.24,23.24,0,0,0,1.88,2.66l-.43,0c.6,1.11,1.89,2.75,1.91,3.58a21.4,21.4,0,0,0,1.1,3.33c.53,1.46,1.23,3.21,2,5.09s1.42,3.94,2,6a57.4,57.4,0,0,1,1.43,5.8c.76-1.67.36,3.38,1.31,3.43-.16.47-.05,1.48-.58.41a29.49,29.49,0,0,1,1,4.35,12.42,12.42,0,0,0,1.07,3.47c-.2.47-.54-.7-.63-.3a3.65,3.65,0,0,1,.35,1.51c-.1.4-.33-.48-.55-1,.72,3.67,1.64,3.91,2.45,4.06a6.77,6.77,0,0,0,.79,4.2c-.16.7-.28,1.83-.7-.48,0,.33.1,1,.19,1.81s.12,1.79.21,2.72c.18,1.86.42,3.56.72,3.61a6.58,6.58,0,0,0,.16,2.19c.06,1.49.09,2.3.12,3.1s0,1.59.08,3.05l.09-.81c.77,1.14.27,2.43.31,4.78l-.08-.07c-.69,5.38.3,2.35-.64,7.64l.5-.26c.49.27.27,1.45-.05,2.94a18.38,18.38,0,0,0-.82,4.83l.38-1.09c.23,1.74-2,4.52-2.32,6.15-.14.35-.06-.59-.06-1.11-1.22,4.26.59.66.17,3.93-.44.54-.71-.91-1.16,1.24-.41,1-.14,6.51-1.53,9.29.42-.58.85-1.16.65.37a36.75,36.75,0,0,1-1.45,4.08,9.83,9.83,0,0,0-1,4c-.15.26-.25.35-.31.34-.32,1.78-1.57,5.62-1.51,6.8-1.09.47-1.89,3.14-2.69,5.6s-1.6,4.71-2.29,4.36l-2.35,5-.08-.2a16.54,16.54,0,0,0-2.31,5.59c-.51.65-.33.07-.36,0a49.14,49.14,0,0,0-2.84,4.48,42.83,42.83,0,0,0-2,4.29l-.66.1a25.81,25.81,0,0,1-2.92,3.81c-.38.47-.74.91-1.16,1.47a13.51,13.51,0,0,0-1.23,1.85,11.45,11.45,0,0,0-1.38,4.32c0-.07-.11-.2-.07-.68a21.69,21.69,0,0,0-.22,5.32,17,17,0,0,0,1.31,5.24,11.65,11.65,0,0,0,2.67,3.86,4.31,4.31,0,0,0,2.74,1.35,13.14,13.14,0,0,0,4,1.38,7.13,7.13,0,0,1-1.4-.57,1.76,1.76,0,0,1-.56-.37c-.15-.17.07-.16.37-.15.63,0,1.55.15.66-.38,1.77.73,4.89,1.56,2.42,1.37l-.37-.18c-.56.36,1,.87,2.81.91s3.37,0,3.33.29c4.91-.16,9.73-.65,14.47-1.26,2.35-.42,4.71-.72,7-1.29,1.15-.26,2.3-.5,3.42-.79l3.35-1-1.23-.4c1-.31,2.06-.55,3.06-.91.85-.13,1.26.18-.93.88a6.82,6.82,0,0,0,3.53-1.76c4.33-1.22-1.36,1.39-.06,1l1.75-.68-.43.06a14.29,14.29,0,0,1,3.88-2.18c1.66-.52,1,.09,1.64-.17,0,.05.24,0,1-.42,1.23-.56,2.48-1.09,3.7-1.67-.56.08-1.14.12-1.71.18,1.51-1,3.39-1.7,1.46-1.4a14.25,14.25,0,0,0,3.35-1.2c1.43-.63,3-1.61,4.59-2.51,3.1-1.89,5.94-3.93,6.69-4.32a35.14,35.14,0,0,1,2.87-2.54c1-.85,2.08-1.7,3.29-2.63-.68.36-1.4.19.64-1.45.13,1.64,4-2.68,6.18-3.54-.91.44.42-.9,1.62-2.16s2.17-2.56.82-1.79c1.58-1.52.45.25,1.83-.75,3.17-4.2,7.85-8.57,11.3-14.14-.09-.18-.9.59-.37-.73l2.58-2.43c.61-1.14-.27-1.54,1.43-3.26-.3.21-.73.53-.36-.24a75.15,75.15,0,0,0,8.12-17.54c2.06-6.19,3.64-12.51,5.43-18.8-.59,1.68-.44.52-.28-.81-.2.85-.43-.08-.69,0,.44-1.75,1-3.5,1.31-5.28a9,9,0,0,1-.06-3.36c.08-1.39.1-2.74-.19-3l.05,1.71C258.4,154.43,258,155.21,257.47,156.2Zm-88.89-29.92a10,10,0,0,1-.3-2.2A5,5,0,0,1,168.58,126.28ZM150.13,45.34v0h0v0Zm.05-.14v0C150.17,45.36,150.17,45.29,150.18,45.2ZM205,55,205,55C203.68,54,204.13,54.39,205,55ZM150.34,44.64c0,.14,0,.27,0,0Zm-.12,0Zm0,0h0c0,.24-.05.58,0,0v0Zm-.07.08h0Zm-.09-.08v0Zm-.08,0v0ZM146.82,74.3a1,1,0,0,0,.27.11C147,74.5,147.14,74.81,146.82,74.3Zm22.05,104.4c-.05.7-.05,2.14-.44,2.58C168.06,180.38,168.46,179.84,168.87,178.7Zm25.55,70.63-.62.15C195,248.75,194.73,249,194.42,249.33Z"/><path class="cls-2" d="M169.89,130.12a.52.52,0,0,1-.22.33C169.79,130.71,169.88,130.71,169.89,130.12Z"/><polygon class="cls-2" points="146.59 232.86 146.53 232.95 146.53 233.09 146.59 232.86"/><path class="cls-2" d="M159.7,45.24a5.17,5.17,0,0,1-1.23-.34C158.43,45,158.71,45.14,159.7,45.24Z"/><path class="cls-2" d="M222.06,66.35l-1.5-1.16a7.89,7.89,0,0,1,1.33,1.37C221.92,66.46,221.79,66.17,222.06,66.35Z"/><path class="cls-2" d="M232.78,81.43c.24.19.41.48.65.67l.12-.21C232.71,80.92,232,80.36,232.78,81.43Z"/><path class="cls-2" d="M222.64,69c-.15.42.94,1.14,2,2.12l-.18-.18C225.17,70.79,224,69.82,222.64,69Z"/><path class="cls-2" d="M224.91,71.3c.34.3.67.61,1,.93C226.17,72.19,225.53,71.82,224.91,71.3Z"/><path class="cls-2" d="M212.28,59c1,0-4.26-2-.89-.17C211.92,59.33,212,58.68,212.28,59Z"/><polygon class="cls-2" points="222.62 70.73 222.57 70.02 221.69 69.78 222.62 70.73"/><path class="cls-2" d="M214.06,63.23c.6.47,1.18,1,1.75,1.5,0-.09.28.06.59.25-.55-.44-1.11-.94-1.56-1.28S214.08,63.16,214.06,63.23Z"/><path class="cls-2" d="M217.91,66.07c-.32-.25-1-.77-1.51-1.09A10.92,10.92,0,0,0,217.91,66.07Z"/><path class="cls-2" d="M218.5,67.16c.58.51,1.11,1.08,1.66,1.61l-.44-.53C219.31,67.88,218.93,67.5,218.5,67.16Z"/><path class="cls-2" d="M192.6,50.87c-.78-.31-1.6-.53-2.4-.8-.3.06.3.41,1.2.69C192,50.85,192.88,51.19,192.6,50.87Z"/><path class="cls-2" d="M197.71,55l1.16.32a2.78,2.78,0,0,1-.81-.84Z"/><path class="cls-2" d="M191.66,52.61c.29,0,2.62.83.59-.23C192,52.4,188.73,51.48,191.66,52.61Z"/><polygon class="cls-2" points="156.62 43.3 156.58 42.27 155.98 43.26 156.62 43.3"/><path class="cls-2" d="M141.13,60.28a11.55,11.55,0,0,0,1.09,1.27c.28.24.39.18.43-.35-.6-1.06-.76-1.1-1-1.13s-.4,0-.7-1.09c-.23-.21-.1.21,0,.66S141.38,60.49,141.13,60.28Z"/><path class="cls-2" d="M141.13,60.28c-.16-.19-.33-.4-.49-.63A2.39,2.39,0,0,0,141.13,60.28Z"/><path class="cls-2" d="M259.77,156.68l.29-2-.39,1.25C259.7,156.21,259.74,156.44,259.77,156.68Z"/><path class="cls-2" d="M259.83,152.46l-.55-1.18a4.71,4.71,0,0,1-.12,1.62Z"/><path class="cls-2" d="M171.11,173.6l-.13-.18a4.27,4.27,0,0,0-.5,1.62Z"/><polygon class="cls-2" points="164.06 199.14 164.22 198.71 163.39 199.32 164.06 199.14"/><path class="cls-2" d="M155.72,219.79c.44-.79.87-1.78,1.29-2.6C156.19,219,155,219.66,155.72,219.79Z"/><path class="cls-2" d="M251.55,50.23c1.42,1.38,1,.25,1,.37C251.74,49.71,251.73,50.31,251.55,50.23Z"/><path class="cls-2" d="M267.6,66.8c-.55-.65-1.09-1.31-1.69-1.92l-.35-.17C266.28,65.38,266.94,66.08,267.6,66.8Z"/><path class="cls-2" d="M271.19,72.86c.61.89,1.23,1.81,1.84,2.69a33.65,33.65,0,0,1,2.8,4.76,11.17,11.17,0,0,0-2-3.93,46,46,0,0,1-3-4.65c-.06-.18-.1-.37-.16-.55l-1.32-.89.92,1.24Z"/><path class="cls-2" d="M278,87.6c.07.21.08.28.12.4.18.35.41.84.8,1.67C278.9,89,280.05,91.45,278,87.6Z"/><path class="cls-2" d="M281.12,95.68c.58,1.15.84,1.6.92,1.57s0-.53-.16-1.26l-1.22-2.21C280.71,94.32,281.56,96.39,281.12,95.68Z"/><path class="cls-2" d="M282.69,96.84a2.36,2.36,0,0,0,.56,1.19Z"/><path class="cls-2" d="M282.12,95.69c.28.13-.12-.3-.73-1.32l1.3,2.47C282.67,96.45,282.85,96.33,282.12,95.69Z"/><path class="cls-2" d="M280.87,92.88c-.42-1.36-1.06-3.09.17-.85-1-2.23-1.62-3.06-1.64-2.85a3.46,3.46,0,0,0,.37,1.09C280,90.9,280.37,91.78,280.87,92.88Z"/><path class="cls-2" d="M276.93,80.78,276.18,79l-1-1.34C275.67,78.33,276.79,81,276.93,80.78Z"/><path class="cls-2" d="M286.65,110.94c.19.11.18-.94.31-1.17l-.74-1.73C286.43,109,286.86,110.74,286.65,110.94Z"/><path class="cls-2" d="M287,109.77l1,2.63C287.33,110,287.08,109.57,287,109.77Z"/><path class="cls-2" d="M284.46,99l-.32-.83c-.68-1.39-1.46-2.74-2.24-4.07l1.34,2.42Z"/><polygon class="cls-2" points="288.45 119.79 289.55 122.43 289.12 121.26 288.45 119.79"/><path class="cls-2" d="M290.41,128.18c-.47-1.1-.23,1.65-.6.46.39,1.87.78,3.46,1.16,4.9A47.24,47.24,0,0,1,290.41,128.18Z"/><path class="cls-2" d="M291,133.54a23.74,23.74,0,0,0,.6,2.42C291.42,135.19,291.2,134.4,291,133.54Z"/><path class="cls-2" d="M289.08,119.27l.19-1.16c-.07-.33-.14-.7-.22-1.08A5.62,5.62,0,0,0,289.08,119.27Z"/><path class="cls-2" d="M289.28,118.07v0c.24,1.17.4,2,.47,2.33C289.68,120.14,289.54,119.42,289.28,118.07Z"/><path class="cls-2" d="M289,116.76a2.61,2.61,0,0,1,.06.27A.27.27,0,0,0,289,116.76Z"/><path class="cls-2" d="M287.6,106.65c-.64-1-.26.84-1.35-1.42C287,106.72,288.26,109.94,287.6,106.65Z"/><path class="cls-2" d="M288.51,112.4c-.1.09-.12.65-.44-.11l1.1,3Z"/><path class="cls-2" d="M289.67,116.69c-.15-.47-.34-.92-.5-1.38l.25,1.07Z"/><path class="cls-2" d="M291.41,130.87a33.41,33.41,0,0,1,.7,4.22c-.11-1.7-.23-3.46-.45-5.11C291.48,129.76,291.15,129.07,291.41,130.87Z"/><path class="cls-2" d="M290.55,124.62l.07.28C290.63,124.72,290.62,124.58,290.55,124.62Z"/><polygon class="cls-2" points="292.86 150.68 292.94 150.43 292.86 150.37 292.86 150.68"/><path class="cls-2" d="M291.69,129.68a10.16,10.16,0,0,0-.59-2.71c.19.94.38,1.93.56,3C291.73,130.07,291.78,130.09,291.69,129.68Z"/><path class="cls-2" d="M292.11,140.27c.05-.67.08-1.43.1-2.22A7.69,7.69,0,0,0,292.11,140.27Z"/><path class="cls-2" d="M290.58,125.34l-.05-.18C290.5,125.58,290.54,125.52,290.58,125.34Z"/><path class="cls-2" d="M290.58,125.34c.16.64.35,1.13.52,1.63-.16-.76-.32-1.47-.48-2.07A2.76,2.76,0,0,1,290.58,125.34Z"/><path class="cls-2" d="M295.25,148.91c-.33-2.9-1.61-1-2.32,1.52.09,0,.18.06.27.44a12.47,12.47,0,0,1,.25,2.6c.34-1,.5-6.56.9-4.06a11.73,11.73,0,0,1,0,3.32c-.1.55-.25.85-.39,1.8.55-1.61.52,5,1.28,4.22l-.12-3.48c.11-.06.24,1.2.38.24C295.06,155.26,294.92,151.86,295.25,148.91Z"/><path class="cls-2" d="M292.92,144.83c0-.41-.08-.81-.11-1.21a22.55,22.55,0,0,1-.45,4.19c.22,2,.37,2.42.5,2.56l0-6C292.88,144.55,292.89,144.69,292.92,144.83Z"/><path class="cls-2" d="M293.68,140.2c-.24-3.57-.49-2.48-.91-4.57.67,5.7-.36-1.63-.24,2.52-.13-1.12-.31-2.11-.42-3.06.05,1,.13,2,.1,3l0-.14v0h0c0-.25.07-.33,0,0l0,.12a.62.62,0,0,1,.18.24c0,1.66-.1.27-.18-.24l-.07-.07v0l.58,5.71c0-1.21-.12-2.73-.33-5.42C293,139.11,293.32,142,293.68,140.2Z"/><path class="cls-2" d="M289.42,109.34c0,.18,0,.18-.05.2C289.52,109.89,289.59,110,289.42,109.34Z"/><path class="cls-2" d="M289.54,114.53l-.05.19C289.52,114.8,289.54,114.72,289.54,114.53Z"/><path class="cls-2" d="M289,109.78a34.74,34.74,0,0,1,.58,4.75,10,10,0,0,0,.24-2.81,7.34,7.34,0,0,1-.73-2c-.2-1.18.21,0,.32-.15-.33-.77-1.17-2.67-.58-.14Z"/><path class="cls-2" d="M292.83,127.33l-.2.15c-.35-2.72-.52-2.09-.75-2.39l1,4.72Z"/><path class="cls-2" d="M292.65,151.22l-.46-.63c.24.91.42,1.83.59,2.76C292.74,152.64,292.74,151.93,292.65,151.22Z"/><path class="cls-2" d="M292.28,158.81c.09-.46.14-.93.22-1.4l-.39-.24C292.17,157.71,292.24,158.26,292.28,158.81Z"/><path class="cls-2" d="M207.93,279.22l.75.14a22.45,22.45,0,0,1,3.15-1.4C209.82,278.49,207.53,278.92,207.93,279.22Z"/><path class="cls-2" d="M128.11,136.42l-.66-1.54C127.8,137.38,127.87,136.25,128.11,136.42Z"/><path class="cls-2" d="M273,221.67c1.26-1.72,2.43-3,2.4-3.69C274.34,219.43,273.58,220.61,273,221.67Z"/><path class="cls-2" d="M270.27,226l.59-.73c.61-1.14,1.31-2.23,2.1-3.58A21,21,0,0,0,270.27,226Z"/><path class="cls-2" d="M237.63,36.66a23.14,23.14,0,0,0,1.91,1.47C239.07,37.79,238.33,37.21,237.63,36.66Z"/><path class="cls-2" d="M291.9,176.64a1,1,0,0,1-.11-.56C291.78,176.37,291.81,176.59,291.9,176.64Z"/><path class="cls-2" d="M264.84,238.31l-.07.09C265.08,238.14,265,238.18,264.84,238.31Z"/><path class="cls-2" d="M289.43,180.13c-.16.47-.34,1-.51,1.61C289,181.48,289.17,181,289.43,180.13Z"/><path class="cls-2" d="M289.17,180.35l.3-1.11C289.44,179.06,289.36,179.2,289.17,180.35Z"/><path class="cls-2" d="M288.79,182c-.09.38-.2.91-.4,1.79.17-.74.35-1.41.53-2.06C288.83,182,288.79,182.08,288.79,182Z"/><path class="cls-2" d="M292.29,170.68c0-1.49.06-3.16.09-4.91a38.39,38.39,0,0,1,.28-5.42c-.75,1.62,0,.86-.93,3.39.5-1.09.39,1.26,0,3.41s-.56,4.14.14,2.4c-1.12,2.54-1.06,4.53-2.37,7.83.2-.07.62-1.13-.08,1.86a3.8,3.8,0,0,1,0,.69c0,.09,0,.12-.06.2l.06-.16c0,.14,0,.15,0-.06a10.5,10.5,0,0,1,.64-1.47,18.69,18.69,0,0,1-.47,4c-.29,1.6-.58,3.22-.72,4.05-.6,1.74,0-.8-.5.11l-.34,2.48c-.5.12-2,4.46-1.12.25-.37,1.24-.69,2.49-1.14,3.7a61,61,0,0,0-2.58,6.86c-.76,1.66-1.22,4.47-1,2.86-.61,1.94-1.42,3.79-2.15,5.68H280c-.31.68-.62,1.37-.91,2.07s-.65,1.38-1,2.08l-2,4.28a47.4,47.4,0,0,1-5.31,8.38c-.49.88-1,1.78-1.6,2.81s-1.44,2.12-2.46,3.47l-.69.31c-.35.55-.81,1.21-1.34,1.9l-1.71,2a15.29,15.29,0,0,0-2.29,3.13c-1.32.73-3.35,3.09-5.55,5.61l-3.34,3.71a38.69,38.69,0,0,1-3,2.95l.23.48-7.21,7,.47.18a35.24,35.24,0,0,1-4.88,3.92c-1,.72-2.05,1.39-3.12,2.11s-2.18,1.46-3.25,2.25a8.15,8.15,0,0,1,2.14-1.58,62.63,62.63,0,0,0-8.18,5.38c-1.35.93-2.69,1.85-4,2.68-.67.41-1.33.82-2,1.16s-1.36.63-2,.88a14.9,14.9,0,0,1-3.09,1.61l.3-.19-.52.27c-.59.24-1.23.41-1.9.64a12.56,12.56,0,0,0,1.62-.49c-1,.49-2.49,1.23-3.94,2l-.83-.14-.34.17c-1.53.51-1.09.75-.16.72-.71.44-1.38.81-1.88,1.13-1.52-.23-3.91,1.9-5.89,1.76a34.34,34.34,0,0,1-4.27,1.93l-2.63,1.14a5.72,5.72,0,0,0-1.19.68,36.7,36.7,0,0,0-5.09,1.52l-.91-.41-3.72,1.77c-2.47.19-3.51.11-1.24-.8-2.79.92-3.94,1.22-5,1.49s-2,.51-4.41,1.22l.18-.43c-1.75.28-4.51,1.23-5.63,1a36.43,36.43,0,0,0-4.94.14l-7.7.3c-1.44,0-2.88,0-4.33-.07-.73,0-1.47-.06-2.2-.13l-.11,0,2.37-.21-2.57.19-1.86-.24a19,19,0,0,1-2.13-.38l-2.06-.44c-1.32-.41-2.61-.74-3.76-1.22.75.86-.32.37-1.65-.23-.67-.29-1.38-.66-2-.93s-1.06-.37-1.24-.2c-.44-.46-1.63-1.16-.06-.75a29.42,29.42,0,0,1-3.07-1.38c-.88-.47-1.62-1-2.35-1.41s-1.38-.89-2.08-1.3-1.44-.75-2.23-1.15c-.29-.58,1.09.33.78-.12a6.38,6.38,0,0,1-1.72-1.23c-.3-.43.73.27,1.42.65a21.1,21.1,0,0,0-4-2.6,2.13,2.13,0,0,0-1.68,0,22.62,22.62,0,0,0-2.09-2.48,11.32,11.32,0,0,0-2.08-1.75,4.16,4.16,0,0,1-.44-1.16c0-.16.32.18,1.44,1.36l-.64-.78c-.26-.34-.55-.77-.88-1.23L111.58,272c-.35-.53-.7-1.09-1-1.63s-.71-1.06-1-1.57-.58-1-.83-1.36c-.5-.79-.89-1.28-1-1.25a16.29,16.29,0,0,0-1.32-2.75c-.81-1.9-1.14-3-1.5-4s-.68-2.11-1.2-4.06l.18,1.11-.18-.27a18.69,18.69,0,0,1-.88-5.91c0-1.34-.07-2.75-.12-4.19,0-.53,0-1.05-.07-1.58l0-.79c0-.12,0-.28-.07-.36l-.36-.18h0a26.39,26.39,0,0,1,.42-3.71l-.51.37c-.49-.39-.22-2,.35-4.09s1.42-4.44,1.86-6.54c-.23.47-.48.93-.69,1.42a10.4,10.4,0,0,1,1.9-4.07c1-1.39,2-2.67,2.58-3.68.3-.41-.22.77-.42,1.44,1.51-2.6,1.5-2.8,1.27-2.93s-.63-.11.4-2.14c.72-.54.21,1.34,1.8-1.2a10.89,10.89,0,0,0,1.08-1.75c.5-.85,1.11-1.91,1.76-3a59.85,59.85,0,0,1,4.32-6.67c-.72.7-1.43,1.38-.46-.62,1.74-2.89,5.37-7.58,5.92-10.74.24-.37.37-.49.43-.48.94-2.44,2.93-7.95,3-9.58a6.86,6.86,0,0,0,1.67-3.17c.24-.78.5-1.64.72-2.53l.57-2.76c.72-3.66,1.11-7.06,1.84-6.9.47-2.62.81-5.27,1.09-7.93l.13.23c.15-1.28.25-2.35.32-3.26s0-1.68,0-2.34a18.79,18.79,0,0,0-.33-3.13c.12-1.18.25-.32.33-.22.41-7.45.25-8.25-1-14.39l.43-.7c-.21-.83-.34-3.52-.75-6.91a50,50,0,0,0-2.46-10.91c.07,0,.2.17.42.72-1.37-3.91-2.58-8.71-4.1-12.75a43.63,43.63,0,0,0-2.26-5.32,8.46,8.46,0,0,0-2.32-3q-1.47-2.31-3-4.54c3.3,6.17-1.17-.52,0,2.13-1.41-2.32-3.17-6.33-1.32-3.52l.19.5c.71.3-.28-1.64-1.54-3.58-.61-1-1.24-2-1.72-2.74s-.75-1.27-.6-1.33l-1.51-2.09c-.49-.69-1-1.34-1.43-2a42.72,42.72,0,0,1-2.51-4.2,45.32,45.32,0,0,1-3.61-9,49,49,0,0,1-1.88-12.22,4.32,4.32,0,0,0,.56-.3c0-1,.06-2.18.1-3.35,0-.67.07-1.35.11-2,.06-1.28.16-2.46.27-3.22-.1.62-.24,1.36-.34,1.74a47.46,47.46,0,0,1,.51-6.61,1.5,1.5,0,0,1,.21-.39v.09c-.11,1.11-.29,2.72-.09,1.83.06-.31.14-.61.21-.92v.09c0-.14,0-.27.08-.41.08-.39.16-.78.26-1.17l-.11.24a19.29,19.29,0,0,1,.62-2.82c.23.61.59.61.05,3.3a47.18,47.18,0,0,1,1.54-6c.29-.34,1.71-2.74,1.51-1.95.21-.37.41-.78.62-1.2s.43-.86.65-1.32l.65-1.44c.24-.48.51-1,.76-1.47l.81-1.52c.3-.49.62-1,.94-1.46s.65-1,1-1.42.76-.88,1.16-1.29a6,6,0,0,1,1-1.41c3-3.11,6.17-5.23,10.22-8.34,1-.27,1.87-.62,2.85-.81,1.72-.95.76-.72.08-.64s-1.11,0,1.86-1.6c4.31-2,1.85-.17,3.46-.56a21.21,21.21,0,0,1,10.3-3c-1.42.28-2.54.41-3.84.72,1.11-.07,2.2-.21,3.31-.18-3.82,1.2-6.53,1.8-3.48,1.59.05-.43,1.34-.91,3.1-1.25.89-.14,1.89-.31,2.9-.41l3-.21,0-1.31c.51,0,1-.06,1.53-.07v0c0,.07,0,.36,0,.46V6.85h0V7.1h0v0h0V6.85h0v.59c0,.3,0,.46,0,.48v.2c0-.62,0-.68,0-1.13v.5h0V6.85h0v0h0v0h0v.2c0-.52,0,.34,0,.16V6.85h0v0h0v0h0v0c2.08,0,3.69-.12,1.84-.57,3,.19.18.51,2.47.88,7.23-.31,15.82,1.36,24.54,3,.17-.14-1.23-.74.69-.57l4.39,1.89c1.73.29,1.82-.59,4.77.85-.4-.26-1-.66.16-.4a205.07,205.07,0,0,1,24.76,9.71,92.87,92.87,0,0,1,22.3,14.72c-1.69-1.74-.39-.81,1,.33-.89-.81.28-.33.24-.66l2.72,2.56c.44.43.9.85,1.34,1.29l1.29,1.35c.72.19,2.23,1.5,3.68,2.75s2.73,2.6,3.24,2.63L248.36,45c1.38.82.88-.24.14-1.57s-1.81-2.81-1.32-3c-1.64-.84-3.13-2.7-5.07-4.51-1-.92-2-1.89-3.09-2.78a16.51,16.51,0,0,0-3.76-2.27c-.94-.91,1.08.4.65-.19a11.22,11.22,0,0,1-2.35-1.21c-.45-.28-.92-.63-1.46-1s-1.15-.79-1.83-1.28l.37.12c-2-1.22-3.64-2.38-5.24-3.32s-3.06-1.84-4.54-2.76-3.08-1.74-4.82-2.73c-.89-.48-1.8-1-2.83-1.52l-3.31-1.6.52.75a33.94,33.94,0,0,1-3.34-1.85c-2.66-.38,5.8,2.61,3.31,2.38a17.26,17.26,0,0,0-3.28-1.93c-1.53-.67-3.36-1.39-5.16-2.1s-3.61-1.28-5-1.87A10.14,10.14,0,0,1,194,9.27c-3.36-1,.82.79-2.53-.15l-.81-.54-.95.13c-2.18-.67-3.2-1.34-3.23-1.58.54.13,1.54.34,2.13.47a27.3,27.3,0,0,0-5.27-1.36c-1.82-.35-3.4-.64-3.9-.77,1.09.27,2.17.6,3.25.9-1.18-.21-2.36-.51-3.6-.7l-3.76-.62c-2.53-.49-5.15-.76-7.75-1.08a92.57,92.57,0,0,0-15-.58l.69.24c-1,0-1.86.05-2.55.06h0V3h0V2.68h0v.18c0,.26,0-.05,0,.41v.43h0v0h0v-1h0v-.1h0c0-.14,0-.28,0-.15v.13h0V2.3h0V2.13h0V2h0V1.28c0,1.36,0,.14,0,1.5V2.59h0v.58h0v0h0V2.82c0,.27,0-.44,0,.32,0-.28,0-.4,0-.57v.05c0,.27,0,.66,0,1.07h0V3.56s0-.32,0,.13l-1.57,0,0-1.63c-2.29.14-4.09.36-4.25.85l-2.34-.2c.67,0,.77-.09,1.43-.1a6.81,6.81,0,0,0-4.1.46,13.56,13.56,0,0,1-5,1c-2,.12-3.46.16-2.11-.2l-4.45,1c-1,.12-1.06,0-.34-.18l-1.09.17-1.69.35-3.39.69,0,0c-.46.19-1.23.47-2,.76l-2.06.81c-1.75.23.82-.34.35-.4l-3.64,1.21c-1.6,0,1.4-1.05,4-1.62a6.68,6.68,0,0,0-3.89.49A37.14,37.14,0,0,1,107.69,9l3.44-1.19c-2.45,0-5.14.9-9.17,1.87.51,0,2.55-.45,4-.58s2.27,0,.33.74a20.59,20.59,0,0,0-4.65,1.72c-.17-.42-2.24.33-4.75,1.43l-.06-.67c-2.7,1.29-2.35,1.5-3.86,2.42-3,1.28-3.86,1.15-4.75,1.09-4.87,2.14,3.66-.82-2,1.93a53.13,53.13,0,0,0-5.39,2.76c-1.73,1-3.41,2.23-5.59,3.7-2.77,1.36.26-.61-.78-.2-.71.59-1.38,1.24-2,1.88-.56.35-.47.1-.42,0-1.82,1.42.19.65-2.73,2.75-.23.54-1.87,1.39-3.86,2.53-1,.57-2.09,1.2-3.12,1.91a17.41,17.41,0,0,0-2.69,2.4c-1,.54.17-.64-.24-.63l-2.55,2.4c-.59.62-1,1.08-1.43,1.5-.81.87-1.5,1.66-3.14,3.57l-3.37,2.65c1.3-.92,1.32-.57.75.34s-1.78,2.35-2.77,3.81c.91-.65,1.72-1.17,2.25-1.53-1.27,1.34-2.39,2.82-3.59,4.22-.53.41-.31-.14.12-1l-.59.85c-1.53,1.27-1.1.28-.38-1l1.66-1.19c.66-1.27,1.25-2.5.79-2.55-.22.3-.64.86-1.15,1.44.18-.33.27-.57.11-.49a6.8,6.8,0,0,0-1,1.4l-1.4.43v.42c-1.83,1.65-3.5,3.44-5.22,5.21C35.62,59.8,33.64,64,29.34,71c.66-2-.48-.84-.94-1.27A18.52,18.52,0,0,0,31.11,66a35.44,35.44,0,0,1,3.42-5.13c-1.44,1.74-1.38,1.18-1.1.66-1.42,2.16-2.68,4.42-4,6.62-.34-.44-1.22,1.15-2.48,2.75.83-.38.2.93-.81,2.67s-2.25,4-2.91,5.45c-.39,0-.32-.82,1.65-4.11-2.73,3.32-1.76,5.27-4.15,8.67a5.25,5.25,0,0,0,.71-1.67,30.67,30.67,0,0,1-1.91,4c-.73,1.25-1.22,2.15-1.11,1.51.13-.29.24-.58.39-.85a101.39,101.39,0,0,0-4.62,10.94c-.34,1-.68,1.86-.93,2.73s-.45,1.65-.62,2.34a6.82,6.82,0,0,0-.35,2.63,3.39,3.39,0,0,1-.76-1.5l-.2,2.84-.07,2.86c0,1.9-.12,3.76-.06,5.64-.24-.56-1,0-1.59,0a.65.65,0,0,1-.7-.53A5.06,5.06,0,0,1,9,112.06a28.26,28.26,0,0,0-1.47,6.26c.33-1,1.59-2.21,1.35-.86a30.66,30.66,0,0,0-1.33,3.09c-.23.73-.46,1.57-1.21,3.81.42-1.46,1.25.4.8,2.72-.1-.39-1.15,0-1.11-.86l0,1.51.09,1.51L6.3,132c-.13-1.06-.93,0-1.38,1.18.16-.29-.06,1-.19,2.53s-.31,3.39-.32,4.18l.45-2.49a17.79,17.79,0,0,0,.31,6.68,24.6,24.6,0,0,1,.68,6.58c-.25-.79-1.48-2-1.54,1.4.31.77,1.05,2.48,1.78,4.68a41.34,41.34,0,0,1,2.13,7.74L8,165.59,9,169.93a65.39,65.39,0,0,1-2.55-6.58c-.44-1.39-.87-2.83-1.26-4.19l-.54-2-.36-1.76c-.18,2.53-.43.72-.11,4.49-.2,1.35-.65-2-.7-3.14,0,1.47.14,2.93.21,4.4s.12,2.95.27,4.41c.62-.46,1.52,6.6,2,6.18l-1-4.68-.48-2.34-.35-2.37c.34-.22.85,1.12,1.49,3.25.33,1.07.66,2.34.94,3.72.15.69.28,1.41.4,2.15s.28,1.49.4,2.25c0,1.59-1.39-1-1.59-.8a37.48,37.48,0,0,1,1.42,6.31l-.82-2.52a15.73,15.73,0,0,0,.44,2.36c.22.73.49,1.42.74,2.13a17.65,17.65,0,0,1,1.14,5c.35,1.39.34,4.36.79,4.49.09-2.48,2.27-3.51,3.24-2.2,0,.24.36,2.07.71,4s.85,4,.93,4.87c.19,2.42-2.48-2.85-2.33-.8.2,0,.83,1.18,1.08,1.67.35,1.46-.79-.38.44,2.65.83.26,2.38,6.19,1.1,1.23,1.38,2.87,1,3.23,2.63,6.62,0-.63.65,0,1.53,1.09s1.94,2.73,2.78,4.08c-.24-.09-.12.64,0,1l1.94,3.94c.62,1.18,1.2,2.26,1.78,3.34s1.1,2.16,1.78,3.25,1.38,2.24,2.19,3.52c.08.28.48,1.06.74,1.67s.42,1-.07.58A18.44,18.44,0,0,1,32.32,234c1.63,3.3-2.5-3.35-1.47-.69.48-.05,3.2,3.69,5.11,5.58,0-.52-1-1.71-2.06-3.11s-2.4-2.91-3.27-3.93c.34-.24,1.37.45,2.8,1.82.72.67,1.51,1.54,2.43,2.49s1.94,2,3,3.18c1.6,1.9,1.89,2.35,1.79,2.48s-.54-.16-.21.13a47,47,0,0,0,3.6,3.92,25.91,25.91,0,0,0,2.48,2,31.92,31.92,0,0,1,5.29,5c1.85,2.51-.64.87-.41,1.63-3.14-2.64-4.2-4.66-6.13-6.63l2.16,2.64a28.08,28.08,0,0,1-3.9-3.89,23.07,23.07,0,0,0,2.37,2.84c1.17,1.28,2.62,2.86,4.29,4.41s3.38,3.29,5.14,4.79,3.33,3.06,4.72,4.24c1.13.66,3,1.89,2.3,1.07l-1.86-1.36c-1.38-1.64,3.77,2.19,1.61.24,2.57,1.71,5.65,3.28,9,5.94l.34.94a5.68,5.68,0,0,0-1.21-1.06,13.87,13.87,0,0,0-2-1.37c1.56.88,5,4.38,7.13,4.77l-2.31-2c1.39.68,2.92,1.46,4.57,2.2a36,36,0,0,1,4.94,2.61c-1.2-1.38-.79-.37-2.77-2.33.8.95-1.31-.23-3.23-1.39s-3.63-2.34-2.3-.93a16.06,16.06,0,0,0-3-2.58,28.54,28.54,0,0,1-3.39-3c0,.23.81,1.06-1.71-.86a4.26,4.26,0,0,1-.67-.27l-.16-.15.12.13c-.13-.06-.14-.06,0,.05a8.19,8.19,0,0,1,1.13,1.19,8.61,8.61,0,0,1-1.57-.8c-.61-.39-1.29-.87-2-1.36-1.37-1-2.75-2-3.5-2.42-1.37-1.31.75.34.11-.5l-2.17-1.4c.09-.52-3.3-3.85.23-1.14-1-.89-2-1.73-3-2.65-.77-.91-1.71-1.93-2.67-2.89s-1.92-1.83-2.65-2.5c-1.23-1.43-3.65-3.1-2.26-2.16-1.54-1.41-2.95-2.95-4.39-4.47l0-.12C40.83,240,38.8,237.5,36.66,235a50,50,0,0,1-5.55-8.61c-.61-.85-1.23-1.71-1.93-2.73s-1.35-2.27-2.17-3.81v-.78A20.56,20.56,0,0,1,25.83,217c-.38-.81-.79-1.67-1.17-2.49A18.37,18.37,0,0,0,22.74,211a12.72,12.72,0,0,0-.93-3.22c-.5-1.32-1.25-2.82-1.87-4.43l-2-4.75c-.58-1.53-1.06-3-1.4-4.08H16l-.78-2.29c-.26-.76-.49-1.55-.75-2.34-.5-1.61-1.12-3.28-1.71-5.21l-.37.35A45.18,45.18,0,0,1,11,178.7c-.33-2.47-.69-5.19-1.14-7.89a10.73,10.73,0,0,1,.48,2.71c0-.83-.1-1.66-.16-2.5s-.15-1.67-.26-2.51c-.21-1.68-.58-3.35-.82-5-.47-3.35-1-6.64-.68-9.63a15.27,15.27,0,0,1-.08-3.59,1.94,1.94,0,0,0,0,.36c0-.15,0-.37,0-.6.07-.66.19-1.33.28-2.06-.13.62-.23,1.21-.29,1.73,0-1.14,0-2.88-.06-4.58l.5-.71V144c.22-1.65-.2-1.35-.58-.47-.07-.86-.11-1.65-.18-2.27.89-1.3.07-4.48,1.06-6.25-.26-1.18.74-8.52.18-9.55.12,0,.26-.52.1.39a35,35,0,0,0,1-5.44l.78-.66.13-4.24a8,8,0,0,1,1.07-2.23c.23-.21.27.18.2,1.45.43-3,.72-4.2,1-5.29.11-.55.23-1.07.35-1.77s.34-1.58.58-2.86l.29.36c.59-1.74,1-4.73,1.74-5.64a37.54,37.54,0,0,0,2.18-4.61c1-2.05,2.08-4.56,3.34-7.22s2.71-5.46,4.33-8.07c.8-1.31,1.55-2.63,2.36-3.85s1.63-2.35,2.41-3.42c-1,.55-.27-.41.69-1.62s2.24-2.56,2-3c.58-.35,1.55-1.45.76.08.73-1.13,1.38-2.11,2-3l1.86-2.26a29.25,29.25,0,0,0,3-4.32c.61-.29-.44,1.13,0,.82a7.79,7.79,0,0,1,1.42-1.76c.48-.31-.34.75-.8,1.46a17,17,0,0,0,2.91-4.24A2,2,0,0,0,45,52.87a15,15,0,0,0,4.15-4.63c.89-.5,2.24-1.43-.15,1,.7-.66,2.89-2.63,4.85-4.51s3.89-3.5,3.75-3.81a7.81,7.81,0,0,0,1.28-1c.5-.44,1-.87,1.15-1.06,3.42-2.65,3.7-2.91,7.14-5.41l-1,.6a6,6,0,0,1,2.07-2l1.55-1c.59-.35,1.24-.75,1.94-1.24l0,.12a56,56,0,0,0,4.81-2.88,33.31,33.31,0,0,1,4.89-2.61l-.6-.21c0-.66,1.66-1.31,3.71-2.12,1-.4,2.16-.86,3.29-1.33A22.57,22.57,0,0,0,91,19.33l-1.59.44a14.14,14.14,0,0,1,4.48-1.43,31.69,31.69,0,0,0,4.67-.87c.52-.11-.73.45-1.39.79,3.07-.91,3.2-1.14,3.12-1.37s-.41-.53,1.83-1.38c1,0-.78,1.19,2.27.19.8-.12,2.89-1.2,5.41-2.13,1.25-.49,2.59-1,3.9-1.41a21.13,21.13,0,0,1,3.7-.73c-1,0-2,0,.12-.77.82-.22,1.81-.41,2.87-.58s2.22-.25,3.34-.39c.94-.11,1.86-.24,2.73-.4-.45.33-.84.65-1.22,1-1.11.54-.41,0-.36-.16l-2.32,1.25c-.67.41-1.26.8-1.8,1.15s-1.06.71-1.51,1-1.07.75-1.57,1.09a15.71,15.71,0,0,0-2,1.64c-.58.54-1.13,1.06-1.62,1.57l-1.3,1.52c-.83.93-1.48,1.84-2.17,2.62-.34.38-.69.74-1,1.07a9.29,9.29,0,0,1-1.11,1,2.33,2.33,0,0,0-.21.79l-.52.65a39.29,39.29,0,0,0-4.89,8.46c-.06.14-.13.27-.19.42.28-.6.21-.68.5-1.28a18.63,18.63,0,0,0-1.61,4L101,38.7a17.7,17.7,0,0,1-.71,1.74,3.49,3.49,0,0,1,0,.46c-.19.62-.39,1.25-.57,1.87.06-.39.11-.77.15-1.13a14.42,14.42,0,0,0-.8,3.59l-.12.46c-.11.47-.19.92-.28,1.38a1.13,1.13,0,0,1-.18-.42c0,.25.07.52.1.8-.25,1.23-.46,2.45-.58,3.59-.08.82-.14,1.67-.15,2.35a4.41,4.41,0,0,0,.08.79,4.7,4.7,0,0,0-.38.53c-.07.1-.08.18-.18.33a2.92,2.92,0,0,0-.35.48l-2.31,1.6c-.77.53-1.54,1.06-2.26,1.66l1-.63.76-.39A5.69,5.69,0,0,1,95,57.4c.29-.07.11.16-.18.45-.58.58-1.59,1.45-.24.83-2.32,1.58-6.36,3.6-3.54,1.57l.5-.23c.27-.75-1.64.43-3.64,1.73S84,64.69,83.87,64.36L81.76,66c-.69.55-1.34,1.16-2,1.74-1.33,1.18-2.69,2.31-4,3.5-2.5,2.48-5.07,4.87-7.33,7.52s-4.44,5.31-6.57,8c-1,1.38-1.93,2.81-2.89,4.22L57.56,93.1c-.42.73-.84,1.46-1.25,2.19l1.39-1-2.34,4c-.75,1-1.31,1.17.36-1.73a10.42,10.42,0,0,0-1.66,3,9.38,9.38,0,0,0-.55,2.21c-3.1,5.76.34-2.67-.54-.88l-1.14,2.49.35-.52a49.39,49.39,0,0,1-2.06,6.1c-1.08,2.3-.9,1-1.3,2,0,0-.2.28-.59,1.42-.67,1.85-1.27,3.73-1.9,5.6L47.6,116c-.53,2.56-1.73,5.24-.27,2.86a20.28,20.28,0,0,0-1.8,4.82c-.31,1.1-.64,2.3-1,3.54s-.48,2.58-.72,3.89-.48,2.59-.63,3.82-.25,2.4-.36,3.44c-.2,2.07-.44,3.64-.5,4.25.14,1.84.18,3.65.16,5.56,0,.47,0,1,0,1.45s0,1,0,1.5c0,1,.06,2.08.09,3.19.08-1.11.71-1.79.76,2-1.51-1.31,0,7-.44,10.24.07-1.42.59,1.27,1.11,3.76s1.24,4.72,1.12,2.52c.68,3.13-.44.29-.15,2.73,1.09,3.69,2.32,7.71,3.67,11.95.78,2.08,1.55,4.24,2.4,6.4s2,4.24,3,6.36c.24,0-.26-1.49.91.18l1.72,4.78a6.29,6.29,0,0,0,1.39,1.48,6.91,6.91,0,0,1,1.69,2.66c-.14-.49-.35-1.21.39-.2a90.41,90.41,0,0,0,18.23,21.38c1.81,1.54,3.55,3.15,5.48,4.54s3.71,3,5.7,4.26,3.84,2.8,5.88,4l1.49,1c.45.3,1.15.73,1.21.82s.2.15.3.23.1.44.16.66l-.06.37c0-.1.06-.18.08-.26.12.47.22.94.34,1.4,0,.66-.13.46-.22.36.14.83.28,1.07.41,1.21s.08.56.13.88c0-.23-.08-.54-.12-.86l.13.12a2.16,2.16,0,0,1,.42,1c.07,1.61.21,3.23.44,4.84a6.94,6.94,0,0,1,.69,1.62,17,17,0,0,0,2,6.11c.23,1.08-.55-.35-.66.05.63,1.28,1.12,2.18,1.53,2.9l-.16.46,1.1,1.1.23.37c.33.48.66.93,1.08,1.51s.94,1.29,1.78,2.21l1,1.88c.33.63.71,1.21,1.07,1.82-.74-1.38-.39-1.35.44-.69.41.33.94.82,1.51,1.38s1.28,1.11,1.92,1.67c-.52-1-1-1.78-1.27-2.31a51.21,51.21,0,0,0,3.81,3.71c.37.53-.15.31-1-.13l.8.59c1.17,1.53.23,1.1-1,.36-.37-.57-.76-1.1-1.07-1.67-1.16-.75-2.32-1.44-2.43-1a16.45,16.45,0,0,1,1.32,1.26c-.32-.2-.54-.31-.48-.14a5.24,5.24,0,0,0,1.29,1.08l.37,1.4.42,0c.4.45.79.92,1.21,1.36l1.29,1.29c.85.88,1.77,1.68,2.7,2.48a52,52,0,0,0,7.21,3.24c1.25.43,2.57.91,4,1.39l-1.19,0c.71.1,1.25.16,1.67.2,1.2.39,2.49.79,3.91,1.19-.93,0-1.64,0-1.3.23l-.11,0,.13,0a5,5,0,0,0,.92.3l.26.1c0,.17.17.38.21.59-.89-.4-2.12-.76-3.43-1.27-.88-.31-1.82-.63-2.69-1,0-.08.06-.14.48-.14-.31,0-.61,0-.91-.06a14.43,14.43,0,0,1-2.29-1.19l-.42-.43-1.66-.29,1.46.78c1.47.95.95.95.44.77.16.08.33.14.5.21l-.42,0,.68.15,2.81,1.12,2.49.79-.22-.05h-.43a31.53,31.53,0,0,1-3.51-.88c-.55-.19-1-.36-1.23-.47a8.17,8.17,0,0,0,2.55,1.37,8,8,0,0,1,2.23.1c1.2.28,0,.2,0,.35.57,0,1.7,0,1.63-.11l.13,0c-.33.41,1.41.88,3.27,1.67-.59-.67.83-.47,2.77-.06a36.82,36.82,0,0,0,6,.78c.07.18-.08.34-.72.38a9.57,9.57,0,0,1-1.37,0c-.59-.08-1.34-.21-2.27-.41a8.82,8.82,0,0,0,2.61.61,14.48,14.48,0,0,0,2.14-.13,13.55,13.55,0,0,1,4.7,0,5.12,5.12,0,0,0-1.77.05c2.17-.08,7.3-.09,6.1.25l-.9.05a101.18,101.18,0,0,0,11.47-.83l2.77-.38c.85-.17,1.63-.34,2.3-.51a6.26,6.26,0,0,0,2.42-.87,3.41,3.41,0,0,1-1,1.36c3.42-1.4,6.71-3.12,9.94-4.73-.37.46.4.91.69,1.43s.1,1.18-2.32,1.85a26.23,26.23,0,0,0,6.06-1.44c-1,.13-2.61-.45-1.33-.83,3.73-.1,2.57-.12,7.08-.75-1.44.26-.21-1.3,2-1.92-.29.27.52,1-.25,1.38,1.66-.83,3.26-1.83,4.86-2.76-.86.57.4.84,1.63.72-.32,0,.87-.39,2.28-.92s3.08-1.2,3.77-1.54l-2.36.68a17,17,0,0,0,5.65-3.16,23.38,23.38,0,0,1,5.4-3.45c-.57.56-1.06,2.17,1.91.77.53-.6,1.69-2,3.27-3.59a40.51,40.51,0,0,1,5.77-5.23l1.07-.31,3.39-2.65c-.88,1.08-2.63,3.05-4.6,5.08s-4.24,4-5.93,5.31c2.28-.91.79,0,3.94-1.83,1.28-.39-1.49,1.41-2.41,2l3.74-2.07c1.24-.69,2.5-1.37,3.7-2.14-.69-.38,5.11-4.1,4.48-4.44-1.18,1-2.43,1.89-3.65,2.84s-2.44,1.91-3.72,2.76c-.35-.2.59-1.24,2.15-2.74a65.81,65.81,0,0,1,6.3-5c1.39-.67-.22,1.64,0,1.75a45.19,45.19,0,0,1,4.88-3.93c-.58.64-1.19,1.24-1.82,1.82a16.2,16.2,0,0,0,3.39-3,19.87,19.87,0,0,1,3.89-3.13c1.07-.88,3.69-2.09,3.61-2.55-2.22.93-4.09-.58-3.37-2,.18-.15,1.7-1.13,3.22-2.32s3.21-2.42,3.91-2.83c2.05-1.15-1.44,3.39.31,2.42-.07-.19.68-1.23,1-1.65,1.14-.91,0,.86,2.13-1.49-.13-.86,4.44-4.64.6-1.49,2-2.38,2.39-2.26,4.71-5.05-.55.3-.3-.57.31-1.8.3-.62.69-1.33,1.12-2s.84-1.47,1.27-2.1c0,.25.63-.15.91-.35,1-1.24,1.88-2.29,2.66-3.32l2.21-2.93a73.24,73.24,0,0,0,4.32-6.25c.21-.19.74-.85,1.17-1.33s.72-.77.55-.17a18.11,18.11,0,0,1,1.38-3.17c2.25-2.77-1.92,3.56,0,1.59-.26-.42,1.92-4.32,2.8-6.78-.47.2-1.11,1.55-1.9,3.07s-1.58,3.3-2.11,4.49c-.37-.21-.18-1.41.42-3.22.29-.91.72-2,1.19-3.16s1-2.53,1.56-3.92c1-2.19,1.33-2.61,1.47-2.57s.1.54.21.13A27.88,27.88,0,0,0,283.5,203a21.93,21.93,0,0,1,.67-2.69c.17-.51.37-1.07.64-1.71s.53-1.4.91-2.26c1.46-2.65,1,.22,1.63-.28-1,3.84-2.43,5.57-3.35,8.07l1.44-3a24.15,24.15,0,0,1-1.83,5,19.56,19.56,0,0,0,1.55-3.24c.62-1.55,1.47-3.44,2.14-5.55,1.51-4.17,2.89-9,4-12.32.11-1.27.42-3.41,0-2.47l-.43,2.19c-.89,1.88.36-4.21-.47-1.53.18-1.47.38-3,.6-4.76a40.74,40.74,0,0,1,1-5.59c.25-.22.51-.45.74-.67a12.05,12.05,0,0,0-.87,3.81,25.18,25.18,0,0,1,.93-4,10.33,10.33,0,0,0,.38-4.21ZM150.66,3.17v.52h0V3.17Zm0,.32v0Zm0,.19h0Zm0,3.38v0Zm0-3.81v0Zm0,3.77V7Zm0-.17h0v0Zm0,.13v.6c0-.2,0-.44,0-.67Zm0-4.38v0Zm0,4.45v0h0v0Zm0-4.72v0Zm0,4.62V7Zm0-4.3v0Zm0,.57h0v0Zm0,.4v0Zm0-.38v0Zm0-.42v0ZM52.38,252.48l-.09-.06C50.82,250.76,51.33,251.35,52.38,252.48ZM41,54.11a9,9,0,0,1,2.22-2.35C42.54,52.46,41.84,53.29,41,54.11ZM106.38,9.8c1-.39,2.82-1.26,3.62-1.2C109,9.46,108.1,9.46,106.38,9.8Zm2.54,202.45c.51-.89,1.33-2.59,2-3C110.71,210.46,110,211,108.92,212.25ZM102.61,52.31a6.7,6.7,0,0,1,0,1.08q0,.45-.09,1t-.12,1.14a14,14,0,0,1,.3,1.41l-.33.31a50.94,50.94,0,0,1,.17-5.8C102.55,51.69,102.59,52,102.61,52.31Zm-.26-1.74c0,.18.07.37.11.56l-.17.27C102.31,51.16,102.33,50.88,102.35,50.57Zm-4,8.78c.09.52.17,1.07.23,1.6-.18-.48-.34-1-.51-1.45ZM48.79,111.58l.46-.81C48.6,112.76,48.7,112.17,48.79,111.58ZM99.92,231.7a29.89,29.89,0,0,0-1.1,9.59,13.15,13.15,0,0,1-1.37-.62A20.41,20.41,0,0,1,94,238.52l.37.12c-2-1.3-3.67-2.38-5.17-3.49s-2.8-2.24-4.15-3.36c-.34-.28-.69-.55-1-.84l-1-.94L81,228c-.72-.7-1.53-1.39-2.31-2.21l-2.52-2.68.22.89A24.27,24.27,0,0,1,74,221.11c-1.12-.74-.11.49,1.06,1.63s2.28,2.35,1.16,1.79a17.05,17.05,0,0,0-2.39-3c-1.06-1.31-2.35-2.8-3.62-4.27-.32-.36-.63-.73-.94-1.09s-.57-.76-.84-1.13c-.54-.73-1-1.43-1.49-2.07a9.14,9.14,0,0,1-1.56-2.89c-1.91-2.9.12,1.17-1.8-1.74l-.27-.93-.8-.53a12.61,12.61,0,0,1-1.2-2.3c-.18-.58-.2-.93-.12-1a9.94,9.94,0,0,0,.56.91l.66.88c-.16-.34-.37-.69-.58-1.06s-.41-.79-.64-1.19c-.46-.82-1-1.65-1.44-2.44l-1.31-2.1c-.17-.28-.31-.55-.42-.77.37.84.78,1.66,1.19,2.48a89.33,89.33,0,0,1-6.52-13.76c-.54-1.19-.87-2.46-1.31-3.68s-.83-2.44-1.24-3.64c-.73-2.41-1.36-4.78-2.09-7l0,.72c-.13-.42-.26-.81-.36-1.17s-.16-.71-.23-1c-.13-.64-.24-1.18-.32-1.67-.18-1-.27-1.69-.35-2.43s-.21-1.51-.29-2.57-.23-2.42-.48-4.33L46,160c-.19-.76-.37-1.65-.52-2.62s-.15-2-.18-3.08c.33,1.94.38-3.68.76-1.14-.17-1.89-.33-3.08-.37-3.87a11.61,11.61,0,0,0-.13-1.49,25.55,25.55,0,0,1-.62-3.47l.42-1.14a12.05,12.05,0,0,1-.25-2.09,35.53,35.53,0,0,1,.18-3.7c0,3.21.82-2.39.86,1.19.73-4,1.22-6.93,1.45-9.39a16.69,16.69,0,0,1,.6-3.28,10,10,0,0,1,1.12-2.69c-.09-3.87-2.25,6.67-1.95,4.6-.31.83-.41,0-.2-1.28a34.75,34.75,0,0,1,.91-4.36,8.72,8.72,0,0,1,.68-1.78c.33-.57.68-1.17,1.08-1.88s.84-1.54,1.3-2.57c.23-.51.46-1.08.7-1.71s.57-1.3.87-2.05c-.25.59-.19.66-.44,1.26a21.57,21.57,0,0,0,1.34-3.41,13.78,13.78,0,0,1,1.69-3.7c.17-1.77,1.71-3.47,1.21-4.26l-2.42,5.47c1.3-3.11,1.7-6.51,5-11.14a24.62,24.62,0,0,1-1.18,3.07c1-1.31,1.42-2.82,2.46-4.18.46.84-3.54,6.36-4.42,10a20.43,20.43,0,0,0,1.62-3.48c.49-1.17.93-1.86.84-.88a11.63,11.63,0,0,1,1.94-4.32,38.93,38.93,0,0,0,3-5.26l.24.51a20,20,0,0,1,1.67-3c-.32.72-.53,1.51-.8,2.26a16,16,0,0,1,3-4.18c1.15-1.25,2.22-2.52,3.26-3.85-1.18,1.32-1.76,2.12-2.13,2.5s-.48.39-.52.29.12-.86-.93.24c.6-.92,1.12-1.67,1.57-2.29A16.48,16.48,0,0,1,70,82.42a12.72,12.72,0,0,1,1.91-1.54A17.05,17.05,0,0,0,74,79.26a47.78,47.78,0,0,0,3.5-3.35c-1.07,1.08-3.34,2.93-2.14,1.44a34.4,34.4,0,0,1,4.25-3.49c4.79-4.38-1.08.3.79-1.75a5.92,5.92,0,0,0,2.15-1.8,14.41,14.41,0,0,1,2.2-2.48l.31.36c3-2.15,3.27-2.65,3.45-3.1a1.85,1.85,0,0,1,.55-.81,21.15,21.15,0,0,1,2.63-1.75l-2,2.14,2.79-2.1-.29.86a29.55,29.55,0,0,1,3.49-2.65c.67-.4,1.37-.77,2.2-1.21.52,3.28.3,6.5,1.41,9.59-.94-3.6-.77-4.06-.59-4s.55.66.44-.89c.54,2.19.93,3.58,1.12,4.64a16.74,16.74,0,0,1,.29,2.49c.14,1.36.12,3,2.1,7-.67-1.5-1.31-3.74-.43-2.16.66,1.82,1.71,4.17,2.09,5.34,3.61,5.76-.14-1.12,1.61,1.18a5.76,5.76,0,0,0,1.51,2.45,29.9,29.9,0,0,1,2.33,2.38l-.38.3c2,3,2.42,3.28,2.85,3.47s.82.28,2.38,3.15c-.65-.67-1.34-1.32-2-2q1,1.35,2,2.76l-.83-.3a29.12,29.12,0,0,1,4.26,7.23c-.08-.9,1,0,2.42,2.9.64,2.11-.91-.92,1,3.18a7.12,7.12,0,0,1-1.91-3.64c-.23-.11-.72-.77-1-.89.4,1.11,1,2.45,1.56,3.7s1.14,2.41,1.44,3.17A15.23,15.23,0,0,1,121,109c1,1.93,2.06,3.86,3,5.87.18,1-.24.3-.64-.41a40.92,40.92,0,0,1,1.63,3.88c-.54-.36-.82-.15-1.91-2.67.43.94.8,1.9,1.18,2.87s.78,1.93,1.1,2.91c-.06.45.37,3.2,0,2.46.61,3.35,2.64,8.06,2.87,12.66a6.57,6.57,0,0,1,.39,1.65c.4,4.29.08,8.1.58,13.18-.26,1-.5,1.92-.77,2.86-.08,4,1.11-3.87,1,2.79-.15,4.73-.74,1.71-1.08,3.33A27.4,27.4,0,0,1,127.21,171c.17-1.42.43-2.51.63-3.84l-1,3.17c.1-4,.69-6.78-.3-3.84.61.32.17,3.48-.54,6.58s-1.52,6.18-1,6.59l-.9,2c.19-.59.14-.71.33-1.29a7.69,7.69,0,0,0-1,3.7,10.34,10.34,0,0,1-1.14,4.66c-.78,1.74-1.54,2.86-1.15,1.62-.48,1.33-.93,2.67-1.42,4-.48.91-.61.8-.31.11-.84,1.79-1.67,3.58-2.62,5.33v-.07c-.13.46-.36,1.19-.63,1.92s-.59,1.46-.79,1.93c-1,1.32.3-.78-.06-.5-.52,1.08-1,2.18-1.6,3.23-1.1,1,.27-1.62,1.54-3.74a6.41,6.41,0,0,0-2.27,2.88,19.65,19.65,0,0,1-3.67,5.38l1.8-2.84a13.45,13.45,0,0,0-2.6,2.66c-1,1.19-2,2.56-3.3,4.19.37-.36,1.74-2,2.84-2.92a3,3,0,0,1,1.12-.8c.17,0,.12.3-.42,1.2a16.33,16.33,0,0,0-2.59,4.18c-.42-.22-1.47,1.7-2.61,4.19l-.5-.44c-1.08,2.79-.66,2.71-1,4.43-1.2,3.06-1.79,3.6-2.44,4.24C98.25,234.07,101.34,225.59,99.92,231.7Zm16.24,49.55a21.53,21.53,0,0,1,2.32,2.18A10.17,10.17,0,0,1,116.16,281.25Zm12.06,9.26c-.4-.17-.79-.33-1.19-.52l-.79-.45c.44.23.87.45,1.33.65l.73.33Zm.92.38h0l.69.29Zm6.31,2.45a6.07,6.07,0,0,0-.57-.31l.6.21Zm.36-1.24.1-.12.5.13A4.16,4.16,0,0,0,135.81,292.1Zm56.26-5c-.08-.09-.54,0,.24-.25A1.1,1.1,0,0,0,192.07,287.15Zm93.1-91.1c-.87,2-.55,1.28,0-.1Z"/><polyline class="cls-2" points="150.66 2.96 150.66 2.87 150.66 2.96"/><polygon class="cls-2" points="128.11 136.42 128.23 136.71 128.22 136.56 128.11 136.42"/><path class="cls-2" d="M254.27,253.19a10.93,10.93,0,0,1-1.48,1.09C252.83,254.4,253.21,254.17,254.27,253.19Z"/><path class="cls-2" d="M291,168.92l-.22,2.55a16.05,16.05,0,0,1,.49-2.52C291.16,169,291,169.37,291,168.92Z"/><path class="cls-2" d="M295.18,143.93c-.09-.42-.06-.9-.15-1.32l-.21.13C295,144.54,295.16,145.79,295.18,143.93Z"/><path class="cls-2" d="M293.54,162.21l0,.35c-.53-.64-.48,1.51-.54,3.65C293.43,166,293.44,164.22,293.54,162.21Z"/><path class="cls-2" d="M293.71,159.88c-.2-.25-.11.75-.15,1.86C293.6,161.12,293.64,160.49,293.71,159.88Z"/><path class="cls-2" d="M288.08,186.28c.36-.88-.32-.7,0-1.17C287.85,184,286.92,191.33,288.08,186.28Z"/><path class="cls-2" d="M294.17,166.57c.12-.61.22-1.22.3-1.84l-.56.67C294,165.79,294.08,166.18,294.17,166.57Z"/><path class="cls-2" d="M291.78,179.21c-.19.77-.29,1.28-.21,1.26.31-1,.54-2.09.78-3.14-.09,0-.07-.39,0-.89C292.14,177.42,291.94,178.44,291.78,179.21Z"/><path class="cls-2" d="M292.34,176.44a24,24,0,0,0,.39-2.57C292.63,174.42,292.43,175.61,292.34,176.44Z"/><polygon class="cls-2" points="293.5 172.35 294.07 169.15 293.84 170.09 293.5 172.35"/><path class="cls-2" d="M278.54,216.38c0,.41.52-.4,1.06-1.61.27-.81.81-2,.41-1.6Z"/><path class="cls-2" d="M285.25,205.6l.39-1.65a5,5,0,0,1-.92,1.31Z"/><path class="cls-2" d="M281.55,213.5c0,.39-1.91,4.85.11.79C281.67,213.88,283.16,210.64,281.55,213.5Z"/><polygon class="cls-2" points="249.12 255.8 249.76 255.16 248.97 254.51 249.12 255.8"/><path class="cls-2" d="M213.26,282.16c-2.22,1.31-3.51,1.75-2.16,1.86,4-1.57.66-1,4.28-2.34C216.18,281.05,212.42,282.78,213.26,282.16Z"/><path class="cls-2" d="M213.26,282.16c.36-.21.73-.43,1.12-.69C213.74,281.84,213.44,282,213.26,282.16Z"/><path class="cls-2" d="M246.6,44.85l1.77,2-1-1.44C247.11,45.22,246.87,45,246.6,44.85Z"/><path class="cls-2" d="M250.8,47.84v.9l1.56.7A9.34,9.34,0,0,1,250.8,47.84Z"/><path class="cls-2" d="M127.71,158c-.14,1.21-.15,2.63-.29,3.84C127.57,159.2,128.48,157.73,127.71,158Z"/></g></g></svg>