<svg xmlns="http://www.w3.org/2000/svg" viewBox="0 0 292.07 295.84"><defs><style>.cls-1{fill:#1a1a1a;}</style></defs><title>logo-no-text</title><g id="Layer_2" data-name="Layer 2"><g id="Ebene_1" data-name="Ebene 1"><path class="cls-1" d="M141.09,295.59l2,.25c-.64-.35,2.34,0-2.49-.38Z"/><path class="cls-1" d="M145,289.58c-2.67.07-2.13.25-.62.56L147,290C146.47,289.78,144.17,289.68,145,289.58Z"/><path class="cls-1" d="M141.93,290.59l1.35-.07A2.66,2.66,0,0,0,141.93,290.59Z"/><path class="cls-1" d="M146.15,290.38l-2.87.14c.38.13.41.36,1.32,0C144.36,290.68,144.93,290.49,146.15,290.38Z"/><path class="cls-1" d="M146.54,295.06c-1.32,0-2.27,0-2.86,0s-.83,0-.74.11a3.71,3.71,0,0,0,1.25.27c.73.07,1.78.13,3.12.17C145.74,295.37,143.75,295.18,146.54,295.06Z"/><path class="cls-1" d="M121.83,288.3l-.28-.05A.28.28,0,0,0,121.83,288.3Z"/><polygon class="cls-1" points="121.62 288.95 123.13 289.08 122.01 288.84 121.62 288.95"/><path class="cls-1" d="M128.69,291.69c-.18-.06-.17-.09-.18-.13C128.12,291.57,128,291.58,128.69,291.69Z"/><path class="cls-1" d="M123.72,289.75l-.17-.13C123.46,289.61,123.53,289.67,123.72,289.75Z"/><polygon class="cls-1" points="177.02 292.01 177.17 291.96 176.97 291.99 177.02 292.01"/><path class="cls-1" d="M172.3,293.27A12.82,12.82,0,0,1,177,292l-1.82-.92Z"/><polygon class="cls-1" points="147.26 0.84 147.26 0.82 147.26 0.91 147.26 0.84"/><path class="cls-1" d="M147.26.43v0Z"/><path class="cls-1" d="M147.26,1.52v0Z"/><polygon class="cls-1" points="147.26 1.25 147.26 1.38 147.26 1.33 147.26 1.25"/><path class="cls-1" d="M147.26,1.3v0Z"/><path class="cls-1" d="M147.26.63v0Z"/><path class="cls-1" d="M147.26,1.49V1.43h0v.06Z"/><polygon class="cls-1" points="147.26 0.26 147.26 0.79 147.26 0.61 147.26 0.26"/><path class="cls-1" d="M147.26.67V0c0,.05,0,.3,0,.53C147.25.4,147.25.43,147.26.67Z"/><path class="cls-1" d="M147.25.85v0Z"/><path class="cls-1" d="M147.25,1.25v.36C147.26,1.48,147.25,1.27,147.25,1.25Z"/><path class="cls-1" d="M147.26,1.54v0Z"/><path class="cls-1" d="M147.25,1.29v0Z"/><path class="cls-1" d="M147.26,1.28v0Z"/><path class="cls-1" d="M147.25,1.6V1.48h0V1.6Z"/><path class="cls-1" d="M147.25,1.55v0Zm0-.2v0h0Z"/><polygon class="cls-1" points="147.25 1.27 147.25 0.81 147.25 1.46 147.25 1.27"/><polygon class="cls-1" points="147.25 0.93 147.25 1.17 147.25 1.32 147.25 0.93"/><path class="cls-1" d="M147.23,1.65v0Z"/><polygon class="cls-1" points="147.23 0.83 147.23 0.85 147.23 1.28 147.23 0.83"/><path class="cls-1" d="M147.23,1.32h0v0Z"/><path class="cls-1" d="M147.26,5.79v0Z"/><path class="cls-1" d="M147.25,1.17v0Z"/><polygon class="cls-1" points="147.25 1.13 147.25 1.16 147.25 1.2 147.25 1.13"/><polygon class="cls-1" points="147.24 5.87 147.24 5.85 147.24 5.84 147.24 5.87"/><polygon class="cls-1" points="147.25 1.75 147.25 1.81 147.25 1.82 147.25 1.75"/><polygon class="cls-1" points="147.23 1.41 147.23 1.37 147.23 1.41 147.23 1.41"/><path class="cls-1" d="M147.22,1.36v0Z"/><path class="cls-1" d="M147.25.92v0Z"/><path class="cls-1" d="M147.25,1.11v0Z"/><path class="cls-1" d="M147.24,5.78v0Z"/><polygon class="cls-1" points="147.26 6.31 147.26 6.52 147.26 6.18 147.26 6.31"/><path class="cls-1" d="M147.23.36v0Z"/><path class="cls-1" d="M147.24.1v0Z"/><path class="cls-1" d="M101.43,267.52c-.6-1.15-.74-.56-.91-.69C101.67,268.7,101.5,267.42,101.43,267.52Z"/><path class="cls-1" d="M119.16,286.65c-1,0-2-.08-2.93-.12l1.27.11C118.06,286.64,118.6,286.67,119.16,286.65Z"/><path class="cls-1" d="M110.24,284.23a45.48,45.48,0,0,0-5.12-.91,29.94,29.94,0,0,1,5.3,1.67C111.66,285,109,284.06,110.24,284.23Z"/><path class="cls-1" d="M105.12,283.32a23.74,23.74,0,0,0-2.51-.51C103.39,283,104.22,283.15,105.12,283.32Z"/><path class="cls-1" d="M120.47,288.06l0,0c-1.21-.22-2.05-.38-2.4-.48C118.33,287.65,119.06,287.8,120.47,288.06Z"/><path class="cls-1" d="M107.48,284.75a22.28,22.28,0,0,1-4.28-1.07,44.82,44.82,0,0,0,5,1.66C108.5,285.28,109.29,285.25,107.48,284.75Z"/><path class="cls-1" d="M113.74,286.55l-.29,0C113.62,286.59,113.76,286.63,113.74,286.55Z"/><polygon class="cls-1" points="88.41 277.98 88.5 277.94 88.21 277.8 88.41 277.98"/><path class="cls-1" d="M108.49,285.5a10.68,10.68,0,0,0,2.79.63c-1-.23-2-.48-3-.79C108.11,285.37,108.08,285.4,108.49,285.5Z"/><path class="cls-1" d="M100.38,282.51a9.57,9.57,0,0,0-2.08-1C98.91,281.88,99.63,282.18,100.38,282.51Z"/><path class="cls-1" d="M113.05,286.3l.19,0C112.84,286.14,112.89,286.19,113.05,286.3Z"/><path class="cls-1" d="M111.28,286.13a19.17,19.17,0,0,0,2.17.38,2.92,2.92,0,0,1-.4-.21C112.37,286.2,111.82,286.2,111.28,286.13Z"/><path class="cls-1" d="M85.32,277.2c.87.64,6,3.25,3.46,2.52a13.43,13.43,0,0,1-4.65-2.55c1.28,1.21-4.91-1.71-4.47-.67l3.3,1.4c0,.14-1.23-.3-.39.25a5.12,5.12,0,0,1,2.31.64,22.29,22.29,0,0,1,4,2c2.85,1,1.57-1.05-.47-2.77C88.26,278.1,88.19,278.25,85.32,277.2Z"/><path class="cls-1" d="M88.5,277.94c1.85.86,3.7,1.75,5.62,2.48l-.42-.1,1.18.41a23.73,23.73,0,0,1-3.78-2.13C89.14,277.92,88.68,277.88,88.5,277.94Z"/><path class="cls-1" d="M100.5,282.58h0c.23.14.3.19,0,.07l-.12,0a.75.75,0,0,1-.31.07c-1.59-.63-.22-.19.31-.07l.08,0h0c-1.91-.52-3.76-1.2-5.62-1.85.57.26,1.22.53,2.05.85l1.41.55,1.78.57a13.69,13.69,0,0,1-2.19-.2c-.65-.09-1,0-.2.52,3.49,1.18,2.56.49,4.7,1-5.65-1.8,1.69.32-2.28-1.29,1.12.31,2.12.62,3,.92-1-.39-1.94-.78-2.82-1.17Z"/><path class="cls-1" d="M110.24,287.56l-.06-.25a6.8,6.8,0,0,0,2.16.48c.26,0,.22-.15.41-.19-1.64-.27-3.23-.73-4.85-1.1Z"/><polygon class="cls-1" points="85.71 276.64 87.78 277.38 88.57 277.23 85.71 276.64"/><polygon class="cls-1" points="80.8 273.81 82.02 274.61 82.42 274.36 80.8 273.81"/><path class="cls-1" d="M129.24,2.62l1.47-.31C130,2.44,129.57,2.54,129.24,2.62Z"/><path class="cls-1" d="M118.54,4.32l-.22.24C118.79,4.36,119,4.25,118.54,4.32Z"/><path class="cls-1" d="M5.19,146.68c.42-2.11,1-4.42.6-4.19l-.45.63A24.46,24.46,0,0,1,5.19,146.68Z"/><path class="cls-1" d="M43.45,47.8c-.18.11-.35.24-.53.36l-.69,1.34Z"/><path class="cls-1" d="M45.47,43.65c-.53.37-1.26.94-2.26,1.78Z"/><path class="cls-1" d="M111,23.22l-.7,1.51C111.91,22.81,111,23.51,111,23.22Z"/><path class="cls-1" d="M32.57,232.46c-.92-1.59-1.69-2.8-2.41-3.85C31.22,230.53,32,232.2,32.57,232.46Z"/><path class="cls-1" d="M27.28,224.22l.43.86c.8,1.07,1.51,2.2,2.45,3.53A23,23,0,0,0,27.28,224.22Z"/><path class="cls-1" d="M59,204.06c.07.14.16.29.22.42S59.14,204.31,59,204.06Z"/><path class="cls-1" d="M64.24,265.78a1,1,0,0,1,.56.14C64.54,265.79,64.32,265.71,64.24,265.78Z"/><path class="cls-1" d="M18.2,213.71l-.05-.11C18.26,214,18.24,213.94,18.2,213.71Z"/><path class="cls-1" d="M62,262q-.55-.54-1.29-1.17C60.89,261.05,61.28,261.41,62,262Z"/><path class="cls-1" d="M61.89,261.69a9.62,9.62,0,0,0,.92.74C63,262.46,62.87,262.38,61.89,261.69Z"/><path class="cls-1" d="M59,259.46c.61.47,1.16.93,1.69,1.39-.19-.19-.26-.28-.2-.25Z"/><path class="cls-1" d="M54.49,98.21l-.19.24C53.79,99.73,54.06,99.19,54.49,98.21Z"/><polygon class="cls-1" points="5.62 110.62 5.59 110.78 5.67 110.58 5.62 110.62"/><path class="cls-1" d="M6.68,105.68a13.7,13.7,0,0,1-1,4.9l1.65-1.26Z"/><path class="cls-1" d="M124.45,3.4l.62-.1A5.77,5.77,0,0,0,124.45,3.4Z"/><path class="cls-1" d="M54.57,196.51c-.08-.18-.17-.36-.24-.54C54.38,196.09,54.46,196.28,54.57,196.51Z"/><path class="cls-1" d="M43.22,45.73a.65.65,0,0,1,.49-.13C43.94,45.27,43.88,45.19,43.22,45.73Z"/><polygon class="cls-1" points="111.12 22.93 111.02 23.04 110.99 23.22 111.12 22.93"/><path class="cls-1" d="M9.06,197.24a11,11,0,0,1-.37-1.86C8.56,195.36,8.61,195.81,9.06,197.24Z"/><path class="cls-1" d="M71.83,268.3,69.56,267a16.49,16.49,0,0,1,2.14,1.56C71.7,268.43,71.42,268.09,71.83,268.3Z"/><path class="cls-1" d="M93.62,282.76c.43.1.87.33,1.29.44l0-.26C93.14,282.27,91.86,282,93.62,282.76Z"/><path class="cls-1" d="M73.57,271.27c0,.46,1.68,1.28,3.52,2.25l-.32-.18C77.58,273.15,75.57,272.21,73.57,271.27Z"/><path class="cls-1" d="M77.51,273.75c.57.3,1.13.63,1.68.94C79.51,274.61,78.53,274.28,77.51,273.75Z"/><path class="cls-1" d="M56.78,258.1c.7.7.81,0,1.14.45.6.13-.8-.72-1.73-1.32S54.67,256.45,56.78,258.1Z"/><polygon class="cls-1" points="72.73 272.22 74.35 273.26 73.95 272.46 72.73 272.22"/><path class="cls-1" d="M63.42,265.89c0-.1.38.11.82.38a30.38,30.38,0,0,0-3.46-2.44C61.65,264.53,62.54,265.2,63.42,265.89Z"/><path class="cls-1" d="M66.48,267.76c-.47-.34-1.5-1-2.24-1.49A23,23,0,0,0,66.48,267.76Z"/><polygon class="cls-1" points="67.61 269.08 70.36 271.01 69.58 270.39 67.61 269.08"/><path class="cls-1" d="M32.74,236.09c-.37-.19.17.66,1.06,1.68.63.62,1.52,1.64,1.31,1.09Z"/><path class="cls-1" d="M40,247l1.37,1.09a5.88,5.88,0,0,1-.84-1.43Z"/><path class="cls-1" d="M33.4,239.88c.35.2,2.77,3,.77.25C33.81,240,30.47,236.23,33.4,239.88Z"/><path class="cls-1" d="M10.08,191.75c-.41-.15-.83-.29-1.22-.45.08.3.19.59.29.88Z"/><path class="cls-1" d="M.28,148.26c.21,1,.33-3.24.51-2.18-.19-2.66,0-4.05-.71-2.85C-.27,147.63.68,144.29.28,148.26Z"/><path class="cls-1" d="M.79,146.08q0,.63.12,1.35A11.43,11.43,0,0,0,.79,146.08Z"/><path class="cls-1" d="M98.27,260.15c-.16-.31-.32-.61-.47-.93q.38,1.41.81,2.82C98.49,261.41,98.36,260.78,98.27,260.15Z"/><path class="cls-1" d="M95.09,9.86l-.14.23a10.45,10.45,0,0,0,2.37-.63Z"/><polygon class="cls-1" points="132.72 1.61 132.06 1.65 133.35 2.13 132.72 1.61"/><path class="cls-1" d="M128.63,11.32c.56-.21,1.15-.5,1.74-.77s1.22-.46,1.79-.65c-1.22.47-2.25.65-2.89.86S128.34,11.05,128.63,11.32Z"/><path class="cls-1" d="M117.85,189.08c.16-.44.28-.89.42-1.33C118.05,188.37,118,188.79,117.85,189.08Z"/><path class="cls-1" d="M113.43,198.15l.06.31C113.62,198,113.64,197.79,113.43,198.15Z"/><path class="cls-1" d="M110.34,276.25c.1.18.2.37.31.55.43.29.89.51,1.27.73A17.8,17.8,0,0,1,110.34,276.25Z"/><path class="cls-1" d="M106.47,273.9a16.42,16.42,0,0,0,1.54,2.39C107.44,275.53,107,274.71,106.47,273.9Z"/><path class="cls-1" d="M120.4,194.67c.3-.85.37-1.24.27-1.25C120.37,194.29,120.23,194.79,120.4,194.67Z"/><path class="cls-1" d="M185.18,6.32l.44.17C185.68,6.45,185.48,6.39,185.18,6.32Z"/><path class="cls-1" d="M99.29,77.11a6.49,6.49,0,0,0,.41.8C99.55,77.64,99.42,77.37,99.29,77.11Z"/><path class="cls-1" d="M108.3,276.32a.73.73,0,0,1-.08-.5C107.9,275.57,107.82,275.63,108.3,276.32Z"/><path class="cls-1" d="M101.65,215.2c-.49.58-.93,1.19-1.4,1.79l0,.27A10.56,10.56,0,0,0,101.65,215.2Z"/><polygon class="cls-1" points="118.49 185.77 118.25 186.33 119.22 185.48 118.49 185.77"/><path class="cls-1" d="M146.66,44.48v0Z"/><path class="cls-1" d="M146.69,44.53v0Z"/><path class="cls-1" d="M146.69,44.44v.25c0,.16,0,.2,0,.32C146.68,44.88,146.69,44.71,146.69,44.44Z"/><path class="cls-1" d="M146.71,43.92V44C146.7,44.1,146.7,44.12,146.71,43.92Z"/><path class="cls-1" d="M146.7,44c0-.12,0-.35,0,.08V44Z"/><path class="cls-1" d="M146.7,44.14c0-.16,0-.25,0-.5A4.74,4.74,0,0,0,146.7,44.14Z"/><path class="cls-1" d="M146.71,44.21v.18c0,.1,0,.2,0,.42C146.69,44.66,146.7,44.41,146.71,44.21Z"/><path class="cls-1" d="M146.71,44.21V44A.92.92,0,0,0,146.71,44.21Z"/><polygon class="cls-1" points="146.7 44.65 146.69 44.83 146.68 45.18 146.7 44.65"/><path class="cls-1" d="M146.69,44.91c0,.13,0,.1,0-.14,0,.29,0,.49,0,.67C146.67,45.39,146.68,45.14,146.69,44.91Z"/><path class="cls-1" d="M146.69,44.91c0-.13,0-.25,0-.32C146.7,44.75,146.7,44.85,146.69,44.91Z"/><path class="cls-1" d="M146.72,44c0,.09,0,.33,0,.43l0-.43Z"/><polygon class="cls-1" points="146.72 44.02 146.72 44.03 146.72 44.06 146.72 44.02"/><path class="cls-1" d="M146.72,44Z"/><path class="cls-1" d="M146.72,43.79v-.4C146.73,43.51,146.72,43.67,146.72,43.79Z"/><path class="cls-1" d="M146.72,44.19c0-.19,0-.2,0-.23v-.13C146.73,44,146.72,44.17,146.72,44.19Z"/><path class="cls-1" d="M146.72,44.07v0Z"/><polygon class="cls-1" points="146.74 43.96 146.75 43.88 146.74 43.95 146.74 43.96"/><path class="cls-1" d="M146.72,44.39v-.24C146.72,44.29,146.71,44.5,146.72,44.39Z"/><path class="cls-1" d="M146.72,44.16v0C146.71,44.27,146.72,44.23,146.72,44.16Z"/><path class="cls-1" d="M146.74,43.84v0c0,.07,0,.23,0,.54,0-.2,0-.34,0-.48v-.11Z"/><polygon class="cls-1" points="146.73 44.17 146.71 44.63 146.74 43.98 146.73 44.17"/><polygon class="cls-1" points="146.74 44.12 146.72 44.51 146.73 44.27 146.74 44.12"/><path class="cls-1" d="M146.84,44.11c0-.1,0-.2,0-.33v0a1.66,1.66,0,0,1,0,.24l0-.24h0v-.12c0,.4-.08.69-.08.72s0-.19,0-.35h0a4.76,4.76,0,1,1-.06.49l.06-.43Z"/><path class="cls-1" d="M146.79,44c0,.17,0,.24,0,.26C146.79,44,146.82,43.6,146.79,44Z"/><path class="cls-1" d="M146.78,44.22v0C146.76,44.4,146.75,44.52,146.78,44.22Z"/><path class="cls-1" d="M146.65,43.49v0Z"/><path class="cls-1" d="M146.74,44.32v0Z"/><polygon class="cls-1" points="146.75 44.24 146.74 44.31 146.75 44.28 146.75 44.24"/><polygon class="cls-1" points="146.77 44.37 146.77 44.33 146.77 44.38 146.77 44.37"/><polygon class="cls-1" points="146.61 43.83 146.6 43.65 146.6 43.68 146.61 43.83"/><path class="cls-1" d="M146.84,44.14v0c0,.11,0,0,0-.19h0Z"/><polygon class="cls-1" points="146.81 43.8 146.81 43.76 146.8 43.9 146.81 43.8"/><path class="cls-1" d="M146.9,43.66l0,.09c0,.12,0,.18,0,.19Z"/><polygon class="cls-1" points="146.9 43.59 146.88 43.78 146.88 43.76 146.9 43.59"/><path class="cls-1" d="M146.8,44v0c0,.12,0,.25,0,.32Z"/><path class="cls-1" d="M146.8,44c0-.21,0-.37,0-.21s0,.14,0,.32Z"/><path class="cls-1" d="M146.74,44.24l0,.29v-.29Z"/><path class="cls-1" d="M146.77,44c0,.09,0,.22,0,.36C146.71,44.84,146.79,43.7,146.77,44Z"/><polygon class="cls-1" points="146.67 44.24 146.66 43.9 146.66 44.03 146.67 44.24"/><path class="cls-1" d="M119.4,287.43l1,.61,1.12.21A5.82,5.82,0,0,0,119.4,287.43Z"/><path class="cls-1" d="M257,150c-.08-1.46-.56-.66-.45-.69C256.52,150.19,257,149.88,257,150Z"/><polygon class="cls-1" points="254.78 135.09 254.98 135.32 254.31 133.29 254.78 135.09"/><path class="cls-1" d="M252.85,125.14l.58,2a10.87,10.87,0,0,1,.31,1.93l-.09.41.74,1c-.51-2.86-1.75-6.42-2-8.45A7,7,0,0,0,252.85,125.14Z"/><path class="cls-1" d="M252.29,116c-.09-.27-.22-.66-.41-1.31-.13.51-.71-1.41.44,1.62C252.3,116.14,252.3,116.09,252.29,116Z"/><path class="cls-1" d="M250.91,111.5c0-.43-.55-2-.22-1.46-.81-1.76-.82-1.33-.68-.21Z"/><path class="cls-1" d="M249.33,109.23a1.35,1.35,0,0,0-.44-.87Z"/><path class="cls-1" d="M249.74,110.08c-.26-.09.08.22.53,1l-.94-1.84C249.32,109.52,249.11,109.63,249.74,110.08Z"/><path class="cls-1" d="M250.26,112.86c1.19,3.35,1.51,2.71.3-.66C250.74,113.24,251.07,114.55,250.26,112.86Z"/><path class="cls-1" d="M252.12,124a8.88,8.88,0,0,1-.31-1.51c-.11-.57-.22-1-.32-1,0,.46.12.91.14,1.38Z"/><path class="cls-1" d="M245.46,99.94l.77,1.16c-.22-.68-.74-1.93-.58-2.12C245.46,98.94,245.57,99.73,245.46,99.94Z"/><path class="cls-1" d="M245.46,99.94l-1.15-1.73C245.1,99.87,245.36,100.11,245.46,99.94Z"/><polygon class="cls-1" points="249.75 111.3 247.79 107.74 248.03 108.34 249.75 111.3"/><path class="cls-1" d="M241.22,91.32l.64.69c.31.27.6.55.9.84C242.27,92.32,241.74,91.83,241.22,91.32Z"/><path class="cls-1" d="M239.4,87a22.47,22.47,0,0,0-2.59-2.79A15.41,15.41,0,0,1,239,87.6C239.74,88.15,238.72,86.34,239.4,87Z"/><path class="cls-1" d="M235.46,82.92l1.35,1.29A8.26,8.26,0,0,0,235.46,82.92Z"/><path class="cls-1" d="M242.27,93.46l0,.92.39.71A3.18,3.18,0,0,0,242.27,93.46Z"/><path class="cls-1" d="M242.3,94.41v0l-.84-1.54C241.57,93,241.82,93.51,242.3,94.41Z"/><path class="cls-1" d="M242.79,95.27l-.1-.18Z"/><path class="cls-1" d="M245,102.44c.64.66.25-.7,1.31.81C245.61,102.23,244.2,100.13,245,102.44Z"/><path class="cls-1" d="M243.76,98.37c.08-.09.05-.52.42,0-.42-.66-.9-1.29-1.37-1.93C243.14,97.05,243.48,97.69,243.76,98.37Z"/><polygon class="cls-1" points="242.17 95.54 242.81 96.4 242.45 95.68 242.17 95.54"/><path class="cls-1" d="M237.32,86.22a22.36,22.36,0,0,1-2-2.45c.67,1.06,1.36,2.16,2.07,3.17C237.6,87,238.1,87.31,237.32,86.22Z"/><path class="cls-1" d="M239.8,90.16l-.13-.16C239.71,90.13,239.75,90.22,239.8,90.16Z"/><polygon class="cls-1" points="228.01 74.9 228.08 75.09 228.17 75.07 228.01 74.9"/><path class="cls-1" d="M237.44,87.15a6.46,6.46,0,0,0,1.28,1.6c-.41-.58-.88-1.16-1.33-1.81C237.29,86.91,237.25,86.92,237.44,87.15Z"/><path class="cls-1" d="M233.33,80.49c.23.44.51.93.81,1.44A4.49,4.49,0,0,0,233.33,80.49Z"/><path class="cls-1" d="M239.6,89.67l.09.1C239.6,89.46,239.59,89.52,239.6,89.67Z"/><path class="cls-1" d="M239.6,89.67a9.92,9.92,0,0,0-.88-.92c.33.47.65.89.95,1.25A1.63,1.63,0,0,1,239.6,89.67Z"/><path class="cls-1" d="M222.14,72.56c.65.5,1.3,1,1.92,1.56-.05.11-.79-.41-.4.15.39-.16,2.33,1.36,3.43,3.18,1.55,1.38,1.71-.53,1-2.36-.17.07-.29.17-1.93-1.24.37.69,2.86,3.83,1.38,2.74-2.09-1.92-1.48-1.78-2.28-2.93.23.59-.52.06-1.33-.5S222.17,72.09,222.14,72.56Z"/><path class="cls-1" d="M230.76,78.22l.61.64a17.7,17.7,0,0,1-1.59-2.69c-1.1-1-1.46-1.11-1.61-1.1,1,1.07,1.88,2.23,2.83,3.34Z"/><path class="cls-1" d="M232.08,81.45c1.6,2,1.39,1.21,2.49,2.33-2.65-3.26.93.81-.73-1.74.56.61,1,1.19,1.48,1.73-.42-.63-.82-1.25-1.18-1.84l0,.09,0,0h0c.07.17.08.24,0,.06l-.06-.06a.51.51,0,0,1-.25-.06c-.67-1,0-.22.25.06h.08v0c-.93-1.06-1.81-2.16-2.81-3.16.55.71,1.24,1.58,2.49,3.12C233.09,81.7,231.65,80.13,232.08,81.45Z"/><path class="cls-1" d="M243.15,100.87c0-.14,0-.15,0-.17C243,100.49,242.93,100.41,243.15,100.87Z"/><path class="cls-1" d="M243.74,100.66l-.19-.23a23.83,23.83,0,0,1-.76-2.43c-.12-.42-.2-.74-.23-.92a7.23,7.23,0,0,0,.06,2.14,3.84,3.84,0,0,1,.85,1.29c.27.82-.19.09-.29.19C243.54,101.18,244.38,102.42,243.74,100.66Z"/><path class="cls-1" d="M242.56,97.08l0-.15S242.55,97,242.56,97.08Z"/><path class="cls-1" d="M237.09,89.28l.14-.2c1,1.71,1,1.21,1.26,1.32l-1-1.41-1.08-1.37Z"/><polygon class="cls-1" points="226.69 73.45 227.9 74.46 228.55 74.5 226.69 73.45"/><polygon class="cls-1" points="224.06 70.36 224.7 71.19 225.1 71.03 224.06 70.36"/><path class="cls-1" d="M160.87,195.33l-.23,1A10,10,0,0,0,160.87,195.33Z"/><path class="cls-1" d="M163.09,188.23,163,188C163,188.36,163,188.52,163.09,188.23Z"/><path class="cls-1" d="M133.66,60.75l.4,1.3c.15.41.31.79.45,1.12.28.63.42.87.56.69l.09-.62a13.25,13.25,0,0,1-.93-1.29A10.57,10.57,0,0,1,133.66,60.75Z"/><path class="cls-1" d="M164.79,128.15c0-.14,0-.29.07-.44l-.55-.93C164.45,127.2,164.61,127.66,164.79,128.15Z"/><path class="cls-1" d="M166.71,129c0,.66,0,1.32,0,2A15.47,15.47,0,0,0,166.71,129Z"/><path class="cls-1" d="M143.13,231.81,142.8,233C143.89,231.5,143.23,232.05,143.13,231.81Z"/><path class="cls-1" d="M185.58,46.1a19.63,19.63,0,0,0-3-1.33l1.83,1C184.93,46,185.32,46.2,185.58,46.1Z"/><path class="cls-1" d="M157.37,191.17c-.1.6-.09.88,0,.89C157.49,191.44,157.51,191.07,157.37,191.17Z"/><path class="cls-1" d="M179,43.61c.21.1.42.18.63.29a30.68,30.68,0,0,1,3,.87A9.21,9.21,0,0,0,179,43.61Z"/><path class="cls-1" d="M237.56,200.66l.2-.25C237.73,200.35,237.65,200.48,237.56,200.66Z"/><path class="cls-1" d="M254.91,164.21a12.42,12.42,0,0,0,.2-1.76C255.08,162.88,255,163.56,254.91,164.21Z"/><path class="cls-1" d="M213.09,63.26a.66.66,0,0,1,.42.07C213.32,63.24,213.17,63.2,213.09,63.26Z"/><path class="cls-1" d="M169.1,43.88l-.08,0C169.28,44,169.24,44,169.1,43.88Z"/><path class="cls-1" d="M211.86,60.16c-.27-.26-.58-.54-.94-.83C211.07,59.48,211.35,59.73,211.86,60.16Z"/><path class="cls-1" d="M211.82,59.88l.67.53C212.63,60.42,212.57,60.32,211.82,59.88Z"/><path class="cls-1" d="M210.78,59.15l-1.11-.77c.46.32.87.64,1.25.95C210.79,59.2,210.73,59.13,210.78,59.15Z"/><path class="cls-1" d="M180.38,248.68l.21,0C181.42,248.17,181,248.33,180.38,248.68Z"/><polygon class="cls-1" points="150.9 79.44 150.83 79.35 150.88 79.49 150.9 79.44"/><path class="cls-1" d="M152.77,82.36a7.33,7.33,0,0,1-1.89-2.87l-.55,1.58Z"/><path class="cls-1" d="M254.07,154.92c-.51,1-1.09,2.21-1.55,2a9.71,9.71,0,0,1-.64,4.66,16.14,16.14,0,0,0-.79,5.85c-.35.84-.16-.81-.47-.38a8.69,8.69,0,0,1-.6,4.54l0-.27c-.35,1.57-.63,2.93-1,4.16s-.76,2.34-1.15,3.48-.89,2.27-1.38,3.55-1.12,2.69-1.85,4.34l.64-.32a13.39,13.39,0,0,1-1.27,2.3c0,1.94,1.65-4.05,1.78-2.24a8.29,8.29,0,0,0-1.35,2.28c-.52,1-1.09,2.25-1.64,3.47a28.23,28.23,0,0,1-1.72,3.28,4.72,4.72,0,0,1-1.45,1.76c-1.16,2.08.84-.35-.35,1.73l-.57.41,0,.71c-.83,1.34-1.54,1.84-1.79,1.76a13.9,13.9,0,0,0,.66-1.34,32,32,0,0,0-2,3.12c-.54.94-1,1.79-1.26,2.18l1.27-1.69c-.41.71-.83,1.44-1.28,2.16l-1.48,2.14c-.51.72-1,1.47-1.54,2.18l-1.65,2.13c-1.07,1.45-2.25,2.79-3.34,4.15s-2.18,2.63-3.15,3.89l.49-.2a16.21,16.21,0,0,1-3.06,3.19c-.4.32-.82.65-1.36,1.14l-2.21,2,.11-.17a16.53,16.53,0,0,1-2.77,2.82c.88-1-2.29,1.18-1.1-.14-3.82,3.59-1.77,1.92-4.08,4.63l-.87.17a9.08,9.08,0,0,1-2.91,2.74c1.66-1.46-1.73.45.08-1.23a21.46,21.46,0,0,0-3.2,1.81c-.9.57-1.67,1.11-2.36,1.61a16.86,16.86,0,0,1-1.91,1.26,4.86,4.86,0,0,1-2,.53c-.89,1,.24.62,1.46,0s2.44-1.43,1.88-1c1.22-.32-1.44,1.76-3.08,2.44a10.16,10.16,0,0,1-2.74.68,15.56,15.56,0,0,0-4.58,1.43c.41-.18.4-.27.81-.45-1.61.48-2.88,1.59-4.93,2-.84,1-2.51.87-2.55,1.74,1.28-.51,2.55-1,3.78-1.62-.52.27-1,.57-1.52.9s-1.06.62-1.65.93a13.91,13.91,0,0,1-4.49,1.6,18.25,18.25,0,0,1,2-1.13c-1.12.16-2,.79-3.2.9,0-.43,1.23-.81,2.66-1.28a23.75,23.75,0,0,0,4.17-1.81c-1.24.08-4.23,2.1-3.34.88a5,5,0,0,1-2.94,1.41,15.14,15.14,0,0,0-3.94,1.38l.08-.5a14.47,14.47,0,0,1-2.21.84l1.39-1a9.81,9.81,0,0,1-3.44.84,13.67,13.67,0,0,0-3.43.5c4.78-1,1.18.35,3.29.29-5.84,1.78-3.64-.48-10.25.66.9-.12,3.42-.2,2.05.25a16.38,16.38,0,0,1-3.8-.1c-4.43.53.73.42-1.14.89-1.56-.4-2.17.4-4.14.69l0-.48c-2.56,0-2.89.21-3.16.47s-.54.57-2.6.17a12.57,12.57,0,0,0,1.77-.55c-.34,0-.7,0-1,0s-.69,0-1,0c.17-.15.34-.32.5-.48a5.74,5.74,0,0,1-2.47-.35,7.1,7.1,0,0,1-2.06-1.29c.09.28-.08.42-.5.34a3.63,3.63,0,0,1-1.75-1.18c-.36-.61-.13-.55-.08-.58s-.07-.16-.87-1.32a3.52,3.52,0,0,1,1.74,1.84c.21,0,.64.21.84.16-.39-.57-1-1.19-1.43-1.83a9.77,9.77,0,0,1-1.1-1.69c.14.34.31.73.38,1a11.47,11.47,0,0,1-2-3.48c.08-.66.28-.17.53.27a8.18,8.18,0,0,1-.57-2.48c.42.31.73.25,1.11,1.75a10.25,10.25,0,0,1-.39-3.5,7.46,7.46,0,0,0,.54-.84c.23-.31.41-.52.41-.29.41-.85.75-2,1.41-3.19a25.84,25.84,0,0,1,2.81-4.3,5.17,5.17,0,0,1,.53-1.15c.9-1.3,1.84-2.48,2.75-3.77a23.51,23.51,0,0,0,2.45-4.48c.56-.5,1.15-1,1.68-1.51,1.27-2.67-2.15,2.11,0-2.33,1.46-3.15,1.15-.85,1.9-1.84.27-.83.52-2,1-3.32a19.22,19.22,0,0,1,2-4,18.58,18.58,0,0,1-1.14,2.64c.48-.67,1-1.35,1.39-2-.64,2.95-1.84,4.76-.32,2.93-1-.84,3.82-8.73,2.6-9.6l.86-1.38c-.18.42-.13.52-.31.94,1.76-2.68,0-2.5,1.46-6.21.56-1.28,1.07-2.14.91-1.19.26-1,.43-2.05.63-3.07.24-.72.39-.63.27-.09.39-1.4.82-2.8,1.15-4.21l0,0c0-.71,0-2.28.09-3,.5-1.11,0,.62.23.37.11-.88.25-1.74.33-2.62.29-.48.4-.17.38.48a13.07,13.07,0,0,1-.48,2.5,3.25,3.25,0,0,0,1.1-2.48,13,13,0,0,1,1.06-4.71l-.38,2.47c1.11-1.4,1.28-3.36,2.22-6.07-.18.31-.73,1.65-1.21,2.54s-.93,1.34-.8-.09A10.84,10.84,0,0,0,166,174c.46.06.67-1.43.88-3.3l.62.22c.1-2.05-.25-1.94-.37-3.16.39-2.24.88-2.66,1.36-3.15.46-3.62-1,2.42-.73-1.88.58-3,.37-5.14.19-8.75.27-2.1.39.39.59-.36l-.48-1.89c0-.46.18-.31.26-.23-.17-1.58-.64-.14-.77-2.61-.32-.34-.11-1.6.11-3.17a11.36,11.36,0,0,0-.09-5c.14-.76.41.34.65.1a37.85,37.85,0,0,0-1.62-7l.13-3c-.26,2.2-1.08-.48-1.91-2.78-.13.79-.24,1.45-.27,1.89l-.87-3.71c0-.47.31-.12.66.45l-.25-.66c0-1.38.5-.75,1,.17-.06.48-.13.95-.19,1.42.51.88,1.06,1.7,1.41,1.46a7,7,0,0,1-.35-1.23c.14.23.25.38.3.25s-.15-.51-.4-1.11l.59-1-.31-.17c-.07-1.69-.29-3.36-.42-5-.65-1.72-1.48-3.27-2.28-5.08s-1.68-3.85-2.56-6.55c.87,1.22.9.07,1.52,0-.24,1.68,1.45,4.2,1.93,7.15-.28-1.53.09-1.26.27-.9-.29-.84-.57-1.68-.88-2.52l-1-2.48c.52,0,.07-1.19-.08-2.58-.64,1.27-1.8-3.59-2.73-5.54.28-.24.76.15,1.46,2.68a5,5,0,0,0-1.21-3.09,5.5,5.5,0,0,1-1.39-3c.23.6.29.94.54,1.12a14.29,14.29,0,0,1-1.12-2.81c-.27-1-.44-1.64-.13-1.3l.24.59c-1.39-4-5-11.95-6.2-12.08a3.18,3.18,0,0,1,1.44.2c-2-1.85-3.94-3.68-6-5.37,1,.23,1.25-2.86,3.32,0a17.47,17.47,0,0,0-2.17-3.84c.25.66-.08,2-.59,1.23-.57-2.66-.53-1.76-1.58-4.86.4,1-1.17.58-2-.83.27.13.88-.72,1.29-.27-1-1-2.12-1.87-3.17-2.79.73.73.9-.38.65-1.32,0,.24-.45-.5-1-1.41s-1.32-1.92-1.69-2.33l.8,1.55a10.4,10.4,0,0,0-3.25-3.27,5.81,5.81,0,0,1-2.75-3.39c.42.47,1.69.62,1.26-1.27a7.55,7.55,0,0,1-2-2.75,8.24,8.24,0,0,1-.15-5.85c.22-.21.45-.41.67-.6a14.36,14.36,0,0,1,1.66-3,16.33,16.33,0,0,0-1.13,5.07,13.57,13.57,0,0,0,.76,5.16,2.79,2.79,0,0,1,.28-1,10.56,10.56,0,0,0,.26-1.48c.23-.34.27,0,.28.42s0,1,0,1.32a10.5,10.5,0,0,1,1.34-4.39c-.35,0-.1-.95.35-1.79s1-1.6.79-1.74a10.74,10.74,0,0,0-2.29,4.89c-.34,0-.61-.91-.32-2.28a7.29,7.29,0,0,1,2.94-4.3c.5-.17.5.19.44.58s-.17.87-.07.93a4.48,4.48,0,0,1,1.4-1.27,4,4,0,0,1,1.65-.68l-.64.41-.6.46c1.49-.44,2.4-1.46,4.29-1.38,0,.12,0,.23,0,.32v0l0-.34h0c0,.08,0,.21,0,.31v-.31h0a.79.79,0,0,1,0,.16v-.16h0c0,.06,0,.12,0,.41,0-.21,0-.33,0-.41h0c0,.11,0,.29,0,.57v-.57h0v0h0v0h0c0,.11,0,.28,0,.46v-.46h0v0h0v.38s0-.24,0-.38h0v0h0v0h0v0c0,.52,0,.65,0,.61v-.23c0-.16,0-.3,0-.18v.55h0v-.24h0a1.85,1.85,0,0,1,0-.25h0v-.13c0,.17,0,0,0-.16,0,.19,0,.37,0,.53,0-.17,0-.32,0-.54h0c0,.1,0,.09,0,0h0a2.61,2.61,0,0,1,0,.42c0,.61,0-.07,0,.64.05-.88,0,0,.05-.89,0,.82,0,.35-.05,1.05,0-.2,0-.39,0-.29l0-.17h0v0h0c0-.09,0-.2,0-.31s0-.24,0-.32v.1c0,.05,0,0,0-.21h0v0h0v0h0c0,.34,0,.61-.05.84v0c0,.25,0,.35,0,.16,0,.1,0-.5,0-.14l0-.28v.11l0-.29q0-.23,0-.42h0c0,.31-.06.59-.06.65l0,.21c-.06.61.05-.63.06-.78,0,.34-.07.87-.08.93h0c-.09,1,0,.23,0,.42l0-.51a2.85,2.85,0,0,0,0-.32l0-.45c0-.36,0,.32,0,.28,0,.17,0,.12,0,0-.11,1,.09-.74,0,0v-.09c0-.11,0-.23.05-.36h0l0,.17c0,.14,0,.28,0,.4,0,0,0-.15,0,0l0-.23c0-.37,0,0,0-.32h0c0,.11,0,.22,0,.32l0,.13c0-.15,0-.23.05-.31l0-.14h0l0,.14,0,.12c0-.13,0-.21,0-.26h0v0h0q0,.12,0,.27c0-.12,0-.2,0-.27a7,7,0,0,1,.82.14c1,.07,2.83.94,3,.54-1.52-.8-1.81-3.18-.73-3.73.18,0,1.46.23,2.83.51a31.4,31.4,0,0,1,3.36.93c1.54.71-2.49,1.25-1.18,1.87.07-.18,1-.34,1.33-.39,1,.24-.46.52,1.72.63.43-.63,4.41.6,1.08-.45,2.16.09,2.26.38,4.75.75-.73-.58,2.47-1.1,4.67-.9-.16.14.27.47.48.62,4.34,1,6.56,1.91,10.5,3.14.31.28,2.13,1.09,1.24,1.1a9.87,9.87,0,0,1,2.4.41c1,.72.38.47-.37.26s-1.57-.43-.8.2c.29-.37,3.25.61,5,1-.29-.75-3.84-1.68-5.66-2,.13-.4,1-.57,2.42-.49a29.78,29.78,0,0,1,5.37,1.15C192.48,50,190.38,49.86,191,50a25,25,0,0,0,5.59,2,10.27,10.27,0,0,1,4.61,2.21c1.61,1.54-.45,1-.23,1.54A17.66,17.66,0,0,1,198,54a24.36,24.36,0,0,0-2.37-1.46l2,1.29a14,14,0,0,1-3.45-1.57,14.25,14.25,0,0,0,2.16,1.35l1.73.93,2,1.14c1.35.78,2.8,1.6,4.09,2.52a34.22,34.22,0,0,1,3.51,2.55c.82.36,2.17,1.1,1.71.5L208,60.35c-.94-1.2,2.78,1.25,1.26-.08,1,.5,2,1,3.08,1.63a22,22,0,0,1,3.26,2.5l.06.82a6.2,6.2,0,0,0-2.09-1.88,12.36,12.36,0,0,1,2.18,2,5.54,5.54,0,0,0,2.41,1.85l-1.31-1.71c1.8,1.18,4.31,2.42,6.08,4.48-.46-1.29-.49-.38-1.39-2.23.67,1.73-5.18-4.59-3.77-2.13a6.77,6.77,0,0,0-.79-1.24,12.68,12.68,0,0,0-1-1A16.55,16.55,0,0,1,213.74,61c-.06.22.5.86-1.25-.59-.12,0-.36-.1-.52-.15l-.11-.1.09.09c-.1,0-.11,0,0,0a3.57,3.57,0,0,1,.75.93c-1.19-.29-4.09-2.4-5.23-2.87-1.07-.8.6.11.11-.47l-1.72-.67c.09-.47-2.61-2.56.2-1.07-.8-.52-1.59-1.05-2.4-1.55a21.57,21.57,0,0,0-4.64-2.83c-1.16-.7-3.27-1.11-2.06-.89-1.38-.59-2.74-1.21-4.15-1.71V49c-1-.46-2-.88-3.11-1.3s-2.18-.73-3.29-1.12a51.6,51.6,0,0,1-6.79-2.71,43,43,0,0,1-5.34-1.37l-.38-.49c-1.9-.29-5.53-1.68-6.44-1.36-1.85-1.44-9.18-1.72-12.53-2l-.16.5a51.18,51.18,0,0,0-7.41,0l.18.45c-.31,0-.63.07-1,.09h-.06a3,3,0,0,0,0-.33v.33h0v0l-1.13.08a18.92,18.92,0,0,0-2.79.4,12,12,0,0,0-5.72,3.08,4.39,4.39,0,0,1,1.74-1.47,10.41,10.41,0,0,0-5.2,6.38,25.7,25.7,0,0,0-1,7.78c.32,1.2.53,2,.71,2.89a2.61,2.61,0,0,0-.12-.28l.16.48a13.09,13.09,0,0,0,.48,1.65c-.14-.51-.25-1-.38-1.4a12,12,0,0,0,1.95,3.15c0,.24,0,.52-.07.74l.17.21c.52,1,.72.61.65-.1a12,12,0,0,0,1.14,1.08c-.1,1.22,2,2.32,2,3.86.7.4,3.1,4,4.25,4.72a14.07,14.07,0,0,0,2,3.21l-.24.78,2.1,2.09c.52,1.71.67,2.43-.58,1.15.66.82,1.11,1.41,1.45,1.87s.52.82.73,1.15a24.19,24.19,0,0,0,1.88,2.66l-.43,0c.6,1.1,1.89,2.74,1.91,3.57a20.74,20.74,0,0,0,1.1,3.33c.53,1.47,1.23,3.22,2,5.1s1.42,3.94,2,6a57.4,57.4,0,0,1,1.43,5.8c.76-1.67.36,3.38,1.31,3.43-.16.47,0,1.48-.58.41a29.21,29.21,0,0,1,1,4.35,12.52,12.52,0,0,0,1.07,3.47c-.2.47-.54-.7-.63-.3a3.61,3.61,0,0,1,.35,1.51c-.1.4-.33-.49-.55-1,.72,3.67,1.64,3.91,2.45,4.06a6.77,6.77,0,0,0,.79,4.2c-.16.7-.28,1.83-.7-.49,0,.33.1,1,.19,1.82s.12,1.79.21,2.72c.18,1.85.42,3.56.72,3.61a6.6,6.6,0,0,0,.16,2.19c.06,1.48.09,2.29.12,3.09s0,1.6.08,3.06l.09-.82c.77,1.14.27,2.43.31,4.79l-.08-.07c-.69,5.38.3,2.35-.64,7.63l.5-.26c.49.28.27,1.46,0,3a18.3,18.3,0,0,0-.82,4.82l.38-1.08c.23,1.74-2,4.52-2.32,6.15-.14.35-.06-.6-.06-1.11-1.22,4.26.59.66.17,3.93-.44.53-.71-.91-1.16,1.24-.41,1-.14,6.51-1.53,9.29.42-.58.85-1.16.65.37a36.65,36.65,0,0,1-1.45,4.07,9.91,9.91,0,0,0-1,4c-.15.26-.25.35-.31.34-.32,1.78-1.57,5.61-1.51,6.79-1.09.48-1.89,3.15-2.69,5.61s-1.6,4.71-2.29,4.36l-2.35,5-.08-.2a16.54,16.54,0,0,0-2.31,5.59c-.51.65-.33.06-.36,0a47.78,47.78,0,0,0-2.84,4.48,41.78,41.78,0,0,0-2,4.29l-.66.1a26.37,26.37,0,0,1-2.92,3.81c-.38.47-.75.91-1.16,1.46a14.26,14.26,0,0,0-1.23,1.86,11.45,11.45,0,0,0-1.38,4.32c-.05-.07-.11-.21-.07-.68a21.61,21.61,0,0,0-.22,5.31,17,17,0,0,0,1.31,5.25,11.75,11.75,0,0,0,2.67,3.86,4.23,4.23,0,0,0,2.74,1.34,13.16,13.16,0,0,0,4,1.39,7.13,7.13,0,0,1-1.4-.57,2,2,0,0,1-.56-.37c-.15-.18.07-.16.37-.15.63,0,1.55.15.66-.38,1.77.73,4.89,1.55,2.42,1.36l-.37-.17c-.56.36,1,.87,2.81.9s3.37,0,3.33.3c4.91-.16,9.73-.65,14.47-1.26,2.35-.43,4.71-.72,7-1.29,1.15-.26,2.3-.5,3.42-.79l3.35-1-1.23-.39c1-.31,2.06-.55,3.06-.92.85-.12,1.26.19-.93.89a6.9,6.9,0,0,0,3.53-1.76c4.33-1.22-1.36,1.38-.06.94l1.75-.67-.43.06a14,14,0,0,1,3.88-2.18c1.66-.53,1,.09,1.64-.17,0,0,.24,0,1-.42,1.23-.56,2.48-1.1,3.7-1.67-.56.08-1.14.12-1.71.17,1.51-1,3.39-1.69,1.46-1.39a14.25,14.25,0,0,0,3.35-1.2c1.43-.63,3-1.61,4.59-2.51,3.1-1.9,5.94-3.93,6.69-4.33a35,35,0,0,1,2.87-2.53c1-.85,2.08-1.7,3.29-2.64-.68.37-1.4.19.64-1.44.13,1.64,4-2.68,6.18-3.54-.91.44.42-.9,1.62-2.17s2.17-2.56.82-1.78c1.58-1.53.45.25,1.83-.76,3.17-4.19,7.85-8.56,11.3-14.13-.09-.18-.9.58-.37-.73l2.58-2.43c.61-1.14-.27-1.54,1.43-3.27-.3.22-.73.54-.36-.24a75,75,0,0,0,8.12-17.54c2.06-6.19,3.64-12.5,5.43-18.8-.59,1.69-.44.53-.28-.8-.2.85-.43-.09-.69,0,.44-1.75,1-3.5,1.31-5.29a9,9,0,0,1-.06-3.35c.08-1.4.1-2.74-.19-3l.05,1.71C255,153.14,254.55,153.92,254.07,154.92ZM165.18,125a10,10,0,0,1-.3-2.21A5.07,5.07,0,0,1,165.18,125ZM146.73,44.06v0h0v0Zm.05-.14v0C146.77,44.08,146.77,44,146.78,43.92Zm54.85,9.81-.08,0C200.28,52.76,200.73,53.1,201.63,53.73ZM146.94,43.36c0,.14,0,.27,0,0Zm-.12,0Zm0,0h0c0,.23-.05.58,0,0v0Zm-.07.08h0Zm-.09-.08v0Zm-.08,0v0ZM143.42,73a.73.73,0,0,0,.27.11C143.61,73.21,143.74,73.53,143.42,73Zm22.05,104.4c-.05.71-.05,2.15-.44,2.59C164.66,179.1,165.06,178.56,165.47,177.41ZM191,248l-.62.16C191.64,247.47,191.33,247.75,191,248Z"/><path class="cls-1" d="M166.49,128.84a.55.55,0,0,1-.22.33C166.39,129.43,166.48,129.42,166.49,128.84Z"/><polygon class="cls-1" points="143.19 231.58 143.13 231.67 143.13 231.81 143.19 231.58"/><path class="cls-1" d="M156.3,44a5.17,5.17,0,0,1-1.23-.34C155,43.73,155.31,43.85,156.3,44Z"/><path class="cls-1" d="M218.66,65.06l-1.5-1.15a7.55,7.55,0,0,1,1.33,1.37C218.52,65.18,218.39,64.88,218.66,65.06Z"/><path class="cls-1" d="M229.38,80.15c.24.19.41.48.65.66l.12-.2C229.31,79.64,228.59,79.08,229.38,80.15Z"/><path class="cls-1" d="M219.24,67.68c-.15.42.94,1.14,2,2.12l-.18-.18C221.77,69.51,220.55,68.54,219.24,67.68Z"/><path class="cls-1" d="M221.51,70c.34.3.67.61,1,.93C222.77,70.9,222.13,70.53,221.51,70Z"/><path class="cls-1" d="M208.88,57.76c1,0-4.26-2-.89-.17C208.52,58.05,208.64,57.4,208.88,57.76Z"/><polygon class="cls-1" points="219.22 69.44 219.17 68.73 218.29 68.5 219.22 69.44"/><path class="cls-1" d="M210.66,62c.6.47,1.18,1,1.75,1.5,0-.09.28,0,.59.25-.55-.45-1.12-.94-1.56-1.29S210.68,61.87,210.66,62Z"/><path class="cls-1" d="M214.51,64.79c-.32-.25-1-.77-1.51-1.09A12.15,12.15,0,0,0,214.51,64.79Z"/><path class="cls-1" d="M215.1,65.88c.58.51,1.11,1.08,1.66,1.61l-.44-.53C215.91,66.6,215.53,66.22,215.1,65.88Z"/><path class="cls-1" d="M189.2,49.59c-.78-.31-1.6-.54-2.4-.81-.3.07.3.42,1.2.69C188.61,49.56,189.48,49.91,189.2,49.59Z"/><path class="cls-1" d="M194.31,53.74l1.16.32a2.78,2.78,0,0,1-.81-.84Z"/><path class="cls-1" d="M188.26,51.33c.29-.06,2.62.83.59-.23C188.57,51.11,185.33,50.2,188.26,51.33Z"/><polygon class="cls-1" points="153.22 42.01 153.18 40.99 152.58 41.98 153.22 42.01"/><path class="cls-1" d="M137.73,59a12.63,12.63,0,0,0,1.09,1.27c.28.24.39.18.43-.35-.6-1.06-.76-1.11-.95-1.13s-.4,0-.7-1.09c-.23-.22-.1.21,0,.65S138,59.21,137.73,59Z"/><path class="cls-1" d="M137.73,59c-.16-.2-.33-.4-.49-.63A2.59,2.59,0,0,0,137.73,59Z"/><path class="cls-1" d="M256.37,155.39l.29-1.94-.39,1.24C256.3,154.93,256.34,155.16,256.37,155.39Z"/><path class="cls-1" d="M256.43,151.18l-.55-1.18a4.73,4.73,0,0,1-.12,1.62Z"/><path class="cls-1" d="M167.71,172.31l-.13-.17a4.21,4.21,0,0,0-.5,1.62Z"/><polygon class="cls-1" points="160.66 197.85 160.82 197.43 159.99 198.03 160.66 197.85"/><path class="cls-1" d="M152.32,218.51c.44-.8.87-1.79,1.29-2.6C152.79,217.73,151.55,218.37,152.32,218.51Z"/><path class="cls-1" d="M248.15,49c1.42,1.37,1,.25,1,.36C248.34,48.42,248.33,49,248.15,49Z"/><path class="cls-1" d="M264.2,65.52c-.55-.65-1.09-1.31-1.69-1.92l-.35-.18C262.88,64.09,263.54,64.8,264.2,65.52Z"/><path class="cls-1" d="M267.79,71.57l1.84,2.7a33.65,33.65,0,0,1,2.8,4.76,11.17,11.17,0,0,0-2-3.93,48.38,48.38,0,0,1-3-4.65c-.06-.19-.1-.37-.16-.55L266,69c.3.39.6.81.92,1.23S267.49,71.12,267.79,71.57Z"/><path class="cls-1" d="M274.59,86.32c.07.21.08.28.12.4.18.35.41.83.8,1.67C275.5,87.73,276.65,90.17,274.59,86.32Z"/><path class="cls-1" d="M277.72,94.39c.58,1.16.84,1.6.92,1.58s0-.54-.16-1.26l-1.22-2.22C277.31,93,278.16,95.11,277.72,94.39Z"/><path class="cls-1" d="M279.29,95.55a2.29,2.29,0,0,0,.56,1.19Z"/><path class="cls-1" d="M278.72,94.41c.28.13-.12-.3-.73-1.32l1.3,2.46C279.27,95.17,279.45,95.05,278.72,94.41Z"/><path class="cls-1" d="M277.47,91.6c-.42-1.36-1.06-3.09.17-.86-1-2.22-1.62-3.06-1.64-2.85a3.47,3.47,0,0,0,.37,1.1C276.61,89.62,277,90.5,277.47,91.6Z"/><path class="cls-1" d="M273.53,79.5l-.75-1.79-1-1.33C272.27,77.05,273.39,79.71,273.53,79.5Z"/><path class="cls-1" d="M283.25,109.65c.19.11.18-.93.31-1.16l-.74-1.73C283,107.7,283.46,109.46,283.25,109.65Z"/><path class="cls-1" d="M283.56,108.49l1,2.63C283.93,108.69,283.68,108.29,283.56,108.49Z"/><path class="cls-1" d="M281.06,97.71l-.32-.83c-.68-1.39-1.46-2.73-2.24-4.06l1.34,2.41Z"/><polygon class="cls-1" points="285.05 118.51 286.15 121.14 285.72 119.97 285.05 118.51"/><path class="cls-1" d="M287,126.9c-.47-1.11-.23,1.65-.6.46.39,1.87.78,3.46,1.16,4.89A47,47,0,0,1,287,126.9Z"/><path class="cls-1" d="M287.57,132.25a23.28,23.28,0,0,0,.6,2.43C288,133.9,287.8,133.11,287.57,132.25Z"/><path class="cls-1" d="M285.68,118l.19-1.17c-.07-.33-.14-.7-.22-1.07A5.62,5.62,0,0,0,285.68,118Z"/><path class="cls-1" d="M285.88,116.78v0c.24,1.17.4,2,.47,2.33C286.28,118.85,286.14,118.14,285.88,116.78Z"/><path class="cls-1" d="M285.59,115.47a2.8,2.8,0,0,1,.06.28A.29.29,0,0,0,285.59,115.47Z"/><path class="cls-1" d="M284.2,105.37c-.64-1-.26.83-1.35-1.42C283.57,105.44,284.86,108.66,284.2,105.37Z"/><path class="cls-1" d="M285.11,111.12c-.1.08-.12.64-.44-.11l1.1,3Z"/><path class="cls-1" d="M286.27,115.41c-.15-.47-.34-.93-.5-1.39l.25,1.08Z"/><path class="cls-1" d="M288,129.59a33.23,33.23,0,0,1,.7,4.21c-.11-1.69-.23-3.45-.45-5.11C288.08,128.48,287.75,127.79,288,129.59Z"/><path class="cls-1" d="M287.15,123.33l.07.28C287.23,123.43,287.22,123.29,287.15,123.33Z"/><polygon class="cls-1" points="289.46 149.4 289.54 149.14 289.46 149.09 289.46 149.4"/><path class="cls-1" d="M288.29,128.4a10,10,0,0,0-.59-2.71c.19.93.38,1.93.56,3C288.33,128.79,288.38,128.8,288.29,128.4Z"/><path class="cls-1" d="M288.71,139c.05-.67.08-1.43.1-2.23A7.76,7.76,0,0,0,288.71,139Z"/><path class="cls-1" d="M287.18,124.06l-.05-.19C287.1,124.3,287.14,124.24,287.18,124.06Z"/><path class="cls-1" d="M287.18,124.06c.16.64.35,1.13.52,1.63-.16-.77-.32-1.47-.48-2.08A2.89,2.89,0,0,1,287.18,124.06Z"/><path class="cls-1" d="M291.85,147.63c-.33-2.9-1.61-1-2.32,1.51.09.05.18.07.27.45a12.47,12.47,0,0,1,.25,2.6c.34-1,.5-6.56.9-4.06a11.75,11.75,0,0,1,0,3.32c-.1.55-.25.85-.39,1.8.55-1.62.52,5,1.28,4.22l-.12-3.48c.11-.07.24,1.2.38.24C291.66,154,291.52,150.57,291.85,147.63Z"/><path class="cls-1" d="M289.52,143.54c0-.4-.08-.8-.11-1.2a22.45,22.45,0,0,1-.45,4.18c.22,2,.37,2.43.5,2.57l0-6C289.48,143.27,289.49,143.41,289.52,143.54Z"/><path class="cls-1" d="M290.28,138.91c-.24-3.56-.49-2.47-.91-4.57.67,5.71-.36-1.62-.24,2.53-.13-1.12-.31-2.12-.42-3.07.05,1,.13,2,.1,3l0-.13v0h0c0-.25.07-.34.05-.05l0,.11a.77.77,0,0,1,.18.25c0,1.66-.1.27-.18-.25l-.07-.06v0l.58,5.71c0-1.22-.12-2.74-.33-5.42C289.57,137.82,289.92,140.73,290.28,138.91Z"/><path class="cls-1" d="M286,108.05c0,.19,0,.19,0,.21C286.12,108.61,286.19,108.74,286,108.05Z"/><path class="cls-1" d="M286.14,113.25l-.05.19C286.12,113.52,286.14,113.44,286.14,113.25Z"/><path class="cls-1" d="M285.56,108.49a34.85,34.85,0,0,1,.58,4.76,10,10,0,0,0,.24-2.81,7.49,7.49,0,0,1-.73-2c-.2-1.18.21,0,.32-.15-.33-.77-1.17-2.67-.58-.15Z"/><path class="cls-1" d="M289.43,126l-.2.16c-.35-2.72-.52-2.09-.75-2.4l1,4.72Z"/><path class="cls-1" d="M289.25,149.94l-.46-.64c.24.92.42,1.84.59,2.76C289.34,151.35,289.34,150.65,289.25,149.94Z"/><path class="cls-1" d="M288.88,157.53c.09-.47.14-.93.22-1.4l-.39-.25C288.77,156.43,288.84,157,288.88,157.53Z"/><path class="cls-1" d="M204.53,277.94l.75.13a22.23,22.23,0,0,1,3.15-1.39C206.42,277.21,204.13,277.64,204.53,277.94Z"/><path class="cls-1" d="M124.71,135.14l-.66-1.55C124.4,136.09,124.47,135,124.71,135.14Z"/><path class="cls-1" d="M269.56,220.38c1.26-1.71,2.43-3,2.4-3.69C270.94,218.14,270.18,219.32,269.56,220.38Z"/><path class="cls-1" d="M266.87,224.7l.59-.73c.61-1.14,1.31-2.23,2.1-3.59A21.34,21.34,0,0,0,266.87,224.7Z"/><path class="cls-1" d="M234.23,35.38a23.14,23.14,0,0,0,1.91,1.47C235.67,36.51,234.93,35.92,234.23,35.38Z"/><path class="cls-1" d="M288.5,175.36a1,1,0,0,1-.11-.56C288.38,175.09,288.41,175.31,288.5,175.36Z"/><path class="cls-1" d="M261.44,237l-.07.09C261.68,236.85,261.63,236.9,261.44,237Z"/><path class="cls-1" d="M286,178.85c-.16.47-.34,1-.51,1.61C285.62,180.2,285.77,179.71,286,178.85Z"/><path class="cls-1" d="M285.77,179.06l.3-1.1C286,177.78,286,177.91,285.77,179.06Z"/><path class="cls-1" d="M285.39,180.73c-.09.37-.2.9-.4,1.78.17-.73.35-1.41.53-2C285.43,180.7,285.39,180.8,285.39,180.73Z"/><path class="cls-1" d="M288.89,169.4c0-1.49.06-3.16.09-4.92a38.25,38.25,0,0,1,.28-5.41c-.75,1.62,0,.86-.93,3.38.5-1.08.39,1.26.05,3.41s-.56,4.14.14,2.41c-1.12,2.54-1.06,4.53-2.37,7.83.2-.07.62-1.14-.08,1.86a3.77,3.77,0,0,1,0,.69c0,.09,0,.12-.06.2l.06-.16c0,.13,0,.15,0-.06a10,10,0,0,1,.64-1.47,18.55,18.55,0,0,1-.47,4c-.29,1.61-.58,3.23-.72,4.06-.6,1.74,0-.8-.5.11l-.34,2.48c-.5.12-2,4.46-1.12.25-.37,1.24-.69,2.49-1.14,3.7a61,61,0,0,0-2.58,6.86c-.76,1.66-1.22,4.47-1,2.86-.61,1.93-1.42,3.79-2.15,5.68h-.12c-.31.68-.62,1.38-.91,2.08s-.65,1.38-1,2.08l-2,4.28a47.4,47.4,0,0,1-5.31,8.38c-.49.88-1,1.78-1.6,2.81s-1.44,2.12-2.46,3.47l-.69.31c-.35.54-.81,1.2-1.34,1.89s-1.14,1.38-1.71,2.05a15.86,15.86,0,0,0-2.29,3.13c-1.32.73-3.35,3.09-5.55,5.62L248.48,247a38.36,38.36,0,0,1-3,2.94l.23.49-7.21,7,.47.18a36,36,0,0,1-4.88,3.92c-1,.72-2.05,1.38-3.12,2.1s-2.18,1.47-3.25,2.26a7.93,7.93,0,0,1,2.14-1.58,61.62,61.62,0,0,0-8.18,5.38c-1.35.93-2.69,1.84-4,2.68-.67.41-1.33.82-2,1.16s-1.36.62-2,.87a14.43,14.43,0,0,1-3.09,1.61,2,2,0,0,0,.3-.18l-.52.27c-.59.23-1.23.4-1.9.64a12.5,12.5,0,0,0,1.62-.5c-1,.5-2.49,1.24-3.94,2l-.83-.15-.34.18c-1.53.51-1.09.75-.16.72-.71.43-1.38.81-1.88,1.13-1.52-.23-3.91,1.9-5.89,1.76a34.34,34.34,0,0,1-4.27,1.93l-2.63,1.14a5.72,5.72,0,0,0-1.19.68,38.13,38.13,0,0,0-5.09,1.51l-.91-.4-3.72,1.76c-2.47.2-3.51.12-1.24-.79-2.79.92-3.94,1.21-5,1.49s-2,.51-4.41,1.21l.18-.42c-1.75.27-4.51,1.23-5.63,1a36.43,36.43,0,0,0-4.94.14l-7.7.3c-1.44,0-2.88.05-4.33-.06-.73-.05-1.47-.06-2.2-.14h-.11l2.37-.21-2.57.18-1.86-.24a19,19,0,0,1-2.13-.37l-2.06-.44c-1.32-.42-2.61-.75-3.76-1.22.75.86-.32.37-1.65-.24-.67-.28-1.38-.66-2-.92s-1.06-.37-1.24-.2c-.44-.47-1.63-1.16-.06-.75a27.4,27.4,0,0,1-3.07-1.39c-.88-.46-1.62-1-2.35-1.41s-1.38-.89-2.08-1.29-1.44-.75-2.23-1.16c-.29-.57,1.09.34.78-.11a6.61,6.61,0,0,1-1.72-1.23c-.3-.44.73.27,1.42.65a21.1,21.1,0,0,0-4-2.6,2.13,2.13,0,0,0-1.68,0,21.93,21.93,0,0,0-2.09-2.49,11.28,11.28,0,0,0-2.08-1.74,4.08,4.08,0,0,1-.44-1.17c.05-.16.32.18,1.44,1.36-.15-.17-.37-.44-.64-.77s-.55-.77-.88-1.23l-1.06-1.48L107.13,269c-.34-.55-.71-1.06-1-1.57s-.58-1-.83-1.37c-.5-.78-.89-1.27-1-1.25a17.06,17.06,0,0,0-1.32-2.75c-.81-1.89-1.14-3-1.5-4s-.68-2.1-1.2-4.06l.18,1.12-.18-.27a18.73,18.73,0,0,1-.88-5.91c0-1.34-.07-2.75-.12-4.2,0-.52,0-1-.07-1.58l0-.78c0-.12,0-.28-.07-.36l-.36-.19h0a26.29,26.29,0,0,1,.42-3.7l-.51.36c-.49-.38-.22-2,.35-4.08s1.42-4.44,1.86-6.55c-.23.47-.48.94-.69,1.42a10.37,10.37,0,0,1,1.9-4.06c1-1.39,2-2.68,2.58-3.68.3-.42-.22.77-.42,1.44,1.51-2.6,1.5-2.81,1.27-2.93s-.63-.11.4-2.14c.72-.54.21,1.34,1.8-1.21A10.67,10.67,0,0,0,108.7,215l1.76-3a58.94,58.94,0,0,1,4.32-6.67c-.72.7-1.43,1.38-.46-.62,1.74-2.89,5.37-7.59,5.92-10.74.24-.37.37-.49.43-.48.94-2.44,2.93-7.95,3-9.59a6.75,6.75,0,0,0,1.67-3.17c.24-.77.5-1.63.72-2.53s.38-1.83.57-2.75c.72-3.67,1.11-7.06,1.84-6.9.47-2.63.81-5.28,1.09-7.93l.13.22c.15-1.27.25-2.34.32-3.25s0-1.69,0-2.35a18.91,18.91,0,0,0-.33-3.13c.12-1.17.25-.31.33-.21.41-7.45.25-8.25-1-14.39l.43-.7c-.21-.83-.34-3.53-.75-6.92a50.31,50.31,0,0,0-2.46-10.91,1.69,1.69,0,0,1,.42.73c-1.37-3.91-2.58-8.71-4.1-12.76a45,45,0,0,0-2.26-5.32,8.66,8.66,0,0,0-2.32-3q-1.47-2.3-3-4.53c3.3,6.17-1.17-.53,0,2.13-1.41-2.32-3.17-6.34-1.32-3.52l.19.5c.71.3-.28-1.65-1.54-3.59-.61-1-1.24-2-1.72-2.73s-.75-1.27-.6-1.33l-1.51-2.1c-.49-.68-1-1.33-1.43-2a43.92,43.92,0,0,1-2.51-4.2,45.57,45.57,0,0,1-3.61-9A49,49,0,0,1,98.94,56a3.31,3.31,0,0,0,.56-.29c0-1,.06-2.19.1-3.35,0-.67.07-1.35.11-2,.06-1.27.16-2.46.27-3.21-.1.62-.24,1.36-.34,1.74a47.46,47.46,0,0,1,.51-6.61,1.5,1.5,0,0,1,.21-.39V42c-.11,1.11-.29,2.71-.09,1.83.06-.31.14-.62.21-.92V43c0-.14.05-.27.08-.4.08-.39.16-.79.26-1.18l-.11.25a19.29,19.29,0,0,1,.62-2.82c.23.61.59.61,0,3.3a47.32,47.32,0,0,1,1.54-6c.29-.34,1.71-2.74,1.51-1.94.21-.37.41-.78.62-1.2s.43-.86.65-1.32l.65-1.44c.24-.49.51-1,.76-1.47l.81-1.52c.3-.49.62-1,.94-1.46s.65-1,1-1.43.76-.87,1.16-1.29a6.24,6.24,0,0,1,1-1.41c3-3.1,6.17-5.22,10.22-8.34,1-.27,1.87-.61,2.85-.81,1.72-1,.76-.72.08-.63s-1.11,0,1.86-1.61c4.31-2,1.85-.16,3.46-.55a21.21,21.21,0,0,1,10.3-3c-1.42.27-2.54.41-3.84.72,1.11-.07,2.2-.21,3.31-.18-3.82,1.2-6.53,1.8-3.48,1.59,0-.43,1.34-.92,3.1-1.26.89-.14,1.89-.3,2.9-.4l3-.22,0-1.3c.51,0,1-.07,1.53-.08v0c0,.07,0,.37,0,.47V5.56h0v.28h0V5.56h0v.59c0,.31,0,.47,0,.49v.2c0-.63,0-.68,0-1.13v.5h0V5.56h0v0h0v0h0v.21c0-.52,0,.34,0,.16V5.56h0v0h0v0h0v0c2.08,0,3.69-.11,1.84-.56,3,.18.18.5,2.47.88,7.23-.32,15.82,1.35,24.54,3,.17-.15-1.23-.74.69-.57l4.39,1.89c1.73.29,1.82-.59,4.77.85-.4-.27-1-.67.16-.4a203.36,203.36,0,0,1,24.76,9.7A93.46,93.46,0,0,1,233.18,35c-1.69-1.73-.39-.8,1,.34-.89-.81.28-.33.24-.67l2.72,2.57c.44.43.9.85,1.34,1.29l1.29,1.34a16.61,16.61,0,0,1,3.68,2.76c1.42,1.29,2.73,2.6,3.24,2.63L245,43.75c1.38.81.88-.25.14-1.58s-1.81-2.8-1.32-3c-1.64-.83-3.13-2.69-5.07-4.5-1-.92-2-1.89-3.09-2.79a16.84,16.84,0,0,0-3.76-2.26c-.94-.91,1.08.39.65-.19a11.73,11.73,0,0,1-2.35-1.21c-.45-.28-.92-.63-1.46-1s-1.15-.78-1.83-1.27l.37.12c-2-1.23-3.64-2.38-5.24-3.32s-3.06-1.84-4.54-2.76-3.08-1.74-4.83-2.74c-.88-.47-1.79-1-2.82-1.52l-3.31-1.6.52.75A32.42,32.42,0,0,1,203.68,13c-2.66-.38,5.8,2.61,3.31,2.38a17.18,17.18,0,0,0-3.28-1.94c-1.53-.66-3.36-1.38-5.16-2.09s-3.61-1.29-5.05-1.87A10.09,10.09,0,0,1,190.57,8c-3.36-1,.82.8-2.53-.15l-.81-.53-.95.13c-2.18-.67-3.2-1.34-3.23-1.59.54.14,1.54.35,2.13.48A28,28,0,0,0,179.91,5c-1.82-.34-3.4-.64-3.9-.76,1.09.26,2.17.6,3.25.89-1.18-.21-2.36-.5-3.6-.69l-3.76-.62c-2.53-.49-5.15-.76-7.75-1.08a91.46,91.46,0,0,0-15-.58l.69.24c-1,0-1.86,0-2.55,0h0V1.68h0V1.39h0v0h0v.18c0,.26,0-.06,0,.4V2.4h0v0h0v-1h0v-.1h0c0-.13,0-.28,0-.14v.13h0V1h0V.84h0V0c0,1.36,0,.14,0,1.5v.4h0v0h0V1.53c0,.27,0-.44,0,.33,0-.28,0-.41,0-.57v.05c0,.26,0,.66,0,1.06h0V2.28s0-.32,0,.12l-1.57.05,0-1.64c-2.29.15-4.09.37-4.25.86L139,1.47c.67,0,.77-.1,1.43-.11a7,7,0,0,0-4.1.46,13.5,13.5,0,0,1-5,1c-2,.12-3.46.15-2.11-.21l-4.45.95c-1.05.13-1.06,0-.34-.17-.36.05-.73.1-1.09.17l-1.69.35-3.39.69,0-.05c-.46.2-1.23.47-2,.76l-2.06.82c-1.75.22.82-.34.35-.4L111,7c-1.6,0,1.4-1,4-1.62a6.68,6.68,0,0,0-3.89.49,38,38,0,0,1-6.77,1.88l3.44-1.19c-2.45,0-5.14.9-9.17,1.87.51,0,2.55-.45,4-.59s2.27,0,.33.75a20.59,20.59,0,0,0-4.65,1.72c-.17-.42-2.24.32-4.75,1.42L93.42,11c-2.7,1.28-2.35,1.5-3.86,2.42-3,1.28-3.86,1.15-4.75,1.09-4.87,2.14,3.66-.82-2,1.92a57.58,57.58,0,0,0-5.39,2.76c-1.73,1-3.41,2.24-5.59,3.71-2.77,1.36.26-.61-.78-.21-.71.59-1.38,1.24-2,1.88-.56.36-.47.11-.42,0-1.82,1.42.19.64-2.73,2.75-.23.53-1.87,1.38-3.86,2.53-1,.57-2.09,1.2-3.12,1.9a18.52,18.52,0,0,0-2.69,2.4c-1,.54.17-.64-.24-.62l-2.55,2.4L52,37.43c-.81.86-1.5,1.66-3.14,3.57l-3.37,2.65c1.3-.92,1.32-.58.75.33s-1.78,2.36-2.77,3.82c.91-.66,1.72-1.17,2.25-1.53-1.27,1.34-2.39,2.81-3.59,4.21-.53.42-.31-.14.12-1l-.59.84c-1.53,1.28-1.1.29-.38-1l1.66-1.19c.66-1.27,1.25-2.5.79-2.56-.22.3-.64.87-1.15,1.45.18-.34.27-.57.11-.49a6.6,6.6,0,0,0-1,1.39l-1.4.44v.42c-1.83,1.64-3.5,3.44-5.22,5.2-2.84,4.5-4.82,8.72-9.12,15.75.66-2-.48-.84-.94-1.28a18,18,0,0,0,2.71-3.74,35.93,35.93,0,0,1,3.42-5.12c-1.44,1.74-1.38,1.17-1.1.66-1.42,2.16-2.68,4.42-4,6.62-.34-.44-1.22,1.15-2.48,2.74.83-.37.2.93-.81,2.68s-2.25,4-2.91,5.44c-.39,0-.32-.81,1.65-4.1-2.73,3.32-1.76,5.27-4.15,8.66A5.22,5.22,0,0,0,18,80.66a31.3,31.3,0,0,1-1.91,4c-.73,1.25-1.22,2.14-1.11,1.5.13-.28.24-.57.39-.85a103.14,103.14,0,0,0-4.62,10.94c-.34,1-.68,1.87-.93,2.73s-.45,1.66-.62,2.35a6.81,6.81,0,0,0-.35,2.63,3.51,3.51,0,0,1-.76-1.5l-.2,2.84-.07,2.85c0,1.9-.12,3.76-.06,5.65-.24-.56-1,0-1.59,0a.63.63,0,0,1-.7-.53,5,5,0,0,1,.09-2.45A28.26,28.26,0,0,0,4.12,117c.33-1,1.59-2.21,1.35-.86a31.92,31.92,0,0,0-1.33,3.08c-.23.74-.46,1.58-1.21,3.82.42-1.46,1.25.39.8,2.71-.1-.39-1.15,0-1.11-.85l0,1.5L2.73,128l.17,2.73c-.13-1.05-.93,0-1.38,1.18.16-.29-.06,1-.19,2.54S1,137.8,1,138.59l.45-2.49a17.73,17.73,0,0,0,.31,6.67,24.69,24.69,0,0,1,.68,6.59c-.25-.8-1.48-2-1.54,1.4.31.77,1,2.47,1.78,4.67a41.34,41.34,0,0,1,2.13,7.74l-.19,1.13.94,4.35A65.77,65.77,0,0,1,3,162.06c-.44-1.38-.87-2.82-1.26-4.19-.19-.68-.37-1.34-.54-2l-.36-1.75c-.18,2.53-.43.72-.11,4.48-.2,1.36-.65-2-.7-3.13,0,1.46.14,2.93.21,4.4s.12,2.94.27,4.41c.62-.46,1.52,6.59,2,6.17l-.95-4.67-.48-2.35L.79,161.1c.34-.22.85,1.12,1.49,3.25.33,1.07.66,2.33.94,3.72.15.69.28,1.41.4,2.15s.28,1.48.4,2.24c0,1.6-1.39-1-1.59-.8A37.58,37.58,0,0,1,3.85,178L3,175.45a15.64,15.64,0,0,0,.44,2.37c.22.73.49,1.41.74,2.13a17.65,17.65,0,0,1,1.14,5c.35,1.38.34,4.36.79,4.49.09-2.48,2.27-3.51,3.24-2.2,0,.24.36,2.07.71,4s.85,4,.93,4.88c.19,2.42-2.48-2.86-2.33-.8.2,0,.83,1.18,1.08,1.66.35,1.47-.79-.38.44,2.65.83.27,2.38,6.2,1.1,1.23,1.38,2.88,1,3.24,2.63,6.62,0-.63.65,0,1.53,1.1s1.94,2.73,2.78,4.07c-.24-.08-.12.65-.05,1l1.94,3.94L21.92,221c.58,1.07,1.1,2.16,1.78,3.25s1.38,2.24,2.19,3.52c.08.28.48,1.06.74,1.66s.42,1-.07.58a19.26,19.26,0,0,1,2.36,2.69c1.63,3.3-2.5-3.36-1.47-.69.48-.05,3.2,3.68,5.11,5.58,0-.53-1-1.71-2.06-3.11s-2.4-2.92-3.27-3.93c.34-.25,1.37.45,2.8,1.81.72.68,1.51,1.54,2.43,2.49s1.94,2,3,3.18c1.6,1.9,1.89,2.36,1.79,2.48s-.54-.15-.21.14a46.54,46.54,0,0,0,3.6,3.91,26.21,26.21,0,0,0,2.48,2,31.92,31.92,0,0,1,5.29,5c1.85,2.51-.64.87-.41,1.62-3.14-2.63-4.2-4.65-6.13-6.62L44,249.14a27.45,27.45,0,0,1-3.9-3.88,24.71,24.71,0,0,0,2.37,2.84c1.17,1.28,2.62,2.85,4.29,4.4s3.38,3.3,5.14,4.8,3.33,3.06,4.72,4.24c1.13.66,3,1.89,2.3,1.06l-1.86-1.36c-1.38-1.64,3.77,2.2,1.61.25,2.57,1.7,5.65,3.27,9,5.93l.34.95a5.13,5.13,0,0,0-1.21-1.06,13.87,13.87,0,0,0-2-1.37c1.56.87,5,4.37,7.13,4.76l-2.31-2c1.39.68,2.92,1.46,4.57,2.2a37.25,37.25,0,0,1,4.94,2.62c-1.2-1.39-.79-.38-2.77-2.33.8.95-1.31-.24-3.23-1.4s-3.63-2.33-2.3-.93a16,16,0,0,0-3-2.57,29.47,29.47,0,0,1-3.39-3c0,.23.81,1.05-1.71-.87a3.39,3.39,0,0,1-.67-.26L62,262l.12.13c-.13-.06-.14-.06,0,.05a8.19,8.19,0,0,1,1.13,1.19,8.61,8.61,0,0,1-1.57-.8c-.61-.39-1.29-.87-2-1.36-1.37-1-2.75-2-3.5-2.42-1.37-1.32.75.34.11-.5l-2.17-1.41c.09-.51-3.3-3.84.23-1.13-1-.89-2-1.74-3-2.66-.77-.9-1.71-1.93-2.67-2.88s-1.92-1.83-2.65-2.51c-1.23-1.42-3.65-3.1-2.26-2.15-1.54-1.42-2.95-2.95-4.39-4.47l0-.12c-2-2.31-4.08-4.77-6.22-7.29a49.26,49.26,0,0,1-5.55-8.61c-.61-.84-1.23-1.7-1.93-2.72s-1.35-2.27-2.17-3.81v-.78a20.56,20.56,0,0,1-1.18-2.08c-.38-.81-.79-1.67-1.17-2.5a19.05,19.05,0,0,0-1.92-3.52,12.67,12.67,0,0,0-.93-3.21c-.5-1.33-1.25-2.82-1.87-4.43l-2-4.75c-.58-1.53-1.06-3-1.4-4.08H12.6l-.78-2.28c-.26-.76-.49-1.55-.75-2.35-.5-1.6-1.12-3.28-1.71-5.2l-.37.35a45.52,45.52,0,0,1-1.44-6.29c-.33-2.48-.69-5.19-1.14-7.9a10.73,10.73,0,0,1,.48,2.71c0-.83-.1-1.65-.16-2.49s-.15-1.67-.26-2.51c-.21-1.68-.58-3.36-.82-5-.47-3.35-1-6.64-.68-9.63a15.35,15.35,0,0,1-.08-3.6,2.05,2.05,0,0,0,0,.37c0-.15,0-.38,0-.61.07-.65.19-1.32.28-2-.13.62-.23,1.21-.29,1.73,0-1.15,0-2.88-.06-4.58l.5-.71v-.39c.22-1.66-.2-1.35-.58-.48-.07-.86-.11-1.65-.18-2.26.89-1.3.07-4.49,1.06-6.25-.26-1.18.74-8.52.18-9.55.12,0,.26-.53.1.39a35.22,35.22,0,0,0,1-5.44l.78-.67.13-4.23A7.83,7.83,0,0,1,8.86,112c.23-.21.27.18.2,1.45.43-3,.72-4.2,1-5.29.11-.55.23-1.07.35-1.77s.34-1.58.58-2.86l.29.36c.59-1.74,1-4.73,1.74-5.64a37.54,37.54,0,0,0,2.18-4.61c.95-2.06,2.08-4.56,3.34-7.22s2.71-5.46,4.33-8.07c.8-1.32,1.55-2.63,2.36-3.85s1.63-2.36,2.41-3.42c-1,.55-.27-.42.69-1.62s2.24-2.56,2-3c.58-.35,1.55-1.46.76.07.73-1.13,1.38-2.1,2-2.95l1.86-2.25A29.25,29.25,0,0,0,38,57c.61-.29-.44,1.13,0,.82a7.57,7.57,0,0,1,1.42-1.76c.48-.31-.34.74-.8,1.46a16.8,16.8,0,0,0,2.91-4.25,2,2,0,0,0,.07-1.71A15,15,0,0,0,45.74,47c.89-.49,2.24-1.42-.15,1,.7-.66,2.89-2.62,4.85-4.5s3.89-3.5,3.75-3.81a7.81,7.81,0,0,0,1.28-1c.5-.44,1-.87,1.15-1.06,3.42-2.66,3.7-2.91,7.14-5.42l-1,.61a6,6,0,0,1,2.07-2l1.55-1c.59-.34,1.24-.74,1.94-1.23l0,.12a54.49,54.49,0,0,0,4.81-2.89A33.88,33.88,0,0,1,78,23.2l-.6-.21c0-.66,1.66-1.31,3.71-2.12,1-.4,2.16-.86,3.29-1.33a23.7,23.7,0,0,0,3.25-1.49L86,18.48a14.15,14.15,0,0,1,4.48-1.42,31.69,31.69,0,0,0,4.67-.87c.52-.12-.73.45-1.39.79,3.07-.92,3.2-1.14,3.12-1.38s-.41-.52,1.83-1.37c1,0-.78,1.18,2.27.19.8-.13,2.89-1.21,5.41-2.13,1.25-.49,2.59-1,3.9-1.41a21.13,21.13,0,0,1,3.7-.73c-1,0-2-.06.12-.77C115,9.16,116,9,117,8.79s2.22-.24,3.34-.38c.94-.11,1.86-.24,2.73-.4-.45.33-.84.65-1.22,1-1.11.54-.41,0-.36-.17l-2.32,1.26c-.67.41-1.26.8-1.8,1.15a16.44,16.44,0,0,0-1.51,1.05c-.56.36-1.07.74-1.57,1.09a16.58,16.58,0,0,0-2,1.63c-.58.55-1.13,1.07-1.62,1.58l-1.3,1.51c-.83.94-1.48,1.85-2.17,2.62a13.47,13.47,0,0,1-1,1.08,10.28,10.28,0,0,1-1.11,1,2.33,2.33,0,0,0-.21.79l-.52.65a39,39,0,0,0-4.89,8.46c-.06.14-.13.27-.19.41.28-.6.21-.68.5-1.27a18.63,18.63,0,0,0-1.61,4l-.57,1.67a18.77,18.77,0,0,1-.71,1.74,3.53,3.53,0,0,1,0,.46c-.19.62-.39,1.24-.57,1.87.06-.4.11-.78.15-1.13a14.44,14.44,0,0,0-.8,3.58l-.12.47c-.11.46-.19.91-.28,1.37a1,1,0,0,1-.18-.42c.05.26.07.53.1.8-.25,1.24-.46,2.45-.58,3.59-.08.83-.14,1.67-.15,2.36a4.41,4.41,0,0,0,.08.79,3.39,3.39,0,0,0-.38.53c-.07.1-.08.18-.18.32a3.46,3.46,0,0,0-.35.49l-2.31,1.6A27.88,27.88,0,0,0,89,57.5l1-.63.76-.4a4.4,4.4,0,0,1,.83-.35c.29-.07.11.15-.18.44-.58.59-1.59,1.45-.24.84C88.89,59,84.85,61,87.67,59l.5-.22c.27-.76-1.64.43-3.64,1.73s-3.92,2.94-4.06,2.61l-2.11,1.64c-.69.56-1.34,1.17-2,1.75-1.33,1.17-2.69,2.3-4,3.5-2.5,2.48-5.07,4.87-7.33,7.52s-4.44,5.31-6.57,8c-1,1.39-1.93,2.82-2.89,4.22l-1.41,2.11L52.91,94l1.39-1-2.34,4c-.75,1-1.31,1.16.36-1.73a10.35,10.35,0,0,0-1.66,3,9.41,9.41,0,0,0-.55,2.22c-3.1,5.75.34-2.68-.54-.88l-1.14,2.48.35-.52a48.83,48.83,0,0,1-2.06,6.11c-1.08,2.29-.9,1-1.3,2-.05,0-.2.28-.59,1.42-.67,1.85-1.27,3.73-1.9,5.59l1.27-2.07c-.53,2.57-1.73,5.25-.27,2.86a20.57,20.57,0,0,0-1.8,4.83c-.31,1.09-.64,2.29-1,3.54s-.48,2.58-.72,3.88-.48,2.59-.63,3.82-.25,2.4-.36,3.44c-.2,2.08-.44,3.65-.5,4.26.14,1.83.18,3.64.16,5.55,0,.48,0,1,0,1.46s0,1,0,1.5c0,1,.06,2.07.09,3.19.08-1.12.71-1.79.76,2-1.51-1.31,0,7-.44,10.25.07-1.43.59,1.27,1.11,3.76s1.24,4.72,1.12,2.51c.68,3.13-.44.3-.15,2.74C42.72,178,44,182,45.3,186.25c.78,2.08,1.55,4.23,2.4,6.4s2,4.24,3,6.35c.24,0-.26-1.48.91.19L53.38,204a6.57,6.57,0,0,0,1.39,1.49,6.85,6.85,0,0,1,1.69,2.65c-.14-.48-.35-1.2.39-.19a90.61,90.61,0,0,0,18.23,21.38c1.81,1.53,3.55,3.15,5.48,4.54s3.71,3,5.7,4.26,3.84,2.8,5.88,4l1.49,1c.45.29,1.15.73,1.21.81a3.4,3.4,0,0,0,.3.23c0,.23.1.45.16.67l-.06.37c0-.1.06-.19.08-.27.12.47.22.94.34,1.41,0,.66-.13.46-.22.36.14.83.28,1.06.41,1.2s.08.56.13.89c0-.24-.08-.54-.12-.87L96,248a2.16,2.16,0,0,1,.42,1c.07,1.61.21,3.23.44,4.84a6.75,6.75,0,0,1,.69,1.62,17,17,0,0,0,2,6.11c.23,1.08-.55-.35-.66,0,.63,1.27,1.12,2.18,1.53,2.9l-.16.46,1.1,1.1.23.37c.33.48.66.93,1.08,1.5a26.67,26.67,0,0,0,1.78,2.22l1,1.88c.33.62.71,1.21,1.07,1.82-.74-1.39-.39-1.36.44-.69.41.33.94.82,1.51,1.37l1.92,1.67c-.52-1-1-1.77-1.27-2.3,1.25,1.27,2.45,2.57,3.81,3.71.37.53-.15.31-1-.13l.8.59c1.17,1.53.23,1.1-1,.36-.37-.57-.76-1.11-1.07-1.68-1.16-.74-2.32-1.43-2.43-1a16.45,16.45,0,0,1,1.32,1.26c-.32-.2-.54-.31-.48-.14a5.76,5.76,0,0,0,1.29,1.08l.37,1.39.42,0c.4.45.79.93,1.21,1.36l1.29,1.29c.85.89,1.77,1.68,2.7,2.48a49.78,49.78,0,0,0,7.21,3.24c1.25.44,2.57.91,4,1.4l-1.19-.05c.71.1,1.25.17,1.67.21,1.2.39,2.49.79,3.91,1.18-.93,0-1.64,0-1.3.23l-.11,0,.13,0a6,6,0,0,0,.92.3l.26.09c0,.17.17.39.21.6-.89-.4-2.12-.77-3.43-1.27a28.64,28.64,0,0,1-2.69-1c0-.07.06-.13.48-.14-.31,0-.61,0-.91-.05a13.66,13.66,0,0,1-2.29-1.2l-.42-.43-1.66-.29,1.46.79c1.47.94,1,.95.44.77l.5.21-.42,0c.23,0,.45.1.68.15l2.81,1.12,2.49.79-.23-.05h-.42a27.66,27.66,0,0,1-3.51-.88c-.55-.19-1-.35-1.23-.46a8.39,8.39,0,0,0,2.55,1.37,7.81,7.81,0,0,1,2.23.09c1.2.29,0,.21,0,.35.57,0,1.7,0,1.63-.11l.13,0c-.33.42,1.41.89,3.27,1.68-.59-.67.83-.48,2.77-.07a38,38,0,0,0,6,.79c.07.18-.08.33-.72.38a9.57,9.57,0,0,1-1.37,0c-.59-.09-1.34-.22-2.27-.41a8.82,8.82,0,0,0,2.61.61,14.48,14.48,0,0,0,2.14-.13,13.55,13.55,0,0,1,4.7,0,4.88,4.88,0,0,0-1.77.05c2.17-.08,7.3-.09,6.1.25-.3,0-.6,0-.9,0a101,101,0,0,0,11.47-.82l2.77-.39c.85-.17,1.63-.34,2.3-.5a6.64,6.64,0,0,0,2.42-.87,3.33,3.33,0,0,1-1,1.35c3.42-1.39,6.71-3.11,9.94-4.73-.37.47.4.92.69,1.44s.1,1.18-2.32,1.84a25.2,25.2,0,0,0,6.06-1.44c-1,.14-2.61-.44-1.33-.82,3.73-.11,2.57-.12,7.08-.76-1.44.27-.21-1.29,2-1.91-.29.26.52,1-.25,1.37,1.66-.82,3.26-1.82,4.86-2.75-.86.57.4.84,1.63.72-.32,0,.87-.39,2.28-.93s3.08-1.19,3.77-1.53l-2.36.68a17,17,0,0,0,5.65-3.16A23.68,23.68,0,0,1,212,278c-.57.57-1.06,2.18,1.91.78.53-.61,1.69-2,3.27-3.59a40.51,40.51,0,0,1,5.77-5.23l1.07-.31,3.39-2.65c-.88,1.08-2.63,3-4.6,5.08s-4.24,4-5.93,5.3c2.28-.9.79,0,3.94-1.82,1.28-.39-1.49,1.41-2.41,2l3.74-2.07c1.24-.69,2.5-1.37,3.7-2.14-.69-.38,5.11-4.1,4.48-4.44-1.18,1-2.43,1.89-3.65,2.84s-2.44,1.91-3.72,2.76c-.35-.21.59-1.24,2.15-2.74a64.27,64.27,0,0,1,6.3-5c1.39-.68-.22,1.64,0,1.75a44,44,0,0,1,4.88-3.93c-.58.63-1.19,1.23-1.82,1.82a16.2,16.2,0,0,0,3.39-3,20.25,20.25,0,0,1,3.89-3.14c1.07-.88,3.69-2.09,3.61-2.54-2.22.93-4.09-.59-3.37-2,.18-.16,1.7-1.14,3.22-2.32s3.21-2.42,3.91-2.83c2-1.15-1.44,3.38.31,2.41-.07-.19.68-1.22,1-1.64,1.14-.91,0,.86,2.13-1.5-.13-.85,4.44-4.63.6-1.48,2-2.38,2.39-2.26,4.71-5.05-.55.29-.3-.57.31-1.81.3-.61.69-1.32,1.12-2s.84-1.47,1.27-2.1c0,.25.63-.16.91-.36,1-1.23,1.88-2.29,2.66-3.31s1.49-2,2.21-2.93a73.52,73.52,0,0,0,4.32-6.26c.21-.18.74-.85,1.17-1.32s.72-.78.55-.17a18.45,18.45,0,0,1,1.38-3.18c2.25-2.76-1.92,3.57,0,1.59-.26-.41,1.92-4.32,2.8-6.77-.47.2-1.11,1.55-1.9,3.06s-1.58,3.31-2.11,4.5c-.37-.21-.18-1.41.42-3.23.29-.91.72-2,1.19-3.15s1-2.53,1.56-3.92c1-2.19,1.33-2.62,1.47-2.58s.1.54.21.14a28,28,0,0,0,2.71-7.76,21.49,21.49,0,0,1,.67-2.69c.17-.51.37-1.07.64-1.72s.53-1.39.91-2.25c1.46-2.65,1.05.22,1.63-.28-1,3.83-2.43,5.56-3.35,8.07l1.44-3a23.87,23.87,0,0,1-1.83,5,18.94,18.94,0,0,0,1.55-3.23c.62-1.55,1.47-3.45,2.14-5.56,1.51-4.16,2.89-8.95,4-12.32.11-1.26.42-3.41,0-2.46l-.43,2.18c-.89,1.88.36-4.21-.47-1.52.18-1.48.38-3,.6-4.76a40.74,40.74,0,0,1,1-5.59c.25-.23.51-.45.74-.68a12.21,12.21,0,0,0-.87,3.82,24.7,24.7,0,0,1,.93-4,10.34,10.34,0,0,0,.38-4.21ZM147.26,1.89V2.4h0V1.89Zm0,.32v0Zm0,.18h0Zm0,3.39v0Zm0-3.82V2Zm0,3.78v0Zm0-.18h0v0Zm0,.14v.6c0-.21,0-.44,0-.68Zm0-4.39v0Zm0,4.45v0Zm0-4.71v0Zm0,4.62v0Zm0-4.3v0Zm0,.57h0v0Zm0,.39v0Zm0-.38V2Zm0-.41v0ZM49,251.19l-.09-.05C47.42,249.47,47.93,250.07,49,251.19ZM37.56,52.83a9.16,9.16,0,0,1,2.22-2.36C39.14,51.18,38.44,52,37.56,52.83ZM103,8.52c1-.39,2.82-1.27,3.62-1.2C105.64,8.18,104.7,8.17,103,8.52ZM105.52,211c.51-.89,1.33-2.59,2-3C107.31,209.18,106.62,209.69,105.52,211ZM99.21,51a6.82,6.82,0,0,1,0,1.09q0,.45-.09,1c0,.37-.07.75-.12,1.13s.19.9.3,1.42l-.33.31a50.81,50.81,0,0,1,.17-5.8C99.15,50.41,99.19,50.7,99.21,51ZM99,49.28c0,.18.07.38.11.57l-.17.27C98.91,49.87,98.93,49.6,99,49.28Zm-4,8.78c.09.52.17,1.08.23,1.6-.18-.47-.34-1-.51-1.45ZM45.39,110.3l.46-.81C45.2,111.47,45.3,110.89,45.39,110.3ZM96.52,230.42a29.85,29.85,0,0,0-1.1,9.59c-.43-.17-.88-.37-1.37-.62a20.56,20.56,0,0,1-3.41-2.16l.37.13c-2-1.3-3.67-2.38-5.17-3.49s-2.8-2.25-4.15-3.36c-.34-.28-.69-.55-1-.85l-1-.93-2.08-2c-.72-.7-1.53-1.39-2.31-2.22l-2.52-2.67.22.89a24.27,24.27,0,0,1-2.44-2.93c-1.12-.74-.11.49,1.06,1.63s2.28,2.35,1.16,1.79a16.68,16.68,0,0,0-2.39-3C69.32,219,68,217.46,66.76,216l-.94-1.09L65,213.77c-.54-.73-1.05-1.44-1.49-2.08a9,9,0,0,1-1.56-2.88c-1.91-2.9.12,1.17-1.8-1.74l-.27-.94-.8-.52a13,13,0,0,1-1.2-2.31c-.18-.57-.2-.92-.12-1a8.73,8.73,0,0,0,.56.9c.24.32.48.65.66.88-.16-.33-.37-.68-.58-1.05s-.41-.79-.64-1.2c-.46-.81-1-1.65-1.44-2.43L55,197.28c-.17-.29-.31-.55-.42-.77.37.84.78,1.66,1.19,2.48a89.77,89.77,0,0,1-6.52-13.76c-.54-1.2-.87-2.46-1.31-3.68s-.83-2.44-1.24-3.64c-.73-2.42-1.36-4.78-2.09-7l0,.73c-.13-.42-.26-.81-.36-1.18s-.16-.71-.23-1c-.13-.63-.24-1.18-.32-1.66-.18-1-.27-1.69-.35-2.43s-.21-1.51-.29-2.57-.23-2.42-.48-4.34l.08.28c-.19-.76-.37-1.65-.52-2.62s-.15-2-.18-3.08c.33,1.94.38-3.69.76-1.14-.17-1.89-.33-3.08-.37-3.87a11.42,11.42,0,0,0-.13-1.49,25.94,25.94,0,0,1-.62-3.47l.42-1.15a11.83,11.83,0,0,1-.25-2.09,35.27,35.27,0,0,1,.18-3.69c0,3.2.82-2.39.86,1.19.73-4,1.22-6.93,1.45-9.39a16.69,16.69,0,0,1,.6-3.28A10,10,0,0,1,45.93,122c-.09-3.88-2.25,6.67-2,4.59-.31.83-.41,0-.2-1.27a34.38,34.38,0,0,1,.91-4.36,8.72,8.72,0,0,1,.68-1.78c.33-.57.68-1.17,1.08-1.88s.84-1.54,1.3-2.57c.23-.52.46-1.09.7-1.72s.57-1.29.87-2c-.25.6-.19.67-.44,1.26a21.46,21.46,0,0,0,1.34-3.4,14,14,0,0,1,1.69-3.71c.17-1.77,1.71-3.46,1.21-4.25l-2.42,5.47c1.3-3.11,1.7-6.52,5-11.15a24,24,0,0,1-1.18,3.07c1-1.31,1.42-2.82,2.46-4.17.46.83-3.54,6.36-4.42,10a20.21,20.21,0,0,0,1.62-3.49c.49-1.16.93-1.86.84-.87a11.63,11.63,0,0,1,1.94-4.32,40.2,40.2,0,0,0,3-5.26l.24.5a20.48,20.48,0,0,1,1.67-3c-.32.72-.53,1.52-.8,2.26a16.35,16.35,0,0,1,3-4.18c1.15-1.24,2.22-2.51,3.26-3.85-1.18,1.32-1.76,2.13-2.13,2.5s-.48.4-.52.29.12-.85-.93.25c.6-.93,1.12-1.68,1.57-2.29a16.81,16.81,0,0,1,1.27-1.42,12.57,12.57,0,0,1,1.91-1.53A17.3,17.3,0,0,0,70.61,78a45.1,45.1,0,0,0,3.5-3.34C73,75.71,70.77,77.56,72,76.07a35.55,35.55,0,0,1,4.25-3.5c4.79-4.37-1.08.31.79-1.74A6.12,6.12,0,0,0,79.16,69a14.41,14.41,0,0,1,2.2-2.48l.31.36c3-2.15,3.27-2.66,3.45-3.1a1.85,1.85,0,0,1,.55-.81,20,20,0,0,1,2.63-1.75l-2,2.13,2.79-2.09-.29.86a28.49,28.49,0,0,1,3.49-2.65c.67-.4,1.37-.77,2.2-1.21.52,3.28.3,6.49,1.41,9.59-.94-3.61-.77-4.06-.59-4s.55.67.44-.88c.54,2.19.93,3.58,1.12,4.63a17,17,0,0,1,.29,2.49c.14,1.37.12,3,2.1,7-.67-1.5-1.31-3.73-.43-2.16.66,1.83,1.71,4.18,2.09,5.35,3.61,5.76-.14-1.13,1.61,1.18a5.82,5.82,0,0,0,1.51,2.45,29.54,29.54,0,0,1,2.33,2.37l-.38.31c2,3,2.42,3.28,2.85,3.46s.82.29,2.38,3.16c-.65-.68-1.34-1.32-2-2,.68.9,1.33,1.83,2,2.77l-.83-.31a29.36,29.36,0,0,1,4.26,7.24c-.08-.9,1,0,2.42,2.9.64,2.11-.91-.92,1,3.18a7.12,7.12,0,0,1-1.91-3.65c-.23-.11-.73-.76-1-.88.4,1.11,1,2.45,1.56,3.7s1.14,2.41,1.44,3.16a14.58,14.58,0,0,1-.55-1.68c1,1.94,2.06,3.87,3,5.87.18,1-.24.31-.64-.4a40.57,40.57,0,0,1,1.63,3.87c-.54-.35-.82-.14-1.91-2.67.43.95.8,1.91,1.18,2.88s.78,1.92,1.1,2.91c-.06.45.37,3.2,0,2.46.61,3.35,2.64,8,2.87,12.65a6.7,6.7,0,0,1,.39,1.66c.4,4.29.08,8.09.58,13.18-.26,1-.5,1.91-.77,2.86-.08,4,1.11-3.87,1,2.79-.15,4.73-.74,1.7-1.08,3.33a27.4,27.4,0,0,1-1.11,10.66c.17-1.43.43-2.52.63-3.84l-1,3.17c.1-4,.69-6.78-.3-3.85.61.33.17,3.49-.54,6.59s-1.52,6.17-1,6.58l-.9,2c.19-.59.14-.71.33-1.3a7.75,7.75,0,0,0-1,3.71,10.36,10.36,0,0,1-1.14,4.66c-.78,1.74-1.54,2.86-1.15,1.61-.48,1.33-.93,2.68-1.42,4-.48.91-.61.79-.31.1-.84,1.79-1.67,3.59-2.62,5.33v-.06c-.13.46-.36,1.19-.63,1.92s-.59,1.45-.79,1.93c-1,1.32.3-.78-.06-.51-.52,1.09-1,2.19-1.6,3.24-1.1,1,.27-1.62,1.54-3.74a6.34,6.34,0,0,0-2.27,2.87,19.79,19.79,0,0,1-3.67,5.39l1.8-2.85a13.73,13.73,0,0,0-2.6,2.66l-3.3,4.19c.37-.35,1.74-1.95,2.84-2.91a3,3,0,0,1,1.12-.8c.17,0,.12.29-.42,1.2a16,16,0,0,0-2.59,4.18c-.42-.23-1.47,1.7-2.61,4.19l-.5-.44c-1.08,2.79-.66,2.71-1,4.43-1.2,3.06-1.79,3.6-2.44,4.24C94.85,232.79,97.94,224.31,96.52,230.42ZM112.76,280a23.74,23.74,0,0,1,2.32,2.18A10,10,0,0,1,112.76,280Zm12.06,9.27-1.19-.52-.79-.45c.44.22.87.45,1.33.65l.73.32Zm.92.38h0c.23.11.46.19.69.29Zm6.31,2.45a6.07,6.07,0,0,0-.57-.31l.6.21Zm.36-1.24.1-.13.5.14A4.16,4.16,0,0,0,132.41,290.82Zm56.26-5c-.08-.08-.54,0,.24-.24A1.08,1.08,0,0,0,188.67,285.86Zm93.1-91.09c-.87,2-.55,1.27,0-.1Z"/><polyline class="cls-1" points="147.26 1.67 147.26 1.59 147.26 1.67"/><polygon class="cls-1" points="124.71 135.14 124.83 135.42 124.82 135.27 124.71 135.14"/><path class="cls-1" d="M250.87,251.91a10.58,10.58,0,0,1-1.48,1.08C249.43,253.11,249.81,252.89,250.87,251.91Z"/><path class="cls-1" d="M287.59,167.64l-.22,2.54a16.12,16.12,0,0,1,.49-2.51C287.76,167.71,287.58,168.09,287.59,167.64Z"/><path class="cls-1" d="M291.78,142.64c-.09-.42-.06-.89-.15-1.31l-.21.13C291.55,143.25,291.76,144.51,291.78,142.64Z"/><path class="cls-1" d="M290.14,160.92l0,.36c-.53-.64-.48,1.51-.54,3.65C290,164.75,290,162.93,290.14,160.92Z"/><path class="cls-1" d="M290.31,158.6c-.2-.25-.11.75-.15,1.86C290.2,159.84,290.24,159.2,290.31,158.6Z"/><path class="cls-1" d="M284.68,185c.36-.88-.32-.7,0-1.18C284.45,182.68,283.52,190.05,284.68,185Z"/><path class="cls-1" d="M290.77,165.29c.12-.61.22-1.23.3-1.84l-.56.67C290.61,164.51,290.68,164.9,290.77,165.29Z"/><path class="cls-1" d="M288.38,177.93c-.19.76-.29,1.28-.21,1.26.31-1,.54-2.09.78-3.15-.09,0-.07-.38,0-.88C288.74,176.13,288.54,177.16,288.38,177.93Z"/><path class="cls-1" d="M288.94,175.16a24.14,24.14,0,0,0,.39-2.58C289.23,173.14,289,174.33,288.94,175.16Z"/><polygon class="cls-1" points="290.1 171.07 290.67 167.87 290.44 168.8 290.1 171.07"/><path class="cls-1" d="M275.14,215.1c0,.4.52-.41,1.06-1.61.27-.81.81-2,.41-1.6Z"/><path class="cls-1" d="M281.85,204.32l.39-1.66a5,5,0,0,1-.92,1.32Z"/><path class="cls-1" d="M278.15,212.22c0,.39-1.91,4.84.11.78C278.27,212.6,279.76,209.35,278.15,212.22Z"/><polygon class="cls-1" points="245.72 254.51 246.36 253.88 245.57 253.23 245.72 254.51"/><path class="cls-1" d="M209.86,280.88c-2.22,1.31-3.51,1.75-2.16,1.86,4-1.58.66-1,4.28-2.34C212.78,279.76,209,281.5,209.86,280.88Z"/><path class="cls-1" d="M209.86,280.88c.36-.21.73-.44,1.12-.69C210.34,280.56,210,280.75,209.86,280.88Z"/><path class="cls-1" d="M243.2,43.57l1.77,2-1-1.44C243.71,43.94,243.47,43.74,243.2,43.57Z"/><path class="cls-1" d="M247.4,46.56v.9l1.56.69A9.3,9.3,0,0,1,247.4,46.56Z"/><path class="cls-1" d="M124.31,156.71c-.14,1.2-.15,2.63-.29,3.84C124.17,157.92,125.08,156.44,124.31,156.71Z"/></g></g></svg>