<svg xmlns="http://www.w3.org/2000/svg" width="307.565" height="108.541" viewBox="0 0 307.565 108.541">
  <g id="Group_4" data-name="Group 4" transform="translate(-65 -38)">
    <g id="Layer_2" data-name="Layer 2" transform="translate(64.999 38)">
      <g id="Ebene_1" data-name="Ebene 1" transform="translate(0.001)">
        <path id="Path_315" data-name="Path 315" d="M140.78,295.508l.734.092c-.235-.128.859,0-.914-.139Z" transform="translate(-89.016 -187.059)" fill="#1a1a1a"/>
        <path id="Path_316" data-name="Path 316" d="M143.811,289.58c-.98.026-.781.092-.227.205l.961-.051C144.351,289.653,143.507,289.617,143.811,289.58Z" transform="translate(-90.613 -183.336)" fill="#1a1a1a"/>
        <path id="Path_317" data-name="Path 317" d="M141.93,290.51l.5-.026A.976.976,0,0,0,141.93,290.51Z" transform="translate(-89.858 -183.896)" fill="#1a1a1a"/>
        <path id="Path_318" data-name="Path 318" d="M144.333,290.38l-1.053.051c.139.048.15.132.484,0C143.676,290.49,143.885,290.42,144.333,290.38Z" transform="translate(-90.712 -183.843)" fill="#1a1a1a"/>
        <path id="Path_319" data-name="Path 319" d="M144.249,295.06H143.2c-.216,0-.3,0-.271.04a1.361,1.361,0,0,0,.459.1c.268.026.653.048,1.145.062C143.956,295.174,143.226,295.1,144.249,295.06Z" transform="translate(-90.486 -186.806)" fill="#1a1a1a"/>
        <path id="Path_320" data-name="Path 320" d="M121.653,288.268l-.1-.018a.1.1,0,0,0,.1.018Z" transform="translate(-76.955 -182.494)" fill="#1a1a1a"/>
        <path id="Path_321" data-name="Path 321" d="M121.62,288.88l.554.048-.411-.088Z" transform="translate(-76.999 -182.868)" fill="#1a1a1a"/>
        <path id="Path_322" data-name="Path 322" d="M128.376,291.608c-.066-.022-.062-.033-.066-.048C128.167,291.564,128.123,291.567,128.376,291.608Z" transform="translate(-81.162 -184.59)" fill="#1a1a1a"/>
        <path id="Path_323" data-name="Path 323" d="M123.588,289.667l-.062-.048C123.492,289.616,123.518,289.638,123.588,289.667Z" transform="translate(-78.197 -183.361)" fill="#1a1a1a"/>
        <path id="Path_324" data-name="Path 324" d="M176.988,291.978l.055-.018-.073.011Z" transform="translate(-112.042 -184.843)" fill="#1a1a1a"/>
        <path id="Path_325" data-name="Path 325" d="M172.3,291.883a4.7,4.7,0,0,1,1.724-.466l-.668-.338Z" transform="translate(-109.085 -184.286)" fill="#1a1a1a"/>
        <path id="Path_326" data-name="Path 326" d="M147.26.827v0Z" transform="translate(-93.232 -0.519)" fill="#1a1a1a"/>
        <path id="Path_327" data-name="Path 327" d="M147.26.43Z" transform="translate(-93.232 -0.272)" fill="#1a1a1a"/>
        <path id="Path_328" data-name="Path 328" d="M147.26,1.52Z" transform="translate(-93.232 -0.962)" fill="#1a1a1a"/>
        <path id="Path_329" data-name="Path 329" d="M147.26,1.25v0Z" transform="translate(-93.232 -0.791)" fill="#1a1a1a"/>
        <path id="Path_330" data-name="Path 330" d="M147.26,1.3Z" transform="translate(-93.232 -0.823)" fill="#1a1a1a"/>
        <path id="Path_331" data-name="Path 331" d="M147.26.63Z" transform="translate(-93.232 -0.399)" fill="#1a1a1a"/>
        <path id="Path_332" data-name="Path 332" d="M147.26,1.452V1.43h0Z" transform="translate(-93.232 -0.905)" fill="#1a1a1a"/>
        <path id="Path_333" data-name="Path 333" d="M147.26.26v0Z" transform="translate(-93.232 -0.165)" fill="#1a1a1a"/>
        <path id="Path_334" data-name="Path 334" d="M147.255.246V.194C147.252.147,147.252.158,147.255.246Z" transform="translate(-93.227)" fill="#1a1a1a"/>
        <path id="Path_335" data-name="Path 335" d="M147.25.85Z" transform="translate(-93.226 -0.538)" fill="#1a1a1a"/>
        <path id="Path_336" data-name="Path 336" d="M147.25,1.25v.132C147.254,1.334,147.25,1.257,147.25,1.25Z" transform="translate(-93.226 -0.791)" fill="#1a1a1a"/>
        <path id="Path_337" data-name="Path 337" d="M147.26,1.54Z" transform="translate(-93.232 -0.975)" fill="#1a1a1a"/>
        <path id="Path_338" data-name="Path 338" d="M147.25,1.29Z" transform="translate(-93.226 -0.817)" fill="#1a1a1a"/>
        <path id="Path_339" data-name="Path 339" d="M147.26,1.28Z" transform="translate(-93.232 -0.81)" fill="#1a1a1a"/>
        <path id="Path_340" data-name="Path 340" d="M147.25,1.524V1.48h0Z" transform="translate(-93.226 -0.937)" fill="#1a1a1a"/>
        <path id="Path_341" data-name="Path 341" d="M147.25,1.423Zm0-.073Z" transform="translate(-93.226 -0.855)" fill="#1a1a1a"/>
        <path id="Path_342" data-name="Path 342" d="M147.25.979v0Z" transform="translate(-93.226 -0.513)" fill="#1a1a1a"/>
        <path id="Path_343" data-name="Path 343" d="M147.25.93v0Z" transform="translate(-93.226 -0.589)" fill="#1a1a1a"/>
        <path id="Path_344" data-name="Path 344" d="M147.23,1.65Z" transform="translate(-93.213 -1.045)" fill="#1a1a1a"/>
        <path id="Path_345" data-name="Path 345" d="M147.23.83v0Z" transform="translate(-93.213 -0.525)" fill="#1a1a1a"/>
        <path id="Path_346" data-name="Path 346" d="M147.23,1.32Z" transform="translate(-93.213 -0.836)" fill="#1a1a1a"/>
        <path id="Path_347" data-name="Path 347" d="M147.26,5.79Z" transform="translate(-93.232 -3.666)" fill="#1a1a1a"/>
        <path id="Path_348" data-name="Path 348" d="M147.25,1.17Z" transform="translate(-93.226 -0.741)" fill="#1a1a1a"/>
        <path id="Path_349" data-name="Path 349" d="M147.25,1.13v0Z" transform="translate(-93.226 -0.715)" fill="#1a1a1a"/>
        <path id="Path_350" data-name="Path 350" d="M147.24,5.851v0Z" transform="translate(-93.22 -3.697)" fill="#1a1a1a"/>
        <path id="Path_351" data-name="Path 351" d="M147.25,1.75v0Z" transform="translate(-93.226 -1.108)" fill="#1a1a1a"/>
        <path id="Path_352" data-name="Path 352" d="M147.23,1.385v0Z" transform="translate(-93.213 -0.867)" fill="#1a1a1a"/>
        <path id="Path_353" data-name="Path 353" d="M147.22,1.36Z" transform="translate(-93.207 -0.861)" fill="#1a1a1a"/>
        <path id="Path_354" data-name="Path 354" d="M147.25.92Z" transform="translate(-93.226 -0.582)" fill="#1a1a1a"/>
        <path id="Path_355" data-name="Path 355" d="M147.25,1.11Z" transform="translate(-93.226 -0.703)" fill="#1a1a1a"/>
        <path id="Path_356" data-name="Path 356" d="M147.24,5.78Z" transform="translate(-93.22 -3.659)" fill="#1a1a1a"/>
        <path id="Path_357" data-name="Path 357" d="M147.26,6.228v0Z" transform="translate(-93.232 -3.913)" fill="#1a1a1a"/>
        <path id="Path_358" data-name="Path 358" d="M147.23.36Z" transform="translate(-93.213 -0.228)" fill="#1a1a1a"/>
        <path id="Path_359" data-name="Path 359" d="M147.24.1Z" transform="translate(-93.22 -0.063)" fill="#1a1a1a"/>
        <path id="Path_360" data-name="Path 360" d="M100.854,267.059c-.22-.422-.271-.205-.334-.253C100.942,267.492,100.88,267.022,100.854,267.059Z" transform="translate(-63.641 -168.909)" fill="#1a1a1a"/>
        <path id="Path_361" data-name="Path 361" d="M117.3,286.574c-.367,0-.734-.029-1.075-.044l.466.04C116.9,286.57,117.1,286.581,117.3,286.574Z" transform="translate(-73.587 -181.405)" fill="#1a1a1a"/>
        <path id="Path_362" data-name="Path 362" d="M107,283.654a16.686,16.686,0,0,0-1.878-.334,10.981,10.981,0,0,1,1.945.613C107.519,283.936,106.544,283.592,107,283.654Z" transform="translate(-66.553 -179.373)" fill="#1a1a1a"/>
        <path id="Path_363" data-name="Path 363" d="M103.531,283a8.7,8.7,0,0,0-.921-.187C102.9,282.88,103.2,282.935,103.531,283Z" transform="translate(-64.964 -179.05)" fill="#1a1a1a"/>
        <path id="Path_364" data-name="Path 364" d="M118.951,287.756h0c-.444-.081-.752-.139-.881-.176C118.165,287.606,118.433,287.661,118.951,287.756Z" transform="translate(-74.752 -182.07)" fill="#1a1a1a"/>
        <path id="Path_365" data-name="Path 365" d="M104.77,284.073a8.171,8.171,0,0,1-1.57-.393,16.446,16.446,0,0,0,1.834.609C105.145,284.267,105.434,284.256,104.77,284.073Z" transform="translate(-65.337 -179.601)" fill="#1a1a1a"/>
        <path id="Path_366" data-name="Path 366" d="M113.556,286.55h-.106C113.512,286.565,113.564,286.579,113.556,286.55Z" transform="translate(-71.827 -181.418)" fill="#1a1a1a"/>
        <path id="Path_367" data-name="Path 367" d="M88.283,277.866l.033-.015-.106-.051Z" transform="translate(-55.847 -175.878)" fill="#1a1a1a"/>
        <path id="Path_368" data-name="Path 368" d="M108.282,285.4a3.92,3.92,0,0,0,1.024.231c-.367-.084-.734-.176-1.1-.29C108.143,285.351,108.132,285.362,108.282,285.4Z" transform="translate(-68.479 -180.652)" fill="#1a1a1a"/>
        <path id="Path_369" data-name="Path 369" d="M99.063,281.877a3.509,3.509,0,0,0-.763-.367A6.738,6.738,0,0,0,99.063,281.877Z" transform="translate(-62.235 -178.227)" fill="#1a1a1a"/>
        <path id="Path_370" data-name="Path 370" d="M112.975,286.235h.07C112.9,286.177,112.916,286.2,112.975,286.235Z" transform="translate(-71.499 -181.195)" fill="#1a1a1a"/>
        <path id="Path_371" data-name="Path 371" d="M111.28,286.13a7.021,7.021,0,0,0,.8.139,1.069,1.069,0,0,1-.147-.077C111.68,286.156,111.478,286.156,111.28,286.13Z" transform="translate(-70.453 -181.152)" fill="#1a1a1a"/>
        <path id="Path_372" data-name="Path 372" d="M81.722,276.612c.319.235,2.2,1.192,1.269.925a4.928,4.928,0,0,1-1.706-.936c.47.444-1.8-.627-1.64-.246l1.211.514c0,.051-.451-.11-.143.092a1.878,1.878,0,0,1,.848.235,8.181,8.181,0,0,1,1.468.734c1.046.367.576-.385-.172-1.016C82.8,276.943,82.775,277,81.722,276.612Z" transform="translate(-50.42 -174.911)" fill="#1a1a1a"/>
        <path id="Path_373" data-name="Path 373" d="M88.5,277.928c.679.316,1.357.642,2.062.91l-.154-.037.433.15a8.707,8.707,0,0,1-1.387-.781C88.735,277.92,88.566,277.906,88.5,277.928Z" transform="translate(-56.031 -175.954)" fill="#1a1a1a"/>
        <path id="Path_374" data-name="Path 374" d="M96.917,281.453h0c.084.051.11.07,0,.026h-.044a.275.275,0,0,1-.114.026c-.583-.231-.081-.07.114-.026H96.9c-.7-.191-1.38-.44-2.062-.679.209.1.448.194.752.312l.517.2.653.209a5.027,5.027,0,0,1-.8-.073c-.238-.033-.367,0-.073.191a7.179,7.179,0,0,0,1.724.367c-2.073-.66.62.117-.837-.473.411.114.778.227,1.1.338q-.55-.215-1.035-.429Z" transform="translate(-60.045 -177.777)" fill="#1a1a1a"/>
        <path id="Path_375" data-name="Path 375" d="M108.759,286.889l-.022-.092a2.5,2.5,0,0,0,.792.176c.1,0,.081-.055.15-.07-.6-.1-1.185-.268-1.779-.4Z" transform="translate(-68.313 -181.386)" fill="#1a1a1a"/>
        <path id="Path_376" data-name="Path 376" d="M85.71,276.64l.759.271.29-.055Z" transform="translate(-54.264 -175.144)" fill="#1a1a1a"/>
        <path id="Path_377" data-name="Path 377" d="M80.8,273.81l.448.293.147-.092Z" transform="translate(-51.156 -173.352)" fill="#1a1a1a"/>
        <path id="Path_378" data-name="Path 378" d="M129.24,2.424l.539-.114C129.519,2.358,129.361,2.394,129.24,2.424Z" transform="translate(-81.824 -1.462)" fill="#1a1a1a"/>
        <path id="Path_379" data-name="Path 379" d="M118.4,4.307l-.081.088C118.492,4.321,118.569,4.281,118.4,4.307Z" transform="translate(-74.91 -2.722)" fill="#1a1a1a"/>
        <path id="Path_380" data-name="Path 380" d="M5.19,144.017c.154-.774.367-1.622.22-1.537l-.165.231a8.974,8.974,0,0,1-.055,1.306Z" transform="translate(-3.286 -90.202)" fill="#1a1a1a"/>
        <path id="Path_381" data-name="Path 381" d="M42.678,47.8c-.066.04-.128.088-.194.132l-.253.492Z" transform="translate(-26.737 -30.263)" fill="#1a1a1a"/>
        <path id="Path_382" data-name="Path 382" d="M44.039,43.65c-.194.136-.462.345-.829.653Z" transform="translate(-27.357 -27.635)" fill="#1a1a1a"/>
        <path id="Path_383" data-name="Path 383" d="M110.557,23.22l-.257.554C110.891,23.07,110.557,23.326,110.557,23.22Z" transform="translate(-69.832 -14.701)" fill="#1a1a1a"/>
        <path id="Path_384" data-name="Path 384" d="M31.044,230.023c-.338-.583-.62-1.027-.884-1.413A5.047,5.047,0,0,0,31.044,230.023Z" transform="translate(-19.095 -144.735)" fill="#1a1a1a"/>
        <path id="Path_385" data-name="Path 385" d="M27.28,224.22l.158.316c.294.393.554.807.9,1.3a8.437,8.437,0,0,0-1.057-1.611Z" transform="translate(-17.272 -141.956)" fill="#1a1a1a"/>
        <path id="Path_386" data-name="Path 386" d="M59,204.06c.026.051.059.106.081.154S59.051,204.152,59,204.06Z" transform="translate(-37.354 -129.193)" fill="#1a1a1a"/>
        <path id="Path_387" data-name="Path 387" d="M64.24,265.764a.367.367,0,0,1,.205.051C64.35,265.767,64.269,265.738,64.24,265.764Z" transform="translate(-40.671 -168.252)" fill="#1a1a1a"/>
        <path id="Path_388" data-name="Path 388" d="M18.168,213.64l-.018-.04C18.19,213.747,18.183,213.725,18.168,213.64Z" transform="translate(-11.491 -135.232)" fill="#1a1a1a"/>
        <path id="Path_389" data-name="Path 389" d="M61.183,261.259q-.2-.2-.473-.429A3.863,3.863,0,0,0,61.183,261.259Z" transform="translate(-38.437 -165.134)" fill="#1a1a1a"/>
        <path id="Path_390" data-name="Path 390" d="M61.89,261.69a3.534,3.534,0,0,0,.338.272C62.3,261.973,62.25,261.943,61.89,261.69Z" transform="translate(-39.184 -165.679)" fill="#1a1a1a"/>
        <path id="Path_391" data-name="Path 391" d="M59,259.46c.224.172.426.341.62.51-.07-.07-.1-.1-.073-.092Z" transform="translate(-37.354 -164.267)" fill="#1a1a1a"/>
        <path id="Path_392" data-name="Path 392" d="M54.194,98.21l-.07.088C53.937,98.768,54.036,98.57,54.194,98.21Z" transform="translate(-34.203 -62.178)" fill="#1a1a1a"/>
        <path id="Path_393" data-name="Path 393" d="M5.6,110.595l-.011.059.029-.073Z" transform="translate(-3.539 -70.009)" fill="#1a1a1a"/>
        <path id="Path_394" data-name="Path 394" d="M6.047,105.68a5.026,5.026,0,0,1-.367,1.8l.605-.462Z" transform="translate(-3.596 -66.907)" fill="#1a1a1a"/>
        <path id="Path_395" data-name="Path 395" d="M124.45,3.337l.227-.037a2.117,2.117,0,0,0-.227.037Z" transform="translate(-78.791 -2.089)" fill="#1a1a1a"/>
        <path id="Path_396" data-name="Path 396" d="M54.418,196.168c-.029-.066-.062-.132-.088-.2C54.348,196.014,54.378,196.084,54.418,196.168Z" transform="translate(-34.397 -124.071)" fill="#1a1a1a"/>
        <path id="Path_397" data-name="Path 397" d="M43.22,45.482a.238.238,0,0,1,.18-.048C43.484,45.313,43.462,45.284,43.22,45.482Z" transform="translate(-27.363 -28.704)" fill="#1a1a1a"/>
        <path id="Path_398" data-name="Path 398" d="M111.038,22.93l-.037.04-.011.066Z" transform="translate(-70.269 -14.517)" fill="#1a1a1a"/>
        <path id="Path_399" data-name="Path 399" d="M8.786,196.062a4.035,4.035,0,0,1-.136-.682C8.6,195.372,8.621,195.537,8.786,196.062Z" transform="translate(-5.463 -123.697)" fill="#1a1a1a"/>
        <path id="Path_400" data-name="Path 400" d="M70.393,267.477,69.56,267a6.051,6.051,0,0,1,.785.572C70.345,267.525,70.242,267.4,70.393,267.477Z" transform="translate(-44.04 -169.041)" fill="#1a1a1a"/>
        <path id="Path_401" data-name="Path 401" d="M93.087,282.469c.158.037.319.121.473.161v-.1C92.911,282.289,92.442,282.19,93.087,282.469Z" transform="translate(-58.74 -178.728)" fill="#1a1a1a"/>
        <path id="Path_402" data-name="Path 402" d="M73.57,271.27c0,.169.616.47,1.291.826l-.117-.066C75.041,271.96,74.3,271.615,73.57,271.27Z" transform="translate(-46.578 -171.744)" fill="#1a1a1a"/>
        <path id="Path_403" data-name="Path 403" d="M77.51,273.75c.209.11.415.231.616.345C78.244,274.066,77.884,273.944,77.51,273.75Z" transform="translate(-49.073 -173.314)" fill="#1a1a1a"/>
        <path id="Path_404" data-name="Path 404" d="M55.871,257.277c.257.257.3,0,.418.165.22.048-.294-.264-.635-.484S55.1,256.672,55.871,257.277Z" transform="translate(-35.04 -162.583)" fill="#1a1a1a"/>
        <path id="Path_405" data-name="Path 405" d="M72.73,272.22l.594.382-.147-.294Z" transform="translate(-46.046 -172.345)" fill="#1a1a1a"/>
        <path id="Path_406" data-name="Path 406" d="M61.749,264.586c0-.037.139.04.3.139a11.149,11.149,0,0,0-1.269-.9C61.1,264.087,61.426,264.333,61.749,264.586Z" transform="translate(-38.481 -167.034)" fill="#1a1a1a"/>
        <path id="Path_407" data-name="Path 407" d="M65.062,266.817c-.172-.125-.55-.367-.822-.547A8.444,8.444,0,0,0,65.062,266.817Z" transform="translate(-40.671 -168.578)" fill="#1a1a1a"/>
        <path id="Path_408" data-name="Path 408" d="M67.61,269.08l1.009.708-.286-.227Z" transform="translate(-42.805 -170.357)" fill="#1a1a1a"/>
        <path id="Path_409" data-name="Path 409" d="M32.665,236.073c-.136-.07.062.242.389.616.231.227.558.6.481.4Z" transform="translate(-20.654 -149.454)" fill="#1a1a1a"/>
        <path id="Path_410" data-name="Path 410" d="M40,246.785l.5.4a2.157,2.157,0,0,1-.308-.525Z" transform="translate(-25.325 -156.163)" fill="#1a1a1a"/>
        <path id="Path_411" data-name="Path 411" d="M32.644,238.875c.128.073,1.016,1.1.283.092C32.795,238.919,31.569,237.536,32.644,238.875Z" transform="translate(-20.39 -150.866)" fill="#1a1a1a"/>
        <path id="Path_412" data-name="Path 412" d="M9.308,191.465c-.15-.055-.3-.106-.448-.165.029.11.07.216.106.323Z" transform="translate(-5.61 -121.114)" fill="#1a1a1a"/>
        <path id="Path_413" data-name="Path 413" d="M.1,144.8c.077.367.121-1.189.187-.8-.07-.976,0-1.486-.26-1.046C-.1,144.569.25,143.343.1,144.8Z" transform="translate(-0.001 -90.405)" fill="#1a1a1a"/>
        <path id="Path_414" data-name="Path 414" d="M.79,146.08a3.022,3.022,0,0,0,.044.5A4.194,4.194,0,0,0,.79,146.08Z" transform="translate(-0.501 -92.485)" fill="#1a1a1a"/>
        <path id="Path_415" data-name="Path 415" d="M97.972,259.561c-.059-.114-.117-.224-.172-.341q.139.517.3,1.035C98.053,260.023,98.005,259.792,97.972,259.561Z" transform="translate(-61.919 -164.115)" fill="#1a1a1a"/>
        <path id="Path_416" data-name="Path 416" d="M95,9.607l-.051.084a3.834,3.834,0,0,0,.87-.231Z" transform="translate(-60.114 -5.989)" fill="#1a1a1a"/>
        <path id="Path_417" data-name="Path 417" d="M132.3,1.61l-.242.015.473.176Z" transform="translate(-83.609 -1.019)" fill="#1a1a1a"/>
        <path id="Path_418" data-name="Path 418" d="M128.559,10.421c.205-.077.422-.183.638-.283a6.489,6.489,0,0,1,.657-.238c-.448.172-.826.238-1.06.316S128.452,10.322,128.559,10.421Z" transform="translate(-81.366 -6.268)" fill="#1a1a1a"/>
        <path id="Path_419" data-name="Path 419" d="M117.85,188.238c.059-.161.1-.327.154-.488C117.923,187.977,117.905,188.132,117.85,188.238Z" transform="translate(-74.612 -118.867)" fill="#1a1a1a"/>
        <path id="Path_420" data-name="Path 420" d="M113.43,198.035l.022.114C113.5,197.98,113.507,197.9,113.43,198.035Z" transform="translate(-71.814 -125.335)" fill="#1a1a1a"/>
        <path id="Path_421" data-name="Path 421" d="M110.34,276.25c.037.066.073.136.114.2.158.106.327.187.466.268a6.531,6.531,0,0,1-.58-.47Z" transform="translate(-69.858 -174.897)" fill="#1a1a1a"/>
        <path id="Path_422" data-name="Path 422" d="M106.47,273.9a6.024,6.024,0,0,0,.565.877C106.826,274.5,106.664,274.2,106.47,273.9Z" transform="translate(-67.408 -173.409)" fill="#1a1a1a"/>
        <path id="Path_423" data-name="Path 423" d="M120.354,193.879c.11-.312.136-.455.1-.459C120.343,193.739,120.291,193.923,120.354,193.879Z" transform="translate(-76.18 -122.456)" fill="#1a1a1a"/>
        <path id="Path_424" data-name="Path 424" d="M185.18,6.32l.161.062C185.363,6.368,185.29,6.346,185.18,6.32Z" transform="translate(-117.24 -4.001)" fill="#1a1a1a"/>
        <path id="Path_425" data-name="Path 425" d="M99.29,77.11a2.382,2.382,0,0,0,.15.294C99.385,77.3,99.338,77.205,99.29,77.11Z" transform="translate(-62.862 -48.819)" fill="#1a1a1a"/>
        <path id="Path_426" data-name="Path 426" d="M108.085,275.918a.268.268,0,0,1-.029-.183C107.938,275.643,107.909,275.665,108.085,275.918Z" transform="translate(-68.351 -174.539)" fill="#1a1a1a"/>
        <path id="Path_427" data-name="Path 427" d="M100.764,215.2c-.18.213-.341.437-.514.657v.1a3.874,3.874,0,0,0,.514-.756Z" transform="translate(-63.47 -136.245)" fill="#1a1a1a"/>
        <path id="Path_428" data-name="Path 428" d="M118.338,185.586l-.088.205.356-.312Z" transform="translate(-74.866 -117.429)" fill="#1a1a1a"/>
        <path id="Path_429" data-name="Path 429" d="M146.66,44.48Z" transform="translate(-92.852 -28.161)" fill="#1a1a1a"/>
        <path id="Path_430" data-name="Path 430" d="M146.69,44.53Z" transform="translate(-92.871 -28.192)" fill="#1a1a1a"/>
        <path id="Path_431" data-name="Path 431" d="M146.687,44.44v.209C146.684,44.6,146.687,44.539,146.687,44.44Z" transform="translate(-92.869 -28.135)" fill="#1a1a1a"/>
        <path id="Path_432" data-name="Path 432" d="M146.705,43.92v.029C146.7,43.986,146.7,43.993,146.705,43.92Z" transform="translate(-92.879 -27.806)" fill="#1a1a1a"/>
        <path id="Path_433" data-name="Path 433" d="M146.7,43.892v0Z" transform="translate(-92.878 -27.749)" fill="#1a1a1a"/>
        <path id="Path_434" data-name="Path 434" d="M146.7,43.823V43.64A1.735,1.735,0,0,0,146.7,43.823Z" transform="translate(-92.874 -27.629)" fill="#1a1a1a"/>
        <path id="Path_435" data-name="Path 435" d="M146.7,44.21v.22A1.463,1.463,0,0,1,146.7,44.21Z" transform="translate(-92.877 -27.99)" fill="#1a1a1a"/>
        <path id="Path_436" data-name="Path 436" d="M146.706,44.077V44A.339.339,0,0,0,146.706,44.077Z" transform="translate(-92.88 -27.857)" fill="#1a1a1a"/>
        <path id="Path_437" data-name="Path 437" d="M146.687,44.65l0,.066,0,.128Z" transform="translate(-92.865 -28.268)" fill="#1a1a1a"/>
        <path id="Path_438" data-name="Path 438" d="M146.683,44.821v.194A1.072,1.072,0,0,1,146.683,44.821Z" transform="translate(-92.864 -28.344)" fill="#1a1a1a"/>
        <path id="Path_439" data-name="Path 439" d="M146.69,44.707V44.59A.594.594,0,0,1,146.69,44.707Z" transform="translate(-92.871 -28.23)" fill="#1a1a1a"/>
        <path id="Path_440" data-name="Path 440" d="M146.72,44v0Z" transform="translate(-92.89 -27.857)" fill="#1a1a1a"/>
        <path id="Path_441" data-name="Path 441" d="M146.72,44.02v0Z" transform="translate(-92.89 -27.87)" fill="#1a1a1a"/>
        <path id="Path_442" data-name="Path 442" d="M146.72,44Z" transform="translate(-92.89 -27.857)" fill="#1a1a1a"/>
        <path id="Path_443" data-name="Path 443" d="M146.72,43.537V43.39C146.724,43.434,146.72,43.493,146.72,43.537Z" transform="translate(-92.89 -27.471)" fill="#1a1a1a"/>
        <path id="Path_444" data-name="Path 444" d="M146.72,43.962V43.83C146.724,43.892,146.72,43.955,146.72,43.962Z" transform="translate(-92.89 -27.749)" fill="#1a1a1a"/>
        <path id="Path_445" data-name="Path 445" d="M146.72,44.07Z" transform="translate(-92.89 -27.901)" fill="#1a1a1a"/>
        <path id="Path_446" data-name="Path 446" d="M146.74,43.909l0-.029,0,.026Z" transform="translate(-92.903 -27.781)" fill="#1a1a1a"/>
        <path id="Path_447" data-name="Path 447" d="M146.717,44.238V44.15C146.717,44.2,146.714,44.278,146.717,44.238Z" transform="translate(-92.888 -27.952)" fill="#1a1a1a"/>
        <path id="Path_448" data-name="Path 448" d="M146.717,44.16h0C146.714,44.2,146.717,44.186,146.717,44.16Z" transform="translate(-92.888 -27.958)" fill="#1a1a1a"/>
        <path id="Path_449" data-name="Path 449" d="M146.74,43.808h0V43.79Z" transform="translate(-92.903 -27.724)" fill="#1a1a1a"/>
        <path id="Path_450" data-name="Path 450" d="M146.717,44.05l-.007.169.011-.238Z" transform="translate(-92.884 -27.844)" fill="#1a1a1a"/>
        <path id="Path_451" data-name="Path 451" d="M146.727,44.12l-.007.143,0-.088Z" transform="translate(-92.89 -27.933)" fill="#1a1a1a"/>
        <path id="Path_452" data-name="Path 452" d="M146.744,41.566v-.121h0a.606.606,0,0,1,0,.088v-.088h0V41.4a1.347,1.347,0,0,1-.029.264v-.128h0a1.746,1.746,0,1,1-.022.18l.022-.158Z" transform="translate(-92.87 -25.383)" fill="#1a1a1a"/>
        <path id="Path_453" data-name="Path 453" d="M146.79,43.893v.1C146.79,43.893,146.8,43.746,146.79,43.893Z" transform="translate(-92.935 -27.75)" fill="#1a1a1a"/>
        <path id="Path_454" data-name="Path 454" d="M146.768,44.22h0C146.761,44.286,146.757,44.33,146.768,44.22Z" transform="translate(-92.916 -27.996)" fill="#1a1a1a"/>
        <path id="Path_455" data-name="Path 455" d="M146.65,43.49Z" transform="translate(-92.846 -27.534)" fill="#1a1a1a"/>
        <path id="Path_456" data-name="Path 456" d="M146.74,44.32Z" transform="translate(-92.903 -28.059)" fill="#1a1a1a"/>
        <path id="Path_457" data-name="Path 457" d="M146.744,44.24l0,.026,0-.011Z" transform="translate(-92.903 -28.009)" fill="#1a1a1a"/>
        <path id="Path_458" data-name="Path 458" d="M146.77,44.345v0Z" transform="translate(-92.922 -28.066)" fill="#1a1a1a"/>
        <path id="Path_459" data-name="Path 459" d="M146.6,43.716l0-.066v.011Z" transform="translate(-92.814 -27.635)" fill="#1a1a1a"/>
        <path id="Path_460" data-name="Path 460" d="M146.84,44.02h0v-.07h0Z" transform="translate(-92.966 -27.825)" fill="#1a1a1a"/>
        <path id="Path_461" data-name="Path 461" d="M146.8,43.775V43.76l0,.051Z" transform="translate(-92.941 -27.705)" fill="#1a1a1a"/>
        <path id="Path_462" data-name="Path 462" d="M146.9,43.66v0Z" transform="translate(-93.004 -27.642)" fill="#1a1a1a"/>
        <path id="Path_463" data-name="Path 463" d="M146.887,43.59l-.007.07v-.007Z" transform="translate(-92.992 -27.597)" fill="#1a1a1a"/>
        <path id="Path_464" data-name="Path 464" d="M146.8,44h0v0Z" transform="translate(-92.941 -27.857)" fill="#1a1a1a"/>
        <path id="Path_465" data-name="Path 465" d="M146.8,43.826v0Z" transform="translate(-92.941 -27.683)" fill="#1a1a1a"/>
        <path id="Path_466" data-name="Path 466" d="M146.74,44.24v0Z" transform="translate(-92.903 -28.009)" fill="#1a1a1a"/>
        <path id="Path_467" data-name="Path 467" d="M146.756,43.968V44.1C146.734,44.276,146.763,43.858,146.756,43.968Z" transform="translate(-92.908 -27.825)" fill="#1a1a1a"/>
        <path id="Path_468" data-name="Path 468" d="M146.664,44.025l0-.125v.048Z" transform="translate(-92.852 -27.794)" fill="#1a1a1a"/>
        <path id="Path_469" data-name="Path 469" d="M119.4,287.43l.367.224.411.077a2.136,2.136,0,0,0-.778-.3Z" transform="translate(-75.594 -181.975)" fill="#1a1a1a"/>
        <path id="Path_470" data-name="Path 470" d="M256.7,149.442c-.029-.536-.205-.242-.165-.253C256.529,149.511,256.7,149.4,256.7,149.442Z" transform="translate(-162.415 -94.408)" fill="#1a1a1a"/>
        <path id="Path_471" data-name="Path 471" d="M254.482,133.95l.073.084-.246-.745Z" transform="translate(-161.007 -84.387)" fill="#1a1a1a"/>
        <path id="Path_472" data-name="Path 472" d="M252.545,123.171l.213.734a3.987,3.987,0,0,1,.114.708l-.033.15.271.367c-.187-1.049-.642-2.355-.734-3.1a2.568,2.568,0,0,0,.169,1.141Z" transform="translate(-159.777 -77.258)" fill="#1a1a1a"/>
        <path id="Path_473" data-name="Path 473" d="M251.865,115.083c-.033-.1-.081-.242-.15-.481-.048.187-.26-.517.161.594C251.869,115.135,251.869,115.116,251.865,115.083Z" transform="translate(-159.303 -72.524)" fill="#1a1a1a"/>
        <path id="Path_474" data-name="Path 474" d="M250.3,109.824c0-.158-.2-.734-.081-.536-.3-.646-.3-.488-.249-.077Z" transform="translate(-158.241 -68.916)" fill="#1a1a1a"/>
        <path id="Path_475" data-name="Path 475" d="M249.051,108.679a.5.5,0,0,0-.161-.319Z" transform="translate(-157.575 -68.604)" fill="#1a1a1a"/>
        <path id="Path_476" data-name="Path 476" d="M249.454,109.548c-.1-.033.029.081.194.367l-.345-.675C249.3,109.343,249.223,109.383,249.454,109.548Z" transform="translate(-157.828 -69.161)" fill="#1a1a1a"/>
        <path id="Path_477" data-name="Path 477" d="M250.26,112.442c.437,1.229.554.994.11-.242C250.436,112.582,250.557,113.062,250.26,112.442Z" transform="translate(-158.443 -71.035)" fill="#1a1a1a"/>
        <path id="Path_478" data-name="Path 478" d="M251.721,122.411a3.258,3.258,0,0,1-.114-.554c-.04-.209-.081-.367-.117-.367,0,.169.044.334.051.506Z" transform="translate(-159.221 -76.917)" fill="#1a1a1a"/>
        <path id="Path_479" data-name="Path 479" d="M245.46,99.331l.283.426c-.081-.249-.271-.708-.213-.778C245.46,98.964,245.5,99.254,245.46,99.331Z" transform="translate(-155.404 -62.664)" fill="#1a1a1a"/>
        <path id="Path_480" data-name="Path 480" d="M244.732,98.845l-.422-.635C244.6,98.819,244.7,98.907,244.732,98.845Z" transform="translate(-154.676 -62.178)" fill="#1a1a1a"/>
        <path id="Path_481" data-name="Path 481" d="M248.509,109.046l-.719-1.306.088.22Z" transform="translate(-156.879 -68.211)" fill="#1a1a1a"/>
        <path id="Path_482" data-name="Path 482" d="M241.22,91.32l.235.253c.114.1.22.2.33.308C241.605,91.687,241.411,91.507,241.22,91.32Z" transform="translate(-152.719 -57.816)" fill="#1a1a1a"/>
        <path id="Path_483" data-name="Path 483" d="M237.76,85.234a8.243,8.243,0,0,0-.95-1.024,5.654,5.654,0,0,1,.8,1.244C237.885,85.656,237.511,84.991,237.76,85.234Z" transform="translate(-149.927 -53.314)" fill="#1a1a1a"/>
        <path id="Path_484" data-name="Path 484" d="M235.46,82.92l.5.473A3.031,3.031,0,0,0,235.46,82.92Z" transform="translate(-149.073 -52.498)" fill="#1a1a1a"/>
        <path id="Path_485" data-name="Path 485" d="M242.27,93.46V93.8l.143.26A1.167,1.167,0,0,0,242.27,93.46Z" transform="translate(-153.384 -59.171)" fill="#1a1a1a"/>
        <path id="Path_486" data-name="Path 486" d="M241.768,93.435h0l-.308-.565C241.5,92.918,241.592,93.1,241.768,93.435Z" transform="translate(-152.871 -58.797)" fill="#1a1a1a"/>
        <path id="Path_487" data-name="Path 487" d="M242.727,95.156l-.037-.066Z" transform="translate(-153.65 -60.202)" fill="#1a1a1a"/>
        <path id="Path_488" data-name="Path 488" d="M244.849,101.779c.235.242.092-.257.481.3C245.073,101.7,244.555,100.932,244.849,101.779Z" transform="translate(-154.961 -64.195)" fill="#1a1a1a"/>
        <path id="Path_489" data-name="Path 489" d="M243.159,97.148c.029-.033.018-.191.154,0-.154-.242-.33-.473-.5-.708A7.47,7.47,0,0,1,243.159,97.148Z" transform="translate(-153.726 -61.057)" fill="#1a1a1a"/>
        <path id="Path_490" data-name="Path 490" d="M242.17,95.54l.235.316-.132-.264Z" transform="translate(-153.321 -60.487)" fill="#1a1a1a"/>
        <path id="Path_491" data-name="Path 491" d="M236.054,84.669a8.2,8.2,0,0,1-.734-.9c.246.389.5.792.759,1.163C236.156,84.955,236.34,85.069,236.054,84.669Z" transform="translate(-148.984 -53.036)" fill="#1a1a1a"/>
        <path id="Path_492" data-name="Path 492" d="M239.718,90.059,239.67,90C239.685,90.048,239.7,90.081,239.718,90.059Z" transform="translate(-151.738 -56.98)" fill="#1a1a1a"/>
        <path id="Path_493" data-name="Path 493" d="M228.01,74.9l.026.07.033-.007Z" transform="translate(-144.356 -47.42)" fill="#1a1a1a"/>
        <path id="Path_494" data-name="Path 494" d="M237.355,87.009a2.37,2.37,0,0,0,.47.587c-.15-.213-.323-.426-.488-.664C237.3,86.921,237.286,86.925,237.355,87.009Z" transform="translate(-150.241 -55.035)" fill="#1a1a1a"/>
        <path id="Path_495" data-name="Path 495" d="M233.33,80.49c.084.161.187.341.3.528A1.648,1.648,0,0,0,233.33,80.49Z" transform="translate(-147.724 -50.959)" fill="#1a1a1a"/>
        <path id="Path_496" data-name="Path 496" d="M239.6,89.592l.033.037C239.6,89.515,239.594,89.537,239.6,89.592Z" transform="translate(-151.692 -56.693)" fill="#1a1a1a"/>
        <path id="Path_497" data-name="Path 497" d="M239.043,89.088a3.639,3.639,0,0,0-.323-.338c.121.172.238.327.349.459A.6.6,0,0,1,239.043,89.088Z" transform="translate(-151.137 -56.189)" fill="#1a1a1a"/>
        <path id="Path_498" data-name="Path 498" d="M222.14,72.443c.238.183.477.367.7.572-.018.04-.29-.15-.147.055.143-.059.855.5,1.258,1.167.569.506.627-.194.367-.866-.062.026-.106.062-.708-.455.136.253,1.049,1.405.506,1.005a2.889,2.889,0,0,1-.837-1.075c.084.216-.191.022-.488-.183S222.151,72.271,222.14,72.443Z" transform="translate(-140.64 -45.822)" fill="#1a1a1a"/>
        <path id="Path_499" data-name="Path 499" d="M229.12,76.225l.224.235a6.494,6.494,0,0,1-.583-.987c-.4-.367-.536-.407-.591-.4.367.393.69.818,1.038,1.225Z" transform="translate(-144.457 -47.527)" fill="#1a1a1a"/>
        <path id="Path_500" data-name="Path 500" d="M231.618,79.81c.587.734.51.444.914.855-.972-1.2.341.3-.268-.638.205.224.367.437.543.635-.154-.231-.3-.459-.433-.675v.033h0c.026.062.029.088,0,.022l-.022-.022A.187.187,0,0,1,232.26,80c-.246-.367,0-.081.092.022h.029c-.341-.389-.664-.792-1.031-1.159.2.26.455.58.914,1.145C231.988,79.9,231.46,79.326,231.618,79.81Z" transform="translate(-146.471 -49.927)" fill="#1a1a1a"/>
        <path id="Path_501" data-name="Path 501" d="M243.061,100.656v-.062C243.006,100.517,242.981,100.488,243.061,100.656Z" transform="translate(-153.853 -63.648)" fill="#1a1a1a"/>
        <path id="Path_502" data-name="Path 502" d="M242.96,98.393l-.07-.084a8.749,8.749,0,0,1-.279-.892c-.044-.154-.073-.271-.084-.338a2.653,2.653,0,0,0,.022.785,1.409,1.409,0,0,1,.312.473c.1.3-.07.033-.106.07C242.886,98.584,243.195,99.039,242.96,98.393Z" transform="translate(-153.534 -61.462)" fill="#1a1a1a"/>
        <path id="Path_503" data-name="Path 503" d="M242.557,96.985V96.93A.233.233,0,0,0,242.557,96.985Z" transform="translate(-153.565 -61.367)" fill="#1a1a1a"/>
        <path id="Path_504" data-name="Path 504" d="M236.659,88.229l.051-.073c.367.627.367.444.462.484l-.367-.517-.4-.5Z" transform="translate(-149.674 -55.473)" fill="#1a1a1a"/>
        <path id="Path_505" data-name="Path 505" d="M226.69,73.45l.444.371.238.015Z" transform="translate(-143.52 -46.502)" fill="#1a1a1a"/>
        <path id="Path_506" data-name="Path 506" d="M224.06,70.36l.235.3.147-.059Z" transform="translate(-141.855 -44.546)" fill="#1a1a1a"/>
        <path id="Path_507" data-name="Path 507" d="M160.724,195.33l-.084.367a3.669,3.669,0,0,0,.084-.367Z" transform="translate(-101.703 -123.665)" fill="#1a1a1a"/>
        <path id="Path_508" data-name="Path 508" d="M163.033,188.084,163,188C163,188.132,163,188.191,163.033,188.084Z" transform="translate(-103.197 -119.025)" fill="#1a1a1a"/>
        <path id="Path_509" data-name="Path 509" d="M133.66,60.75l.147.477c.055.15.114.29.165.411.1.231.154.319.205.253l.033-.227a4.862,4.862,0,0,1-.341-.473A3.877,3.877,0,0,1,133.66,60.75Z" transform="translate(-84.622 -38.461)" fill="#1a1a1a"/>
        <path id="Path_510" data-name="Path 510" d="M164.486,127.283a.363.363,0,0,1,.026-.161l-.2-.341C164.361,126.934,164.42,127.1,164.486,127.283Z" transform="translate(-104.027 -80.266)" fill="#1a1a1a"/>
        <path id="Path_511" data-name="Path 511" d="M166.71,129v.734a5.683,5.683,0,0,0,0-.734Z" transform="translate(-105.546 -81.671)" fill="#1a1a1a"/>
        <path id="Path_512" data-name="Path 512" d="M142.921,231.81l-.121.437C143.2,231.7,142.958,231.9,142.921,231.81Z" transform="translate(-90.409 -146.761)" fill="#1a1a1a"/>
        <path id="Path_513" data-name="Path 513" d="M183.681,45.258a7.2,7.2,0,0,0-1.1-.488l.671.367C183.442,45.221,183.585,45.295,183.681,45.258Z" transform="translate(-115.594 -28.344)" fill="#1a1a1a"/>
        <path id="Path_514" data-name="Path 514" d="M157.325,191.16c-.037.22-.033.323,0,.327C157.369,191.259,157.376,191.123,157.325,191.16Z" transform="translate(-99.588 -121.021)" fill="#1a1a1a"/>
        <path id="Path_515" data-name="Path 515" d="M179,43.61c.077.037.154.066.231.106a11.258,11.258,0,0,1,1.1.319A3.379,3.379,0,0,0,179,43.61Z" transform="translate(-113.327 -27.61)" fill="#1a1a1a"/>
        <path id="Path_516" data-name="Path 516" d="M237.56,200.492l.073-.092C237.622,200.379,237.593,200.426,237.56,200.492Z" transform="translate(-150.402 -126.872)" fill="#1a1a1a"/>
        <path id="Path_517" data-name="Path 517" d="M254.91,163.1a4.555,4.555,0,0,0,.073-.646C254.972,162.608,254.943,162.857,254.91,163.1Z" transform="translate(-161.387 -102.849)" fill="#1a1a1a"/>
        <path id="Path_518" data-name="Path 518" d="M213.09,63.242a.242.242,0,0,1,.154.026C213.174,63.235,213.119,63.22,213.09,63.242Z" transform="translate(-134.91 -40.033)" fill="#1a1a1a"/>
        <path id="Path_519" data-name="Path 519" d="M169.049,43.88h-.029C169.115,43.924,169.1,43.924,169.049,43.88Z" transform="translate(-107.009 -27.781)" fill="#1a1a1a"/>
        <path id="Path_520" data-name="Path 520" d="M211.265,59.635c-.1-.1-.213-.2-.345-.3C210.975,59.385,211.078,59.477,211.265,59.635Z" transform="translate(-133.536 -37.562)" fill="#1a1a1a"/>
        <path id="Path_521" data-name="Path 521" d="M211.82,59.88l.246.194C212.117,60.078,212.1,60.041,211.82,59.88Z" transform="translate(-134.106 -37.911)" fill="#1a1a1a"/>
        <path id="Path_522" data-name="Path 522" d="M210.077,58.663l-.407-.283c.169.117.319.235.459.349C210.081,58.681,210.059,58.655,210.077,58.663Z" transform="translate(-132.745 -36.961)" fill="#1a1a1a"/>
        <path id="Path_523" data-name="Path 523" d="M180.38,248.474h.077C180.762,248.287,180.607,248.346,180.38,248.474Z" transform="translate(-114.201 -157.236)" fill="#1a1a1a"/>
        <path id="Path_524" data-name="Path 524" d="M150.856,79.383l-.026-.033.018.051Z" transform="translate(-95.492 -50.237)" fill="#1a1a1a"/>
        <path id="Path_525" data-name="Path 525" d="M151.225,80.543a2.689,2.689,0,0,1-.693-1.053l-.2.58Z" transform="translate(-95.176 -50.326)" fill="#1a1a1a"/>
        <path id="Path_526" data-name="Path 526" d="M177.022,81.308c-.187.367-.4.811-.569.734a3.562,3.562,0,0,1-.235,1.71,5.922,5.922,0,0,0-.29,2.146c-.128.308-.059-.3-.172-.139a3.188,3.188,0,0,1-.22,1.666v-.1c-.128.576-.231,1.075-.367,1.526s-.279.859-.422,1.277-.327.833-.506,1.3-.411.987-.679,1.592l.235-.117a4.913,4.913,0,0,1-.466.844c0,.712.605-1.486.653-.822a3.042,3.042,0,0,0-.5.837c-.191.367-.4.825-.6,1.273a10.356,10.356,0,0,1-.631,1.2,1.732,1.732,0,0,1-.532.646c-.426.763.308-.128-.128.635l-.209.15v.261c-.3.492-.565.675-.657.646a5.106,5.106,0,0,0,.242-.492,11.738,11.738,0,0,0-.734,1.145c-.2.345-.367.657-.462.8l.466-.62c-.15.261-.3.528-.47.792l-.543.785c-.187.264-.367.539-.565.8l-.605.781c-.393.532-.826,1.024-1.225,1.523s-.8.965-1.156,1.427l.18-.073a5.947,5.947,0,0,1-1.123,1.17c-.147.117-.3.238-.5.418l-.811.734.04-.062a6.064,6.064,0,0,1-1.016,1.035c.323-.367-.84.433-.4-.051a8.149,8.149,0,0,0-1.5,1.7l-.319.062a3.331,3.331,0,0,1-1.068,1.005c.609-.536-.635.165.029-.451a7.875,7.875,0,0,0-1.174.664c-.33.209-.613.407-.866.591a6.187,6.187,0,0,1-.7.462,1.783,1.783,0,0,1-.734.194c-.327.367.088.227.536,0s.9-.525.69-.367c.448-.117-.528.646-1.13.9a3.728,3.728,0,0,1-1.005.249,5.709,5.709,0,0,0-1.68.525c.15-.066.147-.1.3-.165a15,15,0,0,1-1.809.734c-.308.367-.921.319-.936.638.47-.187.936-.367,1.387-.594-.191.1-.367.209-.558.33s-.389.227-.605.341a5.1,5.1,0,0,1-1.647.587,6.694,6.694,0,0,1,.734-.415c-.411.059-.734.29-1.174.33,0-.158.451-.3.976-.47a8.715,8.715,0,0,0,1.53-.664c-.455.029-1.552.77-1.225.323a1.834,1.834,0,0,1-1.079.517,5.555,5.555,0,0,0-1.446.506l.029-.183a5.312,5.312,0,0,1-.811.308l.51-.367a3.6,3.6,0,0,1-1.262.308,5.015,5.015,0,0,0-1.258.183c1.754-.367.433.128,1.207.106-2.143.653-1.335-.176-3.761.242.33-.044,1.255-.073.752.092a6.01,6.01,0,0,1-1.394-.037c-1.625.194.268.154-.418.327-.572-.147-.8.147-1.519.253v-.176c-.939,0-1.06.077-1.159.172s-.2.209-.954.062a4.613,4.613,0,0,0,.649-.2h-.734c.062-.055.125-.117.183-.176a2.106,2.106,0,0,1-.906-.128,2.6,2.6,0,0,1-.756-.473c.033.1-.029.154-.183.125a1.332,1.332,0,0,1-.642-.433c-.132-.224-.048-.2-.029-.213s-.026-.059-.319-.484a1.291,1.291,0,0,1,.638.675c.077,0,.235.077.308.059-.143-.209-.367-.437-.525-.671a3.585,3.585,0,0,1-.4-.62,3.438,3.438,0,0,1,.139.367,4.208,4.208,0,0,1-.734-1.277c.029-.242.1-.062.194.1a3,3,0,0,1-.209-.91c.154.114.268.092.407.642a3.76,3.76,0,0,1-.143-1.284,2.737,2.737,0,0,0,.2-.308c.084-.114.15-.191.15-.106.15-.312.275-.734.517-1.17a9.48,9.48,0,0,1,1.031-1.578,1.9,1.9,0,0,1,.194-.422c.33-.477.675-.91,1.009-1.383a8.624,8.624,0,0,0,.9-1.644c.205-.183.422-.367.616-.554.466-.98-.789.774,0-.855.536-1.156.422-.312.7-.675.1-.3.191-.734.367-1.218a7.052,7.052,0,0,1,.734-1.468,6.818,6.818,0,0,1-.418.969c.176-.246.367-.5.51-.734-.235,1.082-.675,1.746-.117,1.075-.367-.308,1.4-3.2.954-3.522l.316-.506c-.066.154-.048.191-.114.345.646-.983,0-.917.536-2.278.205-.47.393-.785.334-.437.1-.367.158-.752.231-1.126.088-.264.143-.231.1-.033.143-.514.3-1.027.422-1.545h0c0-.26,0-.837.033-1.1.183-.407,0,.227.084.136.04-.323.092-.638.121-.961.106-.176.147-.062.139.176a4.8,4.8,0,0,1-.176.917,1.192,1.192,0,0,0,.4-.91,4.77,4.77,0,0,1,.389-1.728l-.139.906a8.27,8.27,0,0,0,.814-2.227c-.066.114-.268.605-.444.932s-.341.492-.294-.033a3.976,3.976,0,0,0,.143-1.229c.169.022.246-.525.323-1.211l.227.081a3.813,3.813,0,0,0-.136-1.159c.143-.822.323-.976.5-1.156.169-1.328-.367.888-.268-.69a12.141,12.141,0,0,0,.07-3.21c.1-.77.143.143.216-.132l-.176-.693c0-.169.066-.114.1-.084-.062-.58-.235-.051-.283-.958-.117-.125-.04-.587.04-1.163a4.168,4.168,0,0,0-.033-1.834c.051-.279.15.125.238.037a13.888,13.888,0,0,0-.594-2.568l.048-1.1c-.1.807-.4-.176-.7-1.02-.048.29-.088.532-.1.693l-.319-1.361c0-.172.114-.044.242.165l-.092-.242c0-.506.183-.275.367.062-.022.176-.048.349-.07.521.187.323.389.624.517.536a2.568,2.568,0,0,1-.128-.451c.051.084.092.139.11.092s-.055-.187-.147-.407l.216-.367-.114-.062c-.026-.62-.106-1.233-.154-1.834-.238-.631-.543-1.2-.837-1.864a24.056,24.056,0,0,1-.939-2.4c.319.448.33.026.558,0-.088.616.532,1.541.708,2.623-.1-.561.033-.462.1-.33-.106-.308-.209-.616-.323-.925l-.367-.91c.191,0,.026-.437-.029-.947-.235.466-.66-1.317-1-2.033.1-.088.279.055.536.983a1.834,1.834,0,0,0-.444-1.134,2.018,2.018,0,0,1-.51-1.1c.084.22.106.345.2.411a5.244,5.244,0,0,1-.411-1.031c-.1-.367-.161-.6-.048-.477l.088.216c-.51-1.468-1.834-4.384-2.275-4.432a1.167,1.167,0,0,1,.528.073c-.734-.679-1.446-1.35-2.2-1.97.367.084.459-1.049,1.218,0a6.409,6.409,0,0,0-.8-1.409c.092.242-.029.734-.216.451a9.918,9.918,0,0,0-.58-1.783c.147.367-.429.213-.734-.3.1.048.323-.264.473-.1-.367-.367-.778-.686-1.163-1.024.268.268.33-.139.238-.484,0,.088-.165-.183-.367-.517a6.742,6.742,0,0,0-.62-.855l.293.569a3.816,3.816,0,0,0-1.192-1.2,2.132,2.132,0,0,1-1.009-1.244c.154.172.62.227.462-.466a2.77,2.77,0,0,1-.734-1.009,3.023,3.023,0,0,1-.055-2.146c.081-.077.165-.15.246-.22a5.268,5.268,0,0,1,.609-1.1,5.991,5.991,0,0,0-.415,1.86,4.978,4.978,0,0,0,.279,1.893,1.024,1.024,0,0,1,.1-.367,3.875,3.875,0,0,0,.1-.543c.084-.125.1,0,.1.154s0,.367,0,.484a3.852,3.852,0,0,1,.492-1.611c-.128,0-.037-.349.128-.657s.367-.587.29-.638a3.94,3.94,0,0,0-.84,1.794c-.125,0-.224-.334-.117-.837a2.675,2.675,0,0,1,1.079-1.578c.183-.062.183.07.161.213s-.062.319-.026.341a1.644,1.644,0,0,1,.514-.466,1.468,1.468,0,0,1,.605-.249l-.235.15-.22.169c.547-.161.881-.536,1.574-.506v.117h0V40.3h0v0h0a.29.29,0,0,1,0,.059V40.3h0v0h0v0h0v0h0v0h0v.275h0v-.088h0a.679.679,0,0,1,0-.092h0v-.11h0a.955.955,0,0,1,0,.154v.235c.018-.323,0,0,.018-.327a2.416,2.416,0,0,1-.018.385v-.169h0v-.271h0a1.523,1.523,0,0,1-.018.308h0v-.316h0a2.084,2.084,0,0,1-.022.238V40.6c-.022.224.018-.231.022-.286a2.986,2.986,0,0,1-.029.341h0c-.033.367,0,.084,0,.154v-.187a1.054,1.054,0,0,0,0-.117v-.062h0c-.04.367.033-.271,0,0v-.033a.348.348,0,0,1,.018-.132h0v.209h0v-.2h0v.165a.2.2,0,0,1,.018-.114v-.051h0v0h0v0a2.568,2.568,0,0,1,.3.051c.367.026,1.038.345,1.1.2-.558-.294-.664-1.167-.268-1.368.066,0,.536.084,1.038.187a11.522,11.522,0,0,1,1.233.341c.565.26-.914.459-.433.686.026-.066.367-.125.488-.143.367.088-.169.191.631.231.158-.231,1.618.22.4-.165a12.537,12.537,0,0,1,1.743.275c-.268-.213.906-.4,1.713-.33-.059.051.1.172.176.227,1.592.367,2.407.7,3.852,1.152.114.1.781.4.455.4a3.621,3.621,0,0,1,.881.15c.367.264.139.172-.136.1s-.576-.158-.294.073c.106-.136,1.192.224,1.834.367-.106-.275-1.409-.616-2.077-.734.048-.147.367-.209.888-.18a10.926,10.926,0,0,1,1.97.422c1.361.587.591.536.818.587a9.172,9.172,0,0,0,2.051.734,3.768,3.768,0,0,1,1.691.811c.591.565-.165.367-.084.565a6.479,6.479,0,0,1-1.09-.642,8.937,8.937,0,0,0-.87-.536l.734.473a5.137,5.137,0,0,1-1.266-.576,5.229,5.229,0,0,0,.792.5l.635.341.734.418c.5.286,1.027.587,1.5.925a12.555,12.555,0,0,1,1.288.936c.3.132.8.4.627.183l-.506-.33c-.345-.44,1.02.459.462-.029.367.183.734.367,1.13.6a8.073,8.073,0,0,1,1.2.917l.022.3a2.275,2.275,0,0,0-.767-.69,4.535,4.535,0,0,1,.8.734,2.033,2.033,0,0,0,.884.679l-.481-.627a9.631,9.631,0,0,1,2.231,1.644c-.169-.473-.18-.139-.51-.818.246.635-1.9-1.684-1.383-.781a2.484,2.484,0,0,0-.29-.455,4.653,4.653,0,0,0-.367-.367,6.073,6.073,0,0,1-.822-.866c-.022.081.183.316-.459-.216a.967.967,0,0,1-.191-.055l-.04-.037.033.033h0a1.309,1.309,0,0,1,.275.341c-.437-.106-1.5-.881-1.919-1.053-.393-.294.22.04.04-.172l-.631-.246c.033-.172-.958-.939.073-.393-.294-.191-.583-.385-.881-.569a7.913,7.913,0,0,0-1.7-1.038c-.426-.257-1.2-.407-.756-.327-.506-.216-1.005-.444-1.523-.627v-.044c-.367-.169-.734-.323-1.141-.477s-.8-.268-1.207-.411a18.931,18.931,0,0,1-2.491-.994,15.777,15.777,0,0,1-1.959-.5l-.139-.18a13.324,13.324,0,0,0-2.363-.5c-.679-.528-3.368-.631-4.6-.734l-.059.183a18.778,18.778,0,0,0-2.719,0l.066.165c-.114,0-.231.026-.367.033h-.022a1.105,1.105,0,0,0,0-.121v.121h0l-.415.029a6.94,6.94,0,0,0-1.024.147,4.4,4.4,0,0,0-2.1,1.13,1.611,1.611,0,0,1,.638-.539,3.819,3.819,0,0,0-1.908,2.341,9.428,9.428,0,0,0-.367,2.854c.117.44.194.734.26,1.06a.961.961,0,0,0-.044-.1l.059.176a4.8,4.8,0,0,0,.176.605c-.051-.187-.092-.367-.139-.514a4.4,4.4,0,0,0,.715,1.156.949.949,0,0,1-.026.271l.062.077c.191.367.264.224.238-.037a4.4,4.4,0,0,0,.418.4c-.037.448.734.851.734,1.416.257.147,1.137,1.468,1.559,1.732a5.163,5.163,0,0,0,.734,1.178l-.088.286.77.767c.191.627.246.892-.213.422.242.3.407.517.532.686s.191.3.268.422a8.875,8.875,0,0,0,.69.976h-.158c.22.4.693,1.005.7,1.31a7.609,7.609,0,0,0,.4,1.222c.194.539.451,1.181.734,1.871a20.644,20.644,0,0,1,.734,2.2,21.061,21.061,0,0,1,.525,2.128c.279-.613.132,1.24.481,1.258-.059.172,0,.543-.213.15a10.719,10.719,0,0,1,.367,1.6,4.593,4.593,0,0,0,.393,1.273c-.073.172-.2-.257-.231-.11a1.324,1.324,0,0,1,.128.554c-.037.147-.121-.18-.2-.367.264,1.346.6,1.435.9,1.49a2.484,2.484,0,0,0,.29,1.541c-.059.257-.1.671-.257-.18,0,.121.037.367.07.668s.044.657.077,1c.066.679.154,1.306.264,1.324a2.421,2.421,0,0,0,.059.8c.022.543.033.84.044,1.134s0,.587.029,1.123l.033-.3c.283.418.1.892.114,1.757l-.029-.026a27.858,27.858,0,0,1-.235,2.8l.183-.1c.18.1.1.536,0,1.1a6.713,6.713,0,0,0-.3,1.768l.139-.4c.084.638-.734,1.658-.851,2.256-.051.128-.022-.22-.022-.407-.448,1.563.216.242.062,1.442-.161.194-.26-.334-.426.455-.15.367-.051,2.388-.561,3.408.154-.213.312-.426.238.136a13.439,13.439,0,0,1-.532,1.493,3.636,3.636,0,0,0-.367,1.468c-.055.1-.092.128-.114.125A24.477,24.477,0,0,0,141,97.429c-.4.176-.693,1.156-.987,2.058s-.587,1.728-.84,1.6l-.862,1.834-.029-.073a6.068,6.068,0,0,0-.848,2.051c-.187.238-.121.022-.132,0a17.531,17.531,0,0,0-1.042,1.644,15.323,15.323,0,0,0-.734,1.574l-.242.037a9.676,9.676,0,0,1-1.071,1.4c-.139.172-.275.334-.426.536a5.234,5.234,0,0,0-.451.682,4.2,4.2,0,0,0-.506,1.585c-.018-.026-.04-.077-.026-.249a7.928,7.928,0,0,0-.081,1.948,6.237,6.237,0,0,0,.481,1.926,4.311,4.311,0,0,0,.98,1.416,1.552,1.552,0,0,0,1.005.492,4.828,4.828,0,0,0,1.468.51,2.617,2.617,0,0,1-.514-.209.734.734,0,0,1-.205-.136c-.055-.066.026-.059.136-.055.231,0,.569.055.242-.139.649.268,1.794.569.888.5l-.136-.062c-.205.132.367.319,1.031.33s1.236,0,1.222.11c1.8-.059,3.57-.238,5.309-.462.862-.158,1.728-.264,2.568-.473.422-.1.844-.183,1.255-.29l1.229-.367-.451-.143c.367-.114.756-.2,1.123-.338.312-.044.462.07-.341.327a2.532,2.532,0,0,0,1.3-.646c1.589-.448-.5.506-.022.345l.642-.246-.158.022a5.137,5.137,0,0,1,1.424-.8c.609-.194.367.033.6-.062a1.01,1.01,0,0,0,.367-.154c.451-.205.91-.4,1.357-.613-.205.029-.418.044-.627.062.554-.367,1.244-.62.536-.51a5.229,5.229,0,0,0,1.229-.44c.525-.231,1.1-.591,1.684-.921,1.137-.7,2.179-1.442,2.454-1.589a12.844,12.844,0,0,1,1.053-.928c.367-.312.763-.624,1.207-.969-.249.136-.514.07.235-.528.048.6,1.468-.983,2.267-1.3-.334.161.154-.33.594-.8s.8-.939.3-.653c.58-.561.165.092.671-.279a62.108,62.108,0,0,0,4.146-5.184c-.033-.066-.33.213-.136-.268l.947-.892c.224-.418-.1-.565.525-1.2-.11.081-.268.2-.132-.088a27.516,27.516,0,0,0,2.979-6.435c.756-2.271,1.335-4.586,1.992-6.9-.216.62-.161.194-.1-.294-.073.312-.158-.033-.253,0,.161-.642.367-1.284.481-1.941a3.3,3.3,0,0,1-.022-1.229,2.346,2.346,0,0,0-.07-1.1l.018.627C177.363,80.655,177.2,80.941,177.022,81.308ZM144.409,70.331a3.671,3.671,0,0,1-.11-.811A1.86,1.86,0,0,1,144.409,70.331Zm-6.769-29.7Zm.018-.051h0C137.654,40.642,137.654,40.613,137.658,40.584Zm20.124,3.6h-.029C157.287,43.827,157.452,43.952,157.782,44.183Zm-20.065-3.8ZM137.673,40.378Zm0,0h0c0,.084-.018.213,0,0Zm-.026.029Zm-.033-.029Zm-.029,0Zm-1.159,10.875a.268.268,0,0,0,.1.04C136.495,51.33,136.543,51.447,136.425,51.253Zm8.09,38.3a2.237,2.237,0,0,1-.161.95c-.136-.327.011-.525.161-.947Zm9.367,25.9-.227.059C154.117,115.264,154,115.367,153.882,115.458Z" transform="translate(-83.806 -24.47)" fill="#1a1a1a"/>
        <path id="Path_527" data-name="Path 527" d="M166.351,128.84a.2.2,0,0,1-.081.121C166.314,129.056,166.347,129.053,166.351,128.84Z" transform="translate(-105.268 -81.57)" fill="#1a1a1a"/>
        <path id="Path_528" data-name="Path 528" d="M143.152,231.58l-.022.033v.051Z" transform="translate(-90.617 -146.616)" fill="#1a1a1a"/>
        <path id="Path_529" data-name="Path 529" d="M155.515,43.785a1.9,1.9,0,0,1-.451-.125C155.038,43.686,155.152,43.73,155.515,43.785Z" transform="translate(-98.171 -27.642)" fill="#1a1a1a"/>
        <path id="Path_530" data-name="Path 530" d="M217.71,64.332l-.55-.422a2.77,2.77,0,0,1,.488.5C217.659,64.376,217.611,64.266,217.71,64.332Z" transform="translate(-137.487 -40.462)" fill="#1a1a1a"/>
        <path id="Path_531" data-name="Path 531" d="M229.164,79.782c.088.07.15.176.238.242l.044-.073C229.139,79.6,228.874,79.39,229.164,79.782Z" transform="translate(-145.007 -50.376)" fill="#1a1a1a"/>
        <path id="Path_532" data-name="Path 532" d="M219.231,67.68c-.055.154.345.418.734.778l-.066-.066C220.159,68.351,219.712,68,219.231,67.68Z" transform="translate(-138.795 -42.849)" fill="#1a1a1a"/>
        <path id="Path_533" data-name="Path 533" d="M221.51,70c.125.11.246.224.367.341C221.972,70.33,221.737,70.194,221.51,70Z" transform="translate(-140.241 -44.318)" fill="#1a1a1a"/>
        <path id="Path_534" data-name="Path 534" d="M207.593,57.164c.367,0-1.563-.734-.327-.062C207.461,57.27,207.505,57.032,207.593,57.164Z" transform="translate(-130.958 -35.972)" fill="#1a1a1a"/>
        <path id="Path_535" data-name="Path 535" d="M218.631,68.845l-.018-.26-.323-.084Z" transform="translate(-138.202 -43.368)" fill="#1a1a1a"/>
        <path id="Path_536" data-name="Path 536" d="M210.66,61.977c.22.172.433.367.642.55,0-.033.1,0,.216.092-.2-.165-.411-.345-.572-.473S210.667,61.93,210.66,61.977Z" transform="translate(-133.371 -39.23)" fill="#1a1a1a"/>
        <path id="Path_537" data-name="Path 537" d="M213.554,64.1c-.117-.092-.367-.283-.554-.4A4.459,4.459,0,0,0,213.554,64.1Z" transform="translate(-134.853 -40.329)" fill="#1a1a1a"/>
        <path id="Path_538" data-name="Path 538" d="M215.1,65.88c.213.187.407.4.609.591l-.161-.194C215.4,66.144,215.258,66,215.1,65.88Z" transform="translate(-136.182 -41.709)" fill="#1a1a1a"/>
        <path id="Path_539" data-name="Path 539" d="M187.631,49.077c-.286-.114-.587-.2-.881-.3-.11.026.11.154.44.253C187.415,49.066,187.734,49.195,187.631,49.077Z" transform="translate(-118.216 -30.883)" fill="#1a1a1a"/>
        <path id="Path_540" data-name="Path 540" d="M194.31,53.411l.426.117a1.02,1.02,0,0,1-.3-.308Z" transform="translate(-123.02 -33.694)" fill="#1a1a1a"/>
        <path id="Path_541" data-name="Path 541" d="M187.489,50.971c.106-.022.961.3.216-.084C187.6,50.89,186.414,50.556,187.489,50.971Z" transform="translate(-118.419 -32.139)" fill="#1a1a1a"/>
        <path id="Path_542" data-name="Path 542" d="M152.815,41.364l-.015-.374-.22.363Z" transform="translate(-96.6 -25.951)" fill="#1a1a1a"/>
        <path id="Path_543" data-name="Path 543" d="M137.566,58.139a4.637,4.637,0,0,0,.4.466c.1.088.143.066.158-.128-.22-.389-.279-.407-.349-.415s-.147,0-.257-.4c-.084-.081-.037.077,0,.238S137.666,58.216,137.566,58.139Z" transform="translate(-87.035 -36.493)" fill="#1a1a1a"/>
        <path id="Path_544" data-name="Path 544" d="M137.42,58.6c-.059-.073-.121-.147-.18-.231A.951.951,0,0,0,137.42,58.6Z" transform="translate(-86.888 -36.955)" fill="#1a1a1a"/>
        <path id="Path_545" data-name="Path 545" d="M256.307,154.162l.106-.712-.143.455C256.281,153.993,256.3,154.077,256.307,154.162Z" transform="translate(-162.248 -97.151)" fill="#1a1a1a"/>
        <path id="Path_546" data-name="Path 546" d="M256.006,150.433l-.2-.433a1.736,1.736,0,0,1-.044.594Z" transform="translate(-161.925 -94.967)" fill="#1a1a1a"/>
        <path id="Path_547" data-name="Path 547" d="M167.311,172.2l-.048-.062a1.545,1.545,0,0,0-.183.594Z" transform="translate(-105.78 -108.984)" fill="#1a1a1a"/>
        <path id="Path_548" data-name="Path 548" d="M160.236,197.584l.059-.154-.3.22Z" transform="translate(-101.292 -124.995)" fill="#1a1a1a"/>
        <path id="Path_549" data-name="Path 549" d="M152.167,216.864c.161-.294.319-.657.473-.954C152.339,216.578,151.884,216.813,152.167,216.864Z" transform="translate(-96.282 -136.695)" fill="#1a1a1a"/>
        <path id="Path_550" data-name="Path 550" d="M248.15,48.888c.521.5.367.092.367.132C248.22,48.675,248.216,48.888,248.15,48.888Z" transform="translate(-157.107 -30.91)" fill="#1a1a1a"/>
        <path id="Path_551" data-name="Path 551" d="M262.908,64.19c-.2-.238-.4-.481-.62-.7l-.128-.066C262.424,63.666,262.666,63.926,262.908,64.19Z" transform="translate(-165.977 -40.152)" fill="#1a1a1a"/>
        <path id="Path_552" data-name="Path 552" d="M266.657,69.943l.675.991a12.349,12.349,0,0,1,1.027,1.746,4.1,4.1,0,0,0-.734-1.442,17.751,17.751,0,0,1-1.1-1.706c-.022-.07-.037-.136-.059-.2L266,69c.11.143.22.3.338.451S266.547,69.778,266.657,69.943Z" transform="translate(-168.408 -43.685)" fill="#1a1a1a"/>
        <path id="Path_553" data-name="Path 553" d="M274.59,86.32c.026.077.029.1.044.147.066.128.15.3.294.613C274.924,86.837,275.346,87.733,274.59,86.32Z" transform="translate(-173.846 -54.65)" fill="#1a1a1a"/>
        <path id="Path_554" data-name="Path 554" d="M277.429,93.187c.213.426.308.587.338.58s0-.2-.059-.462l-.448-.814C277.278,92.677,277.59,93.451,277.429,93.187Z" transform="translate(-175.537 -58.556)" fill="#1a1a1a"/>
        <path id="Path_555" data-name="Path 555" d="M279.29,95.55a.84.84,0,0,0,.205.437Z" transform="translate(-176.822 -60.494)" fill="#1a1a1a"/>
        <path id="Path_556" data-name="Path 556" d="M278.258,93.574c.1.048-.044-.11-.268-.484l.477.9C278.46,93.853,278.526,93.809,278.258,93.574Z" transform="translate(-175.999 -58.936)" fill="#1a1a1a"/>
        <path id="Path_557" data-name="Path 557" d="M276.539,89.231c-.154-.5-.389-1.134.062-.316-.367-.814-.594-1.123-.6-1.046a1.274,1.274,0,0,0,.136.4C276.224,88.5,276.367,88.828,276.539,89.231Z" transform="translate(-174.739 -55.624)" fill="#1a1a1a"/>
        <path id="Path_558" data-name="Path 558" d="M272.422,77.525l-.275-.657-.367-.488C271.96,76.626,272.371,77.6,272.422,77.525Z" transform="translate(-172.067 -48.357)" fill="#1a1a1a"/>
        <path id="Path_559" data-name="Path 559" d="M282.978,107.82c.07.04.066-.341.114-.426l-.271-.635A3.653,3.653,0,0,1,282.978,107.82Z" transform="translate(-179.057 -67.591)" fill="#1a1a1a"/>
        <path id="Path_560" data-name="Path 560" d="M283.56,108.462l.367.965C283.7,108.535,283.6,108.388,283.56,108.462Z" transform="translate(-179.525 -68.658)" fill="#1a1a1a"/>
        <path id="Path_561" data-name="Path 561" d="M279.439,94.614l-.117-.3c-.249-.51-.536-1-.822-1.49l.492.884Z" transform="translate(-176.322 -58.765)" fill="#1a1a1a"/>
        <path id="Path_562" data-name="Path 562" d="M285.05,118.51l.4.965-.158-.429Z" transform="translate(-180.469 -75.03)" fill="#1a1a1a"/>
        <path id="Path_563" data-name="Path 563" d="M286.62,126.73c-.172-.407-.084.605-.22.169.143.686.286,1.269.426,1.794a17.242,17.242,0,0,1-.205-1.963Z" transform="translate(-181.323 -80.171)" fill="#1a1a1a"/>
        <path id="Path_564" data-name="Path 564" d="M287.57,132.25a8.531,8.531,0,0,0,.22.892C287.728,132.855,287.654,132.566,287.57,132.25Z" transform="translate(-182.064 -83.729)" fill="#1a1a1a"/>
        <path id="Path_565" data-name="Path 565" d="M285.6,116.582l.07-.429c-.026-.121-.051-.257-.081-.393A2.062,2.062,0,0,0,285.6,116.582Z" transform="translate(-180.786 -73.289)" fill="#1a1a1a"/>
        <path id="Path_566" data-name="Path 566" d="M285.88,116.78h0c.088.429.147.734.172.855C286.027,117.539,285.975,117.279,285.88,116.78Z" transform="translate(-180.994 -73.935)" fill="#1a1a1a"/>
        <path id="Path_567" data-name="Path 567" d="M285.59,115.47a1.026,1.026,0,0,1,.022.1A.106.106,0,0,0,285.59,115.47Z" transform="translate(-180.81 -73.105)" fill="#1a1a1a"/>
        <path id="Path_568" data-name="Path 568" d="M283.345,104.471c-.235-.367-.1.3-.5-.521C283.114,104.5,283.587,105.678,283.345,104.471Z" transform="translate(-179.076 -65.812)" fill="#1a1a1a"/>
        <path id="Path_569" data-name="Path 569" d="M284.831,111.05c-.037.029-.044.235-.161-.04l.4,1.1Z" transform="translate(-180.228 -70.282)" fill="#1a1a1a"/>
        <path id="Path_570" data-name="Path 570" d="M285.953,114.53c-.055-.172-.125-.341-.183-.51l.092.4Z" transform="translate(-180.924 -72.187)" fill="#1a1a1a"/>
        <path id="Path_571" data-name="Path 571" d="M287.943,128.827a12.181,12.181,0,0,1,.257,1.545c-.04-.62-.084-1.266-.165-1.875C287.972,128.419,287.851,128.166,287.943,128.827Z" transform="translate(-182.279 -81.281)" fill="#1a1a1a"/>
        <path id="Path_572" data-name="Path 572" d="M287.15,123.326l.026.1C287.179,123.362,287.176,123.311,287.15,123.326Z" transform="translate(-181.798 -78.077)" fill="#1a1a1a"/>
        <path id="Path_573" data-name="Path 573" d="M289.46,149.2l.029-.1-.029-.018Z" transform="translate(-183.261 -94.39)" fill="#1a1a1a"/>
        <path id="Path_574" data-name="Path 574" d="M287.916,126.684a3.67,3.67,0,0,0-.216-.994c.07.341.139.708.205,1.1C287.931,126.827,287.949,126.831,287.916,126.684Z" transform="translate(-182.146 -79.576)" fill="#1a1a1a"/>
        <path id="Path_575" data-name="Path 575" d="M288.686,137.588c.018-.246.029-.525.037-.818A2.846,2.846,0,0,0,288.686,137.588Z" transform="translate(-182.761 -86.591)" fill="#1a1a1a"/>
        <path id="Path_576" data-name="Path 576" d="M287.142,123.94l-.018-.07C287.112,124.028,287.127,124.006,287.142,123.94Z" transform="translate(-181.779 -78.423)" fill="#1a1a1a"/>
        <path id="Path_577" data-name="Path 577" d="M287.18,123.775c.059.235.128.415.191.6-.059-.283-.117-.539-.176-.763A1.062,1.062,0,0,1,287.18,123.775Z" transform="translate(-181.817 -78.259)" fill="#1a1a1a"/>
        <path id="Path_578" data-name="Path 578" d="M290.381,146.7c-.121-1.064-.591-.367-.851.554.033.018.066.026.1.165a4.576,4.576,0,0,1,.092.954c.125-.367.183-2.407.33-1.49a4.309,4.309,0,0,1,0,1.218c-.037.2-.092.312-.143.66.2-.594.191,1.834.47,1.548l-.044-1.277c.04-.026.088.44.139.088A5.624,5.624,0,0,1,290.381,146.7Z" transform="translate(-183.305 -92.541)" fill="#1a1a1a"/>
        <path id="Path_579" data-name="Path 579" d="M289.165,142.78c0-.147-.029-.294-.04-.44a8.234,8.234,0,0,1-.165,1.534c.081.734.136.892.183.943v-2.2A1.518,1.518,0,0,0,289.165,142.78Z" transform="translate(-182.944 -90.117)" fill="#1a1a1a"/>
        <path id="Path_580" data-name="Path 580" d="M289.286,135.675a5.5,5.5,0,0,0-.334-1.677c.246,2.095-.132-.594-.088.928-.048-.411-.114-.778-.154-1.126.018.367.048.734.037,1.1v-.048h0c0-.092.026-.125.018-.018v.04a.283.283,0,0,1,.066.092c0,.609-.037.1-.066-.092l-.026-.022h0l.213,2.095c0-.448-.044-1.005-.121-1.989C289.026,135.275,289.154,136.343,289.286,135.675Z" transform="translate(-182.786 -84.71)" fill="#1a1a1a"/>
        <path id="Path_581" data-name="Path 581" d="M286,108.05v.077C286.044,108.255,286.07,108.3,286,108.05Z" transform="translate(-181.07 -68.408)" fill="#1a1a1a"/>
        <path id="Path_582" data-name="Path 582" d="M286.108,113.25l-.018.07C286.1,113.349,286.108,113.32,286.108,113.25Z" transform="translate(-181.127 -71.7)" fill="#1a1a1a"/>
        <path id="Path_583" data-name="Path 583" d="M285.323,107.469a12.785,12.785,0,0,1,.213,1.746,3.667,3.667,0,0,0,.088-1.031,2.748,2.748,0,0,1-.268-.734c-.073-.433.077,0,.117-.055-.121-.283-.429-.98-.213-.055Z" transform="translate(-180.554 -67.665)" fill="#1a1a1a"/>
        <path id="Path_584" data-name="Path 584" d="M288.829,124.582l-.073.059c-.128-1-.191-.767-.275-.881l.367,1.732Z" transform="translate(-182.64 -78.354)" fill="#1a1a1a"/>
        <path id="Path_585" data-name="Path 585" d="M288.959,149.535l-.169-.235c.088.338.154.675.216,1.013C288.992,150.052,288.992,149.8,288.959,149.535Z" transform="translate(-182.836 -94.523)" fill="#1a1a1a"/>
        <path id="Path_586" data-name="Path 586" d="M288.772,156.485c.033-.172.051-.341.081-.514l-.143-.092C288.732,156.082,288.758,156.291,288.772,156.485Z" transform="translate(-182.786 -98.689)" fill="#1a1a1a"/>
        <path id="Path_587" data-name="Path 587" d="M204.5,277.142l.275.048a8.161,8.161,0,0,1,1.156-.51C205.194,276.874,204.354,277.032,204.5,277.142Z" transform="translate(-129.461 -175.169)" fill="#1a1a1a"/>
        <path id="Path_588" data-name="Path 588" d="M124.292,134.159l-.242-.569C124.178,134.507,124.2,134.107,124.292,134.159Z" transform="translate(-78.538 -84.577)" fill="#1a1a1a"/>
        <path id="Path_589" data-name="Path 589" d="M269.56,218.044c.462-.627.892-1.1.881-1.354C270.066,217.222,269.787,217.655,269.56,218.044Z" transform="translate(-170.662 -137.189)" fill="#1a1a1a"/>
        <path id="Path_590" data-name="Path 590" d="M266.87,221.965l.216-.268c.224-.418.481-.818.77-1.317A7.832,7.832,0,0,0,266.87,221.965Z" transform="translate(-168.959 -139.525)" fill="#1a1a1a"/>
        <path id="Path_591" data-name="Path 591" d="M234.23,35.38a8.488,8.488,0,0,0,.7.539C234.758,35.795,234.487,35.578,234.23,35.38Z" transform="translate(-148.294 -22.399)" fill="#1a1a1a"/>
        <path id="Path_592" data-name="Path 592" d="M288.427,175.005a.367.367,0,0,1-.04-.205C288.383,174.906,288.394,174.987,288.427,175.005Z" transform="translate(-182.58 -110.668)" fill="#1a1a1a"/>
        <path id="Path_593" data-name="Path 593" d="M261.4,236.947l-.026.033C261.484,236.892,261.465,236.911,261.4,236.947Z" transform="translate(-165.476 -149.995)" fill="#1a1a1a"/>
        <path id="Path_594" data-name="Path 594" d="M285.677,178.85c-.059.172-.125.367-.187.591A3.778,3.778,0,0,0,285.677,178.85Z" transform="translate(-180.747 -113.232)" fill="#1a1a1a"/>
        <path id="Path_595" data-name="Path 595" d="M285.77,178.322l.11-.4C285.854,177.852,285.854,177.9,285.77,178.322Z" transform="translate(-180.924 -112.626)" fill="#1a1a1a"/>
        <path id="Path_596" data-name="Path 596" d="M285.137,180.591c-.033.136-.073.33-.147.653.062-.268.128-.517.194-.734C285.151,180.58,285.137,180.616,285.137,180.591Z" transform="translate(-180.431 -114.283)" fill="#1a1a1a"/>
        <path id="Path_597" data-name="Path 597" d="M106.01,62.151c0-.547.022-1.159.033-1.805a14.035,14.035,0,0,1,.1-1.985c-.275.594,0,.316-.341,1.24.183-.4.143.462.018,1.251s-.205,1.519.051.884c-.411.932-.389,1.662-.87,2.873.073-.026.227-.418-.029.682a1.385,1.385,0,0,1,0,.253.092.092,0,0,1-.022.073l.022-.059v-.022A3.667,3.667,0,0,1,105.21,65a6.8,6.8,0,0,1-.172,1.468c-.106.591-.213,1.185-.264,1.49-.22.638,0-.294-.183.04l-.125.91c-.183.044-.734,1.636-.411.092-.136.455-.253.914-.418,1.357a22.38,22.38,0,0,0-.947,2.517c-.279.609-.448,1.64-.367,1.049-.224.708-.521,1.391-.789,2.084h-.044c-.114.249-.227.506-.334.763s-.238.506-.367.763l-.734,1.57a17.391,17.391,0,0,1-1.948,3.075c-.18.323-.367.653-.587,1.031a13.944,13.944,0,0,1-.9,1.273l-.253.114c-.128.2-.3.44-.492.693s-.418.506-.627.752a5.818,5.818,0,0,0-.84,1.148,11.606,11.606,0,0,0-2.036,2.062l-1.185,1.372a14.074,14.074,0,0,1-1.1,1.079l.084.18-2.645,2.568.172.066a13.209,13.209,0,0,1-1.79,1.438c-.367.264-.752.506-1.145.77s-.8.539-1.192.829a2.909,2.909,0,0,1,.785-.58,22.606,22.606,0,0,0-3,1.974c-.5.341-.987.675-1.468.983-.246.15-.488.3-.734.426s-.5.227-.734.319a5.294,5.294,0,0,1-1.134.591.734.734,0,0,0,.11-.066l-.191.1c-.216.084-.451.147-.7.235a4.586,4.586,0,0,0,.594-.183c-.367.183-.914.455-1.446.734l-.3-.055-.125.066c-.561.187-.4.275-.059.264-.26.158-.506.3-.69.415-.558-.084-1.435.7-2.161.646a12.6,12.6,0,0,1-1.567.708l-.965.418a2.1,2.1,0,0,0-.437.249,13.986,13.986,0,0,0-1.867.554l-.334-.147-1.365.646c-.906.073-1.288.044-.455-.29-1.024.338-1.446.444-1.834.547s-.734.187-1.618.444l.066-.154a10.4,10.4,0,0,1-2.066.367,13.363,13.363,0,0,0-1.812.051l-2.825.11c-.528,0-1.057.018-1.589-.022-.268-.018-.539-.022-.807-.051H52.8l.87-.077-.943.066-.682-.088a6.967,6.967,0,0,1-.781-.136l-.756-.161c-.484-.154-.958-.275-1.38-.448.275.316-.117.136-.605-.088-.246-.1-.506-.242-.734-.338s-.389-.136-.455-.073c-.161-.172-.6-.426-.022-.275a10.055,10.055,0,0,1-1.126-.51c-.323-.169-.594-.367-.862-.517s-.506-.327-.763-.473-.528-.275-.818-.426c-.106-.209.4.125.286-.04a2.425,2.425,0,0,1-.631-.451c-.11-.161.268.1.521.238a7.742,7.742,0,0,0-1.468-.954.781.781,0,0,0-.616,0,8.047,8.047,0,0,0-.767-.914,4.138,4.138,0,0,0-.763-.638,1.5,1.5,0,0,1-.161-.429c.018-.059.117.066.528.5-.055-.062-.136-.161-.235-.283s-.2-.283-.323-.451l-.389-.543-.4-.646c-.125-.2-.26-.389-.367-.576s-.213-.367-.3-.5c-.183-.286-.327-.466-.367-.459a6.259,6.259,0,0,0-.484-1.009c-.3-.693-.418-1.1-.55-1.468s-.249-.77-.44-1.49l.066.411-.066-.1a6.872,6.872,0,0,1-.323-2.168c0-.492-.026-1.009-.044-1.541a4.548,4.548,0,0,0-.026-.58v-.286a.22.22,0,0,0-.026-.132l-.132-.07h0a9.646,9.646,0,0,1,.154-1.357l-.187.132c-.18-.139-.081-.734.128-1.5s.521-1.629.682-2.4c-.084.172-.176.345-.253.521a3.8,3.8,0,0,1,.7-1.49c.367-.51.734-.983.947-1.35.11-.154-.081.283-.154.528.554-.954.55-1.031.466-1.075s-.231-.04.147-.785c.264-.2.077.492.66-.444a3.915,3.915,0,0,0,.352-.624l.646-1.1a21.623,21.623,0,0,1,1.585-2.447c-.264.257-.525.506-.169-.227.638-1.06,1.97-2.785,2.172-3.94.088-.136.136-.18.158-.176a20.8,20.8,0,0,0,1.1-3.518A2.476,2.476,0,0,0,46,66.308c.088-.283.183-.6.264-.928s.139-.671.209-1.009c.264-1.346.407-2.59.675-2.532.172-.965.3-1.937.4-2.909l.048.081c.055-.466.092-.859.117-1.192s0-.62,0-.862a6.938,6.938,0,0,0-.121-1.148c.044-.429.092-.114.121-.077a14.632,14.632,0,0,0-.367-5.28l.158-.257c-.077-.3-.125-1.3-.275-2.539a18.458,18.458,0,0,0-.9-4,.62.62,0,0,1,.154.268c-.5-1.435-.947-3.2-1.5-4.682a16.51,16.51,0,0,0-.829-1.952,3.177,3.177,0,0,0-.851-1.1q-.539-.844-1.1-1.662c1.211,2.264-.429-.194,0,.781-.517-.851-1.163-2.326-.484-1.291l.07.183c.26.11-.1-.605-.565-1.317-.224-.367-.455-.734-.631-1s-.275-.466-.22-.488l-.554-.77c-.18-.249-.367-.488-.525-.734a16.114,16.114,0,0,1-.921-1.541,16.719,16.719,0,0,1-1.324-3.3,17.977,17.977,0,0,1-.726-4.5,1.214,1.214,0,0,0,.205-.106c0-.367.022-.8.037-1.229,0-.246.026-.5.04-.734.022-.466.059-.9.1-1.178-.037.227-.088.5-.125.638a17.414,17.414,0,0,1,.187-2.425.55.55,0,0,1,.077-.143v.04c-.04.407-.106.994-.033.671.022-.114.051-.227.077-.338v.033a.651.651,0,0,1,.029-.147c.029-.143.059-.29.1-.433l-.04.092a7.077,7.077,0,0,1,.227-1.035c.084.224.216.224,0,1.211a17.362,17.362,0,0,1,.565-2.2c.106-.125.627-1.005.554-.712.077-.136.15-.286.227-.44s.158-.316.238-.484l.238-.528c.088-.18.187-.367.279-.539L39.6,10c.11-.18.227-.367.345-.536s.238-.367.367-.525.279-.319.426-.473A2.29,2.29,0,0,1,41.1,7.95a32.794,32.794,0,0,1,3.75-3.06c.367-.1.686-.224,1.046-.3.631-.367.279-.264.029-.231s-.407,0,.682-.591c1.581-.734.679-.059,1.269-.2a7.782,7.782,0,0,1,3.779-1.1c-.521.1-.932.15-1.409.264.407-.026.807-.077,1.214-.066-1.4.44-2.4.66-1.277.583,0-.158.492-.338,1.137-.462.327-.051.693-.11,1.064-.147l1.1-.081V2.084c.187,0,.367-.026.561-.029h0V2.04h0v.1h0v-.1h0v.238h0V2.04h0v0h0c.763,0,1.354-.04.675-.205,1.1.066.066.183.906.323a42.129,42.129,0,0,1,9,1.1c.062-.055-.451-.271.253-.209l1.611.693c.635.106.668-.216,1.75.312-.147-.1-.367-.246.059-.147a74.609,74.609,0,0,1,9.084,3.559,34.29,34.29,0,0,1,8.182,5.375c-.62-.635-.143-.294.367.125-.327-.3.1-.121.088-.246l1,.943c.161.158.33.312.492.473l.473.492a6.094,6.094,0,0,1,1.35,1.013c.521.473,1,.954,1.189.965l-.62-.554c.506.3.323-.092.051-.58s-.664-1.027-.484-1.1a10.468,10.468,0,0,1-1.86-1.651c-.367-.338-.734-.693-1.134-1.024a6.178,6.178,0,0,0-1.38-.829c-.345-.334.4.143.238-.07a4.3,4.3,0,0,1-.862-.444c-.165-.1-.338-.231-.536-.367s-.422-.286-.671-.466l.136.044c-.734-.451-1.335-.873-1.923-1.218s-1.123-.675-1.666-1.013-1.13-.638-1.772-1.005c-.323-.172-.657-.367-1.035-.558L75.8,5.184l.191.275a11.894,11.894,0,0,1-1.24-.69c-.976-.139,2.128.958,1.214.873a6.3,6.3,0,0,0-1.2-.712c-.561-.242-1.233-.506-1.893-.767s-1.324-.473-1.853-.686a3.7,3.7,0,0,1-1.075-.543c-1.233-.367.3.294-.928-.055l-.3-.194-.349.048c-.8-.246-1.174-.492-1.185-.583.2.051.565.128.781.176a10.273,10.273,0,0,0-1.934-.492c-.668-.125-1.247-.235-1.431-.279.4.1.8.22,1.192.327-.433-.077-.866-.183-1.321-.253L63.087,1.4c-.928-.18-1.889-.279-2.843-.4a33.556,33.556,0,0,0-5.5-.213l.253.088h-.936V.616h0V.51h0V.881h0V.514h0V.477h0v0h0V.367h0V.308h0V.7h0V.881h0v0L53.482.9V.3c-.84.055-1.5.136-1.559.316L51.017.539c.246,0,.283-.037.525-.04a2.568,2.568,0,0,0-1.5.169,4.953,4.953,0,0,1-1.834.367c-.734.044-1.269.055-.774-.077L45.8,1.306c-.385.048-.389,0-.125-.062-.132.018-.268.037-.4.062l-.62.128-1.244.253V1.669c-.169.073-.451.172-.734.279l-.756.3c-.642.081.3-.125.128-.147l-1.3.466c-.587,0,.514-.367,1.468-.594a2.451,2.451,0,0,0-1.427.18,13.942,13.942,0,0,1-2.484.69l1.262-.437a16.592,16.592,0,0,0-3.364.686c.187,0,.936-.165,1.468-.216s.833,0,.121.275a7.554,7.554,0,0,0-1.706.631c-.062-.154-.822.117-1.743.521l-.044-.268a7.482,7.482,0,0,0-1.416.888,3.1,3.1,0,0,1-1.743.4c-1.787.785,1.343-.3-.734.7a21.126,21.126,0,0,0-1.978,1.013c-.635.367-1.251.822-2.051,1.361-1.016.5.1-.224-.286-.077a9.4,9.4,0,0,0-.734.69c-.205.132-.172.04-.154,0-.668.521.07.235-1,1.009a5.368,5.368,0,0,1-1.416.928c-.367.209-.767.44-1.145.7a6.8,6.8,0,0,0-.987.881c-.367.2.062-.235-.088-.227l-.936.881-.528.55c-.3.316-.55.609-1.152,1.31l-1.236.972c.477-.338.484-.213.275.121s-.653.866-1.016,1.4c.334-.242.631-.429.826-.561-.466.492-.877,1.031-1.317,1.545-.194.154-.114-.051.044-.367l-.216.308c-.561.47-.4.106-.139-.367l.609-.437c.242-.466.459-.917.29-.939-.081.11-.235.319-.422.532.066-.125.1-.209.04-.18a2.422,2.422,0,0,0-.367.51l-.514.161V17.9c-.671.6-1.284,1.262-1.915,1.908-1.042,1.651-1.768,3.2-3.346,5.779.242-.734-.176-.308-.345-.47a6.6,6.6,0,0,0,.994-1.372,13.182,13.182,0,0,1,1.255-1.878c-.528.638-.506.429-.4.242-.521.792-.983,1.622-1.468,2.429-.125-.161-.448.422-.91,1.005.3-.136.073.341-.3.983s-.826,1.468-1.068,2c-.143,0-.117-.3.605-1.5-1,1.218-.646,1.934-1.523,3.177a1.915,1.915,0,0,0,.242-.6,11.484,11.484,0,0,1-.7,1.468c-.268.459-.448.785-.407.55.048-.1.088-.209.143-.312a37.841,37.841,0,0,0-1.7,4.014c-.125.367-.249.686-.341,1s-.165.609-.227.862a2.5,2.5,0,0,0-.128.965,1.288,1.288,0,0,1-.279-.55l-.073,1.042-.026,1.046c0,.7-.044,1.38-.022,2.073-.088-.205-.367,0-.583,0a.231.231,0,0,1-.257-.194,1.834,1.834,0,0,1,.033-.9,10.368,10.368,0,0,0-.528,2.267c.121-.367.583-.811.5-.316a11.711,11.711,0,0,0-.488,1.13c-.084.271-.169.58-.444,1.4.154-.536.459.143.294.994-.037-.143-.422,0-.407-.312v.55l.04.587.062,1c-.048-.385-.341,0-.506.433.059-.106-.022.367-.07.932S.386,50.557.386,50.847l.165-.914a6.5,6.5,0,0,0,.114,2.447A9.059,9.059,0,0,1,.914,54.8c-.092-.294-.543-.734-.565.514.114.283.367.906.653,1.713a15.167,15.167,0,0,1,.781,2.84l-.07.415.345,1.6a24.131,24.131,0,0,1-.939-2.418C.958,58.952.8,58.423.657,57.921c-.07-.249-.136-.492-.2-.734l-.132-.642a4.481,4.481,0,0,0-.04,1.644c-.073.5-.238-.734-.257-1.148,0,.536.051,1.075.077,1.614s.044,1.079.1,1.618C.434,60.1.764,62.69.94,62.536L.591,60.823l-.176-.862-.106-.855c.125-.081.312.411.547,1.192.121.393.242.855.345,1.365.055.253.1.517.147.789s.1.543.147.822c0,.587-.51-.367-.583-.294a13.788,13.788,0,0,1,.521,2.326l-.312-.936a5.738,5.738,0,0,0,.161.87c.081.268.18.517.271.781a6.476,6.476,0,0,1,.418,1.834c.128.506.125,1.6.29,1.647.033-.91.833-1.288,1.189-.807,0,.088.132.759.26,1.468s.312,1.468.341,1.79c.07.888-.91-1.049-.855-.294.073,0,.3.433.4.609.128.539-.29-.139.161.972.3.1.873,2.275.4.451.506,1.057.367,1.189.965,2.429,0-.231.238,0,.561.4A17.641,17.641,0,0,1,6.7,78.019c-.088-.029-.044.238-.018.367L7.4,79.831l.664,1.251c.213.393.4.792.653,1.192s.506.822.8,1.291c.029.1.176.389.271.609s.154.367-.026.213a7.067,7.067,0,0,1,.866.987c.6,1.211-.917-1.233-.539-.253a25.19,25.19,0,0,1,1.875,2.047,3.959,3.959,0,0,0-.756-1.141c-.389-.514-.881-1.071-1.2-1.442.125-.092.5.165,1.027.664.264.249.554.565.892.914s.712.734,1.1,1.167c.587.7.693.866.657.91s-.2-.055-.077.051a17.074,17.074,0,0,0,1.321,1.435,9.617,9.617,0,0,0,.91.734,11.711,11.711,0,0,1,1.941,1.834c.679.921-.235.319-.15.594a22.42,22.42,0,0,1-2.249-2.429l.781.947a10.072,10.072,0,0,1-1.431-1.424,9.067,9.067,0,0,0,.87,1.042c.429.47.961,1.046,1.574,1.614s1.24,1.211,1.886,1.761,1.222,1.123,1.732,1.556c.415.242,1.1.693.844.389l-.682-.5c-.506-.6,1.383.807.591.092a37.911,37.911,0,0,1,3.3,2.176l.125.349a1.882,1.882,0,0,0-.444-.389,5.09,5.09,0,0,0-.734-.5c.572.319,1.834,1.6,2.616,1.746l-.848-.734c.51.249,1.071.536,1.677.807a13.667,13.667,0,0,1,1.812.961c-.44-.51-.29-.139-1.016-.855.294.349-.481-.088-1.185-.514s-1.332-.855-.844-.341a5.871,5.871,0,0,0-1.1-.943,10.811,10.811,0,0,1-1.244-1.1c0,.084.3.385-.627-.319a1.244,1.244,0,0,1-.246-.1l-.022-.059.044.048c-.048-.022-.051-.022,0,.018a3.005,3.005,0,0,1,.415.437,3.158,3.158,0,0,1-.576-.294c-.224-.143-.473-.319-.734-.5-.5-.367-1.009-.734-1.284-.888-.5-.484.275.125.04-.183l-.8-.517c.033-.187-1.211-1.409.084-.415-.367-.327-.734-.638-1.1-.976-.283-.33-.627-.708-.98-1.057s-.7-.671-.972-.921c-.451-.521-1.339-1.137-.829-.789-.565-.521-1.082-1.082-1.611-1.64v-.044c-.734-.848-1.5-1.75-2.282-2.675a18.073,18.073,0,0,1-2.036-3.159c-.224-.308-.451-.624-.708-1a15.253,15.253,0,0,1-.8-1.4V79.89a7.542,7.542,0,0,1-.433-.763c-.139-.3-.29-.613-.429-.917a6.989,6.989,0,0,0-.7-1.291,4.649,4.649,0,0,0-.341-1.178c-.183-.488-.459-1.035-.686-1.625l-.734-1.743c-.213-.561-.389-1.1-.514-1.5H4.642l-.286-.837c-.1-.279-.18-.569-.275-.862-.183-.587-.411-1.2-.627-1.908l-.136.128a16.7,16.7,0,0,1-.528-2.308c-.121-.91-.253-1.9-.418-2.9a3.937,3.937,0,0,1,.176.994c0-.3-.037-.605-.059-.914s-.055-.613-.1-.921c-.077-.616-.213-1.233-.3-1.834a14.982,14.982,0,0,1-.249-3.533,5.632,5.632,0,0,1-.029-1.321.752.752,0,0,0,0,.136v-.224c.026-.238.07-.484.1-.734-.048.227-.084.444-.106.635,0-.422,0-1.057-.022-1.68l.183-.26v-.143c.081-.609-.073-.5-.213-.176-.026-.316-.04-.605-.066-.829.327-.477.026-1.647.389-2.293-.1-.433.271-3.126.066-3.5.044,0,.1-.194.037.143a12.922,12.922,0,0,0,.367-2l.286-.246.048-1.552a2.873,2.873,0,0,1,.385-.848c.084-.077.1.066.073.532a15.905,15.905,0,0,1,.367-1.941c.04-.2.084-.393.128-.649s.125-.58.213-1.049l.106.132A10.908,10.908,0,0,1,4.8,36.047a13.773,13.773,0,0,0,.8-1.691c.349-.756.763-1.673,1.225-2.649A30.113,30.113,0,0,1,8.41,28.746c.294-.484.569-.965.866-1.413s.6-.866.884-1.255c-.367.2-.1-.154.253-.594s.822-.939.734-1.1c.213-.128.569-.536.279.026.268-.415.506-.77.734-1.082l.682-.826a10.731,10.731,0,0,0,1.119-1.589c.224-.106-.161.415,0,.3a2.777,2.777,0,0,1,.521-.646c.176-.114-.125.271-.294.536a6.164,6.164,0,0,0,1.068-1.559.734.734,0,0,0,.026-.627A5.5,5.5,0,0,0,16.8,17.244c.327-.18.822-.521-.055.367.257-.242,1.06-.961,1.779-1.651s1.427-1.284,1.376-1.4a2.866,2.866,0,0,0,.47-.367,5.372,5.372,0,0,0,.422-.389c1.255-.976,1.357-1.068,2.62-1.989l-.367.224a2.2,2.2,0,0,1,.759-.734l.569-.367c.216-.125.455-.271.712-.451v.044a19.992,19.992,0,0,0,1.765-1.06,12.43,12.43,0,0,1,1.787-.961l-.22-.077c0-.242.609-.481,1.361-.778.367-.147.792-.316,1.207-.488a8.7,8.7,0,0,0,1.192-.547l-.605.158a5.191,5.191,0,0,1,1.644-.521,11.627,11.627,0,0,0,1.713-.319c.191-.044-.268.165-.51.29,1.126-.338,1.174-.418,1.145-.506s-.15-.191.671-.5c.367,0-.286.433.833.07.294-.048,1.06-.444,1.985-.781.459-.18.95-.367,1.431-.517a7.752,7.752,0,0,1,1.357-.268c-.367,0-.734-.022.044-.283.327-.081.693-.139,1.06-.216s.814-.088,1.225-.139c.345-.04.682-.088,1-.147a5.088,5.088,0,0,0-.448.367c-.407.2-.15,0-.132-.062l-.851.462c-.246.15-.462.294-.66.422a6.031,6.031,0,0,0-.554.385c-.205.132-.393.271-.576.4a6.083,6.083,0,0,0-.734.6c-.213.2-.415.393-.594.58l-.477.554c-.3.345-.543.679-.8.961a4.942,4.942,0,0,1-.367.4,3.771,3.771,0,0,1-.407.367.855.855,0,0,0-.077.29l-.191.238A14.309,14.309,0,0,0,36.513,12c-.022.051-.048.1-.07.15.1-.22.077-.249.183-.466a6.835,6.835,0,0,0-.591,1.468l-.209.613a6.884,6.884,0,0,1-.26.638,1.3,1.3,0,0,1,0,.169c-.07.227-.143.455-.209.686.022-.147.04-.286.055-.415a5.3,5.3,0,0,0-.294,1.313l-.044.172c-.04.169-.07.334-.1.5a.367.367,0,0,1-.066-.154c.018.1.026.194.037.294-.092.455-.169.9-.213,1.317-.029.3-.051.613-.055.866a1.618,1.618,0,0,0,.029.29,1.243,1.243,0,0,0-.139.194c-.026.037-.029.066-.066.117a1.27,1.27,0,0,0-.128.18l-.848.587a10.228,10.228,0,0,0-.851.572l.367-.231.279-.147a1.614,1.614,0,0,1,.3-.128c.106-.026.04.055-.066.161-.213.216-.583.532-.088.308-.837.587-2.319,1.321-1.284.587l.183-.081c.1-.279-.6.158-1.335.635s-1.438,1.079-1.49.958l-.774.6c-.253.205-.492.429-.734.642-.488.429-.987.844-1.468,1.284-.917.91-1.86,1.787-2.689,2.759s-1.629,1.948-2.41,2.935c-.367.51-.708,1.035-1.06,1.548l-.517.774-.459.785.51-.367-.859,1.468c-.275.367-.481.426.132-.635a3.8,3.8,0,0,0-.609,1.1,3.452,3.452,0,0,0-.2.814c-1.137,2.11.125-.983-.2-.323l-.418.91.128-.191a17.915,17.915,0,0,1-.756,2.242c-.4.84-.33.367-.477.734-.018,0-.073.1-.216.521-.246.679-.466,1.368-.7,2.051l.466-.759c-.194.943-.635,1.926-.1,1.049a7.547,7.547,0,0,0-.66,1.772c-.114.4-.235.84-.367,1.3s-.176.947-.264,1.424-.176.95-.231,1.4-.092.881-.132,1.262c-.073.763-.161,1.339-.183,1.563.051.671.066,1.335.059,2.036v1.086c0,.367.022.759.033,1.17.029-.411.26-.657.279.734-.554-.481,0,2.568-.161,3.761.026-.525.216.466.407,1.38s.455,1.732.411.921c.249,1.148-.161.11-.055,1.005.422,1.391.892,2.858,1.369,4.417.286.763.569,1.552.881,2.348s.734,1.556,1.1,2.33c.088,0-.1-.543.334.07l.649,1.765a2.41,2.41,0,0,0,.51.547,2.513,2.513,0,0,1,.62.972c-.051-.176-.128-.44.143-.07a33.244,33.244,0,0,0,6.688,7.844c.664.561,1.3,1.156,2.011,1.666s1.361,1.1,2.091,1.563,1.409,1.027,2.157,1.468l.547.367c.165.106.422.268.444.3a1.247,1.247,0,0,0,.11.084.96.96,0,0,0,.059.246l-.022.136a.391.391,0,0,1,.029-.1c.044.172.081.345.125.517,0,.242-.048.169-.081.132.051.3.1.389.15.44s.029.205.048.327c0-.088-.029-.2-.044-.319l.051.026a.793.793,0,0,1,.154.367c.026.591.077,1.185.161,1.776a2.477,2.477,0,0,1,.253.594,6.237,6.237,0,0,0,.734,2.242c.084.4-.2-.128-.242,0,.231.466.411.8.561,1.064L36.8,97.2l.4.4.084.136c.121.176.242.341.4.55a9.782,9.782,0,0,0,.653.814l.367.69c.121.227.26.444.393.668-.271-.51-.143-.5.161-.253.15.121.345.3.554.5l.7.613c-.191-.367-.367-.649-.466-.844.459.466.9.943,1.4,1.361.136.194-.055.114-.367-.048l.294.216c.429.561.084.4-.367.132-.136-.209-.279-.407-.393-.616-.426-.271-.851-.525-.892-.367a6.028,6.028,0,0,1,.484.462c-.117-.073-.2-.114-.176-.051a2.113,2.113,0,0,0,.473.4l.136.51H40.8c.147.165.29.341.444.5l.473.473c.312.327.649.616.991.91a18.265,18.265,0,0,0,2.645,1.189c.459.161.943.334,1.468.514l-.437-.018c.26.037.459.062.613.077.44.143.914.29,1.435.433-.341,0-.6,0-.477.084h.007a2.2,2.2,0,0,0,.338.11l.1.033c0,.062.062.143.077.22-.327-.147-.778-.283-1.258-.466a10.511,10.511,0,0,1-.987-.367c0-.026.022-.048.176-.051a2.017,2.017,0,0,1-.334-.018,5.013,5.013,0,0,1-.84-.44l-.154-.158-.609-.106.536.29c.539.345.367.349.161.283l.183.077H45.19a1.218,1.218,0,0,1,.249.055l1.031.411.914.29-.084-.018h-.154a10.145,10.145,0,0,1-1.288-.323c-.2-.07-.367-.128-.451-.169a3.078,3.078,0,0,0,.936.5,2.866,2.866,0,0,1,.818.033c.44.106,0,.077,0,.128.209,0,.624,0,.6-.04h.048c-.121.154.517.327,1.2.616-.216-.246.3-.176,1.016-.026a13.942,13.942,0,0,0,2.2.29c.026.066-.029.121-.264.139a3.509,3.509,0,0,1-.5,0c-.216-.033-.492-.081-.833-.15a3.236,3.236,0,0,0,.958.224,5.308,5.308,0,0,0,.785-.048,4.972,4.972,0,0,1,1.724,0,1.79,1.79,0,0,0-.649.018c.8-.029,2.678-.033,2.238.092h-.33a37.058,37.058,0,0,0,4.208-.3l1.016-.143c.312-.062.6-.125.844-.183a2.436,2.436,0,0,0,.888-.319,1.222,1.222,0,0,1-.367.5c1.255-.51,2.462-1.141,3.647-1.735-.136.172.147.338.253.528s.037.433-.851.675a9.245,9.245,0,0,0,2.223-.528c-.367.051-.958-.161-.488-.3a13.9,13.9,0,0,0,2.6-.279c-.528.1-.077-.473.734-.7-.106.1.191.367-.092.5.609-.3,1.2-.668,1.783-1.009-.316.209.147.308.6.264-.117,0,.319-.143.837-.341s1.13-.437,1.383-.561l-.866.249a6.237,6.237,0,0,0,2.073-1.159A8.689,8.689,0,0,1,77.8,102c-.209.209-.389.8.7.286.194-.224.62-.734,1.2-1.317a14.864,14.864,0,0,1,2.117-1.919l.393-.114,1.244-.972c-.323.4-.965,1.1-1.688,1.864a19.52,19.52,0,0,1-2.176,1.945,4.731,4.731,0,0,0,1.446-.668c.47-.143-.547.517-.884.734l1.372-.759c.455-.253.917-.5,1.357-.785-.253-.139,1.875-1.5,1.644-1.629-.433.367-.892.693-1.339,1.042s-.9.7-1.365,1.013c-.128-.077.216-.455.789-1.005a23.583,23.583,0,0,1,2.311-1.834c.51-.249-.081.6,0,.642a16.144,16.144,0,0,1,1.79-1.442c-.213.231-.437.451-.668.668a5.943,5.943,0,0,0,1.244-1.1,7.429,7.429,0,0,1,1.427-1.152c.393-.323,1.354-.767,1.324-.932-.814.341-1.5-.216-1.236-.734.066-.059.624-.418,1.181-.851s1.178-.888,1.435-1.038c.734-.422-.528,1.24.114.884-.026-.07.249-.448.367-.6.418-.334,0,.316.781-.55-.048-.312,1.629-1.7.22-.543.734-.873.877-.829,1.728-1.853-.2.106-.11-.209.114-.664a8.1,8.1,0,0,1,.411-.734c.158-.249.308-.539.466-.77,0,.092.231-.059.334-.132.367-.451.69-.84.976-1.214s.547-.734.811-1.075a26.973,26.973,0,0,0,1.585-2.3c.077-.066.271-.312.429-.484s.264-.286.2-.062a6.771,6.771,0,0,1,.506-1.167c.826-1.013-.7,1.31,0,.583a22.644,22.644,0,0,1,1.027-2.484,3.549,3.549,0,0,0-.7,1.123c-.29.554-.58,1.214-.774,1.651-.136-.077-.066-.517.154-1.185.106-.334.264-.734.437-1.156s.367-.928.572-1.438c.367-.8.488-.961.539-.947s.037.2.077.051a10.273,10.273,0,0,0,.994-2.847,7.886,7.886,0,0,1,.246-.987c.062-.187.136-.393.235-.631s.194-.51.334-.826c.536-.972.385.081.6-.1a21.385,21.385,0,0,1-1.229,2.961l.528-1.1a8.757,8.757,0,0,1-.671,1.834,6.949,6.949,0,0,0,.569-1.185c.227-.569.539-1.266.785-2.04.554-1.526,1.06-3.284,1.468-4.52.04-.462.154-1.251,0-.9l-.158.8c-.327.69.132-1.545-.172-.558.066-.543.139-1.1.22-1.746a14.947,14.947,0,0,1,.367-2.051c.092-.084.187-.165.271-.249a4.479,4.479,0,0,0-.319,1.4,9.062,9.062,0,0,1,.341-1.468,3.794,3.794,0,0,0,.139-1.545ZM54.047.693V.881h0Zm0,.117Zm0,.066Zm0,1.244Zm0-1.4V.734Zm0,1.387Zm0-.066Zm0,.051V2.062Zm0-1.611Zm0,1.633Zm0-1.728Zm0,1.7Zm0-1.578Zm0,.209Zm0,.143Zm0-.139V.734Zm0-.15ZM18,92.159l-.033-.018C17.417,91.528,17.6,91.748,18,92.159ZM13.8,19.383a3.361,3.361,0,0,1,.814-.866C14.379,18.777,14.122,19.078,13.8,19.383ZM37.809,3.126a4.765,4.765,0,0,1,1.328-.44C38.777,3,38.432,3,37.809,3.126Zm.925,74.288a3.992,3.992,0,0,1,.734-1.1C39.39,76.746,39.137,76.933,38.733,77.414Zm-2.315-58.7a2.5,2.5,0,0,1,0,.4,2.289,2.289,0,0,1-.033.367,3.248,3.248,0,0,1-.044.415,2.012,2.012,0,0,0,.11.521l-.121.114a18.642,18.642,0,0,1,.062-2.128C36.4,18.495,36.411,18.6,36.418,18.711Zm-.077-.631a1.1,1.1,0,0,0,.04.209l-.062.1A.918.918,0,0,1,36.341,18.08ZM34.873,21.3c.033.191.062.4.084.587-.066-.172-.125-.367-.187-.532Zm-18.2,19.166.169-.3C16.6,40.9,16.639,40.684,16.672,40.468ZM35.431,84.539a10.952,10.952,0,0,0-.4,3.518c-.158-.062-.323-.136-.5-.227a7.544,7.544,0,0,1-1.251-.792l.136.048c-.734-.477-1.346-.873-1.9-1.28s-1.027-.825-1.523-1.233c-.125-.1-.253-.2-.367-.312l-.367-.341-.763-.734c-.264-.257-.561-.51-.848-.814l-.925-.98.081.327a8.906,8.906,0,0,1-.9-1.075c-.411-.271-.04.18.389.6s.837.862.426.657a6.12,6.12,0,0,0-.877-1.1c-.393-.448-.877-1.013-1.332-1.548l-.345-.4-.3-.418c-.2-.268-.385-.528-.547-.763a3.3,3.3,0,0,1-.572-1.057c-.7-1.064.044.429-.66-.638l-.1-.345-.294-.191a4.769,4.769,0,0,1-.44-.848c-.066-.209-.073-.338-.044-.367a3.2,3.2,0,0,0,.205.33c.088.117.176.238.242.323-.059-.121-.136-.249-.213-.385s-.15-.29-.235-.44c-.169-.3-.367-.605-.528-.892L20.2,72.38c-.062-.106-.114-.2-.154-.283.136.308.286.609.437.91a32.936,32.936,0,0,1-2.392-5.048c-.2-.44-.319-.9-.481-1.35s-.3-.9-.455-1.335c-.268-.888-.5-1.754-.767-2.568v.268c-.048-.154-.1-.3-.132-.433s-.059-.26-.084-.367c-.048-.231-.088-.433-.117-.609-.066-.367-.1-.62-.128-.892s-.077-.554-.106-.943-.084-.888-.176-1.592l.029.1c-.07-.279-.136-.605-.191-.961a9.226,9.226,0,0,1-.066-1.13c.121.712.139-1.354.279-.418-.062-.693-.121-1.13-.136-1.42a4.19,4.19,0,0,0-.048-.547,9.517,9.517,0,0,1-.227-1.273l.154-.422a4.34,4.34,0,0,1-.092-.767,12.941,12.941,0,0,1,.066-1.354c0,1.174.3-.877.316.437.268-1.468.448-2.543.532-3.445a6.123,6.123,0,0,1,.22-1.2,3.669,3.669,0,0,1,.393-.976c-.033-1.424-.826,2.447-.734,1.684-.114.3-.15,0-.073-.466a12.614,12.614,0,0,1,.334-1.6,3.2,3.2,0,0,1,.249-.653c.121-.209.249-.429.4-.69s.308-.565.477-.943c.084-.191.169-.4.257-.631s.209-.473.319-.734c-.092.22-.07.246-.161.462a7.874,7.874,0,0,0,.492-1.247,5.136,5.136,0,0,1,.62-1.361c.062-.649.627-1.269.444-1.559L18.6,39.03a14.988,14.988,0,0,1,1.834-4.091A8.805,8.805,0,0,1,20,36.065c.367-.481.521-1.035.9-1.53.169.3-1.3,2.333-1.622,3.669a7.415,7.415,0,0,0,.594-1.28c.18-.426.341-.682.308-.319A4.267,4.267,0,0,1,20.9,35.02,14.749,14.749,0,0,0,22,33.09l.088.183a7.514,7.514,0,0,1,.613-1.1c-.117.264-.194.558-.294.829a6,6,0,0,1,1.1-1.534c.422-.455.814-.921,1.2-1.413-.433.484-.646.781-.781.917s-.176.147-.191.106.044-.312-.341.092c.22-.341.411-.616.576-.84a6.167,6.167,0,0,1,.466-.521,4.612,4.612,0,0,1,.7-.561,6.346,6.346,0,0,0,.792-.631,16.547,16.547,0,0,0,1.284-1.225c-.407.385-1.225,1.064-.774.517a13.043,13.043,0,0,1,1.559-1.284c1.757-1.6-.4.114.29-.638a2.245,2.245,0,0,0,.778-.671,5.287,5.287,0,0,1,.807-.91l.114.132c1.1-.789,1.2-.976,1.266-1.137a.679.679,0,0,1,.2-.3,7.338,7.338,0,0,1,.965-.642l-.734.781,1.024-.767-.106.316a10.453,10.453,0,0,1,1.28-.972c.246-.147.5-.283.807-.444a18.88,18.88,0,0,0,.517,3.518c-.345-1.324-.283-1.49-.216-1.468s.2.246.161-.323c.2.8.341,1.313.411,1.7a6.236,6.236,0,0,1,.106.914,5.938,5.938,0,0,0,.77,2.568c-.246-.55-.481-1.368-.158-.792.242.671.627,1.534.767,1.963,1.324,2.113-.051-.415.591.433a2.135,2.135,0,0,0,.554.9,10.838,10.838,0,0,1,.855.87l-.139.114c.734,1.1.888,1.2,1.046,1.269s.3.106.873,1.159c-.238-.249-.492-.484-.734-.734.249.33.488.671.734,1.016l-.3-.114a10.772,10.772,0,0,1,1.563,2.656c-.029-.33.367,0,.888,1.064.235.774-.334-.338.367,1.167a2.612,2.612,0,0,1-.7-1.339c-.084-.04-.268-.279-.367-.323.147.407.367.9.572,1.357s.418.884.528,1.159a5.35,5.35,0,0,1-.2-.616c.367.712.756,1.42,1.1,2.154.066.367-.088.114-.235-.147a14.885,14.885,0,0,1,.6,1.42c-.2-.128-.3-.051-.7-.98.158.349.294.7.433,1.057s.286.7.4,1.068c-.022.165.136,1.174,0,.9a31.162,31.162,0,0,1,1.053,4.641,2.458,2.458,0,0,1,.143.609c.147,1.574.029,2.968.213,4.836-.1.367-.183.7-.283,1.049-.029,1.468.407-1.42.367,1.024-.055,1.735-.271.624-.4,1.222a10.053,10.053,0,0,1-.407,3.911c.062-.525.158-.925.231-1.409l-.367,1.163c.037-1.468.253-2.488-.11-1.413.224.121.062,1.28-.2,2.418s-.558,2.264-.367,2.414l-.33.734c.07-.216.051-.26.121-.477a2.843,2.843,0,0,0-.367,1.361,3.8,3.8,0,0,1-.418,1.71c-.286.638-.565,1.049-.422.591-.176.488-.341.983-.521,1.468-.176.334-.224.29-.114.037-.308.657-.613,1.317-.961,1.956v-.022c-.048.169-.132.437-.231.7s-.216.532-.29.708c-.367.484.11-.286-.022-.187-.191.4-.367.8-.587,1.189-.4.367.1-.594.565-1.372a2.326,2.326,0,0,0-.833,1.053,7.261,7.261,0,0,1-1.346,1.978l.66-1.046a5.038,5.038,0,0,0-.954.976l-1.211,1.537c.136-.128.638-.715,1.042-1.068a1.1,1.1,0,0,1,.411-.294c.062,0,.044.106-.154.44a5.87,5.87,0,0,0-.95,1.534c-.154-.084-.539.624-.958,1.537l-.183-.161a5.018,5.018,0,0,0-.367,1.625,3.543,3.543,0,0,1-.9,1.556C34.818,85.408,35.952,82.3,35.431,84.539Zm5.958,18.19a8.71,8.71,0,0,1,.851.8A3.669,3.669,0,0,1,41.389,102.729Zm4.425,3.4-.437-.191-.29-.165c.161.081.319.165.488.238l.268.117Zm.338.139h0c.084.04.169.07.253.106Zm2.315.9a2.227,2.227,0,0,0-.209-.114l.22.077Zm.132-.455.037-.048.183.051a1.525,1.525,0,0,0-.22-.018Zm20.641-1.834c-.029-.029-.2,0,.088-.088a.4.4,0,0,0-.088.088ZM103.4,71.459c-.319.734-.2.466,0-.037Z" transform="translate(-0.019)" fill="#1a1a1a"/>
        <path id="Path_598" data-name="Path 598" d="M147.26,1.619v0" transform="translate(-93.232 -1.007)" fill="#1a1a1a"/>
        <path id="Path_599" data-name="Path 599" d="M124.71,135.14l.044.1,0-.055Z" transform="translate(-78.956 -85.559)" fill="#1a1a1a"/>
        <path id="Path_600" data-name="Path 600" d="M249.933,251.91a3.879,3.879,0,0,1-.543.4C249.4,252.35,249.544,252.27,249.933,251.91Z" transform="translate(-157.892 -159.487)" fill="#1a1a1a"/>
        <path id="Path_601" data-name="Path 601" d="M287.451,167.64l-.081.932a5.912,5.912,0,0,1,.18-.921C287.513,167.666,287.447,167.805,287.451,167.64Z" transform="translate(-181.937 -106.135)" fill="#1a1a1a"/>
        <path id="Path_602" data-name="Path 602" d="M291.552,141.811c-.033-.154-.022-.327-.055-.481l-.077.048C291.468,142.034,291.545,142.5,291.552,141.811Z" transform="translate(-184.501 -89.478)" fill="#1a1a1a"/>
        <path id="Path_603" data-name="Path 603" d="M289.8,160.92v.132c-.194-.235-.176.554-.2,1.339C289.747,162.325,289.747,161.657,289.8,160.92Z" transform="translate(-183.349 -101.88)" fill="#1a1a1a"/>
        <path id="Path_604" data-name="Path 604" d="M290.215,158.575c-.073-.092-.04.275-.055.682C290.175,159.03,290.189,158.8,290.215,158.575Z" transform="translate(-183.704 -100.387)" fill="#1a1a1a"/>
        <path id="Path_605" data-name="Path 605" d="M284.319,184.176c.132-.323-.117-.257,0-.433C284.234,183.325,283.893,186.029,284.319,184.176Z" transform="translate(-179.873 -116.301)" fill="#1a1a1a"/>
        <path id="Path_606" data-name="Path 606" d="M290.605,164.125c.044-.224.081-.451.11-.675l-.205.246C290.547,163.839,290.572,163.982,290.605,164.125Z" transform="translate(-183.925 -103.482)" fill="#1a1a1a"/>
        <path id="Path_607" data-name="Path 607" d="M288.23,176.176c-.07.279-.106.47-.077.462.114-.367.2-.767.286-1.156-.033,0-.026-.139,0-.323C288.362,175.516,288.288,175.894,288.23,176.176Z" transform="translate(-182.426 -110.896)" fill="#1a1a1a"/>
        <path id="Path_608" data-name="Path 608" d="M288.94,173.527a8.851,8.851,0,0,0,.143-.947C289.046,172.785,288.962,173.222,288.94,173.527Z" transform="translate(-182.931 -109.262)" fill="#1a1a1a"/>
        <path id="Path_609" data-name="Path 609" d="M290.1,169.044l.209-1.174-.084.341Z" transform="translate(-183.666 -106.28)" fill="#1a1a1a"/>
        <path id="Path_610" data-name="Path 610" d="M275.14,213.017c0,.147.191-.15.389-.591.1-.3.3-.734.15-.587Z" transform="translate(-174.194 -134.099)" fill="#1a1a1a"/>
        <path id="Path_611" data-name="Path 611" d="M281.514,203.269l.143-.609a1.834,1.834,0,0,1-.338.484Z" transform="translate(-178.107 -128.306)" fill="#1a1a1a"/>
        <path id="Path_612" data-name="Path 612" d="M277.633,211.477c0,.143-.7,1.776.04.286C277.677,211.617,278.223,210.425,277.633,211.477Z" transform="translate(-175.583 -133.616)" fill="#1a1a1a"/>
        <path id="Path_613" data-name="Path 613" d="M245.625,253.7l.235-.231-.29-.238Z" transform="translate(-155.473 -160.323)" fill="#1a1a1a"/>
        <path id="Path_614" data-name="Path 614" d="M208.144,280.485c-.814.481-1.288.642-.792.682,1.468-.58.242-.367,1.57-.859C209.215,280.074,207.828,280.713,208.144,280.485Z" transform="translate(-131.149 -177.433)" fill="#1a1a1a"/>
        <path id="Path_615" data-name="Path 615" d="M209.86,280.443c.132-.077.268-.161.411-.253A3.3,3.3,0,0,0,209.86,280.443Z" transform="translate(-132.865 -177.391)" fill="#1a1a1a"/>
        <path id="Path_616" data-name="Path 616" d="M243.2,43.57l.649.734-.367-.528C243.387,43.706,243.3,43.632,243.2,43.57Z" transform="translate(-153.973 -27.585)" fill="#1a1a1a"/>
        <path id="Path_617" data-name="Path 617" d="M247.4,46.56v.33l.572.253a3.412,3.412,0,0,1-.572-.583Z" transform="translate(-156.632 -29.478)" fill="#1a1a1a"/>
        <path id="Path_618" data-name="Path 618" d="M124.126,156.69c-.051.44-.055.965-.106,1.409C124.075,157.134,124.409,156.591,124.126,156.69Z" transform="translate(-78.519 -99.195)" fill="#1a1a1a"/>
      </g>
    </g>
    <g id="Group_2" data-name="Group 2" transform="translate(464 -157.702)">
      <path id="Path_305" data-name="Path 305" d="M36.106,331.237c.22-3.559.3-7.134.7-10.678.348-3.029,1.038-6.058,1.621-9.088a3.378,3.378,0,0,1,.621-1.31,1.128,1.128,0,0,1,1.469-.333c.538.265.477.757.409,1.272-.326,2.605-.757,5.2-.916,7.815-.273,3.787-.507,7.573-.515,11.36,0,2.81-.061,5.71,1.348,8.285s3.552,2.991,5.566.886a14.942,14.942,0,0,0,3.219-5.3,38.243,38.243,0,0,0,2.1-8.55c.523-4.476.825-8.944-.682-13.321a5.3,5.3,0,0,0-.394-.841c-.962-1.734-1.568-1.424-2.643-.242a23.045,23.045,0,0,0-5.082,9.232,5.959,5.959,0,0,1-.8,1.787,1.249,1.249,0,0,1-1.1.326,1.136,1.136,0,0,1-.447-.977,23.849,23.849,0,0,1,3.574-9.845A15.791,15.791,0,0,1,47,308.533c2.219-1.825,5-1.03,6.263,1.59a19.637,19.637,0,0,1,1.7,7.77,44.158,44.158,0,0,1-.636,9.641,50.956,50.956,0,0,1-1.439,5.793,28.021,28.021,0,0,1-1.515,3.9c-1,2.136-2.189,4.2-4.324,5.407a6.479,6.479,0,0,1-9.724-3.544,21.44,21.44,0,0,1-1.212-7.853Z" transform="translate(-294.009 -75.227)"/>
      <path id="Path_306" data-name="Path 306" d="M172.6,332.646c.22-2.885.515-6.058.7-9.232.212-3.7.318-7.4.485-11.1.121-2.6.227-5.2.386-7.785a2.272,2.272,0,0,1,2.469-1.742,6.679,6.679,0,0,1,2.7.954,19.689,19.689,0,0,1,5.135,5.71c1.022,1.583,2.067,3.158,3.029,4.786,2.423,4.218,4.165,8.686,4.188,13.632a19.864,19.864,0,0,1-2.885,11.125,11.8,11.8,0,0,1-9.845,5.839,7.12,7.12,0,0,1-5.21-1.446,2.272,2.272,0,0,1-.757-1.166c-.083-.485,0-1.325.3-1.462a2.446,2.446,0,0,1,1.765,0,8.194,8.194,0,0,0,4.438.757,10.042,10.042,0,0,0,6.248-3.423,15.628,15.628,0,0,0,3.453-9.883,22.445,22.445,0,0,0-3.537-12.427,42.87,42.87,0,0,0-6.49-8.83,11.661,11.661,0,0,0-2.06-1.651c-.825-.507-1.227-.235-1.227.757,0,1.916.045,3.824,0,5.733-.045,4.059-.1,8.111-.2,12.162-.068,2.772-.2,5.536-.371,8.293-.1,1.568-.318,3.12-.492,4.673-.061.553-.318.954-.916.931a.954.954,0,0,1-.969-1C172.827,335.508,172.729,334.236,172.6,332.646Z" transform="translate(-327.138 -74.069)"/>
      <path id="Path_307" data-name="Path 307" d="M119.056,347.055a4.052,4.052,0,0,1-2.938-2.234,19.644,19.644,0,0,1-.939-2.378,3.285,3.285,0,0,0-.257-.409c-.106.129-.22.25-.311.379a16.3,16.3,0,0,1-3.355,3.968c-1.765,1.348-5.1.371-5.566-1.59a9.027,9.027,0,0,1-.326-3.521,37.458,37.458,0,0,1,1.689-6.626c.984-2.643,2.272-5.18,4.763-6.854,1.424-.962,2.9-1.666,4.657-.969a3.461,3.461,0,0,1,2.416,3.135,1.324,1.324,0,0,0,.136.757c1.174,1.159.545,2.514.447,3.786-.167,2.333-.417,4.665-.538,7.005a9.019,9.019,0,0,0,.364,2.355,1.075,1.075,0,0,0,.576.545c.613.288,1.371.424,1.227,1.356S120.306,347.086,119.056,347.055Zm-9.55-4.68.151.515c.1-.053.22-.076.28-.159a57.489,57.489,0,0,0,4.1-5.869,47.506,47.506,0,0,0,2.5-6.414.81.81,0,0,0-.212-.674.659.659,0,0,0-.606-.091,3.894,3.894,0,0,0-1.34.894,43.179,43.179,0,0,0-2.666,3.93C110.3,336.922,110.006,339.656,109.507,342.375Z" transform="translate(-310.808 -79.837)"/>
      <path id="Path_308" data-name="Path 308" d="M240.981,329.592a3.256,3.256,0,0,1,2.749.962,2.643,2.643,0,0,1,.886,3.12,14.925,14.925,0,0,1-2.272,3.5,53.766,53.766,0,0,1-4.756,4.332c-.674.56-1.128,1.2-.8,1.961a4.135,4.135,0,0,0,1.469,1.621,2.9,2.9,0,0,0,2.893,0,15.411,15.411,0,0,0,6.687-5.2,10.556,10.556,0,0,1,.568-1.045c.257-.288.682-.666.977-.621s.659.5.8.848a1.84,1.84,0,0,1-.053,1.083,11.065,11.065,0,0,1-3.5,5.4,41.147,41.147,0,0,1-3.665,2.931,6.058,6.058,0,0,1-8.633-1.439,9.088,9.088,0,0,1-1.416-8.1c.174-.7.311-1.393.492-2.083a10.686,10.686,0,0,1,3.219-4.975,7.414,7.414,0,0,1,3.521-2.189Zm.386,3.786a1.514,1.514,0,0,0-.409.053,6.353,6.353,0,0,0-3.029,3.438.435.435,0,0,0,.045.227,1.12,1.12,0,0,0,.28-.159q1.378-1.462,2.726-2.953a3.933,3.933,0,0,0,.386-.636Z" transform="translate(-341.681 -80.572)"/>
      <path id="Path_309" data-name="Path 309" d="M131.159,341.285c.2-3.787.3-7.641,1.393-11.36.5-1.7,1.818-2.2,3.264-1.151a4.726,4.726,0,0,1,1.219,1.295.833.833,0,0,1-.674,1.318c-.538.061-.659.3-.674.757,0,.8-.076,1.6-.114,2.393a2.192,2.192,0,0,0,.045.31,1.56,1.56,0,0,0,.212-.235c.674-1.03,1.28-2.105,2.022-3.075a15.1,15.1,0,0,1,2.173-2.272,2.272,2.272,0,0,1,3.173.257,5.218,5.218,0,0,1,1.454,3.567,64.567,64.567,0,0,1-.613,12.874,5.058,5.058,0,0,0,0,.757.954.954,0,0,1-1.416.992,2.666,2.666,0,0,1-1.659-2.567c-.076-2.181-.235-4.37-.25-6.551,0-1.681.151-3.355.212-5.036a2.924,2.924,0,0,0-.2-.757,4.383,4.383,0,0,0-.545.515,17.577,17.577,0,0,0-3.029,5.71c-.629,1.984-1.144,4-1.712,6.005-.2.757-.3,1.552-1.348,1.621a2.544,2.544,0,0,1-2.484-1.348,9.268,9.268,0,0,1-.394-2.272q-.069-.873-.053-1.749Z" transform="translate(-317.079 -80.247)"/>
      <path id="Path_310" data-name="Path 310" d="M84.692,343.377a19.614,19.614,0,0,1,1.628-7.4,28.021,28.021,0,0,1,1.734-3.6,7.573,7.573,0,0,1,2.976-2.62,2.439,2.439,0,0,1,2.734,1.06,4.248,4.248,0,0,1,.424,3.294,16.918,16.918,0,0,1-4.1,7.5,2.51,2.51,0,0,1-.507.439,2.075,2.075,0,0,0-1.166,2.393c.114.576.757.939,1.59.8a10.814,10.814,0,0,0,4.43-1.515q1.81-1.227,3.574-2.507c.447-.326.871-.606,1.371-.174a1.454,1.454,0,0,1,.212,1.81,24.31,24.31,0,0,1-7.1,5.225,6.725,6.725,0,0,1-4.036.689,3.665,3.665,0,0,1-3.029-1.954A5.937,5.937,0,0,1,84.692,343.377Zm7.384-10.224-.1-.3a1.757,1.757,0,0,0-.379.326,15.145,15.145,0,0,0-2.272,5.119c-.1.409-.121.833-.182,1.25.25-.333.53-.651.757-1.007A13.116,13.116,0,0,0,92.076,333.153Z" transform="translate(-305.797 -80.597)"/>
      <path id="Path_311" data-name="Path 311" d="M212.561,342.334c-.106-1.333-.242-2.666-.318-4.006-.121-2.333-.265-4.673-.273-7.005a4.407,4.407,0,0,1,.682-2.06,1.272,1.272,0,0,1,1.128-.485,1.689,1.689,0,0,1,.939,1.06c.273,1.462.386,2.946.56,4.423q.492,4.067.992,8.141a5.965,5.965,0,0,0,.265.932,4.634,4.634,0,0,0,.56-.894,47.78,47.78,0,0,1,4.483-9.6,5.977,5.977,0,0,1,1.091-1.424,1.333,1.333,0,0,1,1.181-.273,1.242,1.242,0,0,1,.333,1.151c-.659,1.977-1.416,3.923-2.151,5.877s-1.469,3.84-2.219,5.748c-.545,1.4-1.053,2.817-1.689,4.173a4.544,4.544,0,0,1-1.287,1.651,2.1,2.1,0,0,1-3.1-1.318c-.568-1.992-.947-4.036-1.409-6.058Z" transform="translate(-336.693 -80.379)"/>
      <path id="Path_312" data-name="Path 312" d="M68.059,340.9c.174.878.3,1.605.462,2.317a1.674,1.674,0,0,0,1.674,1.363c1.855.053,3.718.038,5.581,0a13.436,13.436,0,0,0,1.454-.121c.644-.083,1.234-.061,1.416.719s-.53.969-1.03,1.091a49.967,49.967,0,0,1-5.377,1.159,25.48,25.48,0,0,1-4.1.061c-1.795,0-3.355-1.727-3.711-3.415a17.062,17.062,0,0,1,1.128-10.943,8.7,8.7,0,0,1,5.483-4.869,5.664,5.664,0,0,1,2.522,0c.9.159,1.174.871.8,1.7a2.976,2.976,0,0,1-.682,1.068,1.166,1.166,0,0,1-1.037.227c-.523-.318-.8-.053-1.128.22a7.921,7.921,0,0,0-2.779,5.157C68.544,338.117,68.271,339.571,68.059,340.9Z" transform="translate(-300.781 -80.222)"/>
      <path id="Path_313" data-name="Path 313" d="M200.2,346.334c.3-2.189.523-4.317.886-6.43.3-1.734.757-3.453,1.151-5.165a4.233,4.233,0,0,1,.666-1.469,1.106,1.106,0,0,1,1.416-.5c.576.265.432.757.379,1.25q-.523,4.68-.947,9.36c0,.22.22.447.326.682s.371.576.3.757a31.339,31.339,0,0,1-1.431,3.552,1.2,1.2,0,0,1-2.189-.053A10.953,10.953,0,0,1,200.2,346.334Z" transform="translate(-333.836 -81.328)"/>
      <path id="Path_314" data-name="Path 314" d="M208.784,324.073a1.954,1.954,0,0,1-1.242,2.022,1.03,1.03,0,0,1-1.568-.485,2.635,2.635,0,0,1,1.3-3.567,1.257,1.257,0,0,1,1.439.886A9.911,9.911,0,0,1,208.784,324.073Z" transform="translate(-335.173 -78.741)"/>
    </g>
  </g>
</svg>
